<?xml version="1.0" encoding="utf-8"?>
<!-- Generator: Adobe Illustrator 26.3.1, SVG Export Plug-In . SVG Version: 6.00 Build 0)  -->
<svg version="1.1" id="Layer_1" xmlns="http://www.w3.org/2000/svg" xmlns:xlink="http://www.w3.org/1999/xlink" x="0px" y="0px"
	 viewBox="0 0 29.79 36.67" enable-background="new 0 0 29.79 36.67" xml:space="preserve">
<path fill="#FFFFFF" d="M29.68,14.42c-2.58-0.55-5.17-1.03-7.72-1.72c-1.16-0.31-2.31-0.64-3.46-0.99c1.17,0.25,2.34,0.45,3.52,0.6
	c2.58,0.27,5.34,0.41,7.76-0.64c-2.51,0.72-5.16,0.76-7.74,0.45c-1.51-0.2-3.02-0.47-4.51-0.83c0.44,0.08,0.89,0.16,1.33,0.24
	c1.48,0.21,2.97,0.49,4.47,0.42c-1.45-0.27-2.99-0.36-4.43-0.61c-0.64-0.09-1.28-0.22-1.91-0.36c1.1,0.21,2.23,0.37,3.34,0.46
	c2,0.13,4.05,0.24,6.01-0.25c-2,0.14-4,0.23-5.99,0.05c-1.03-0.09-2.07-0.23-3.1-0.42c0.1,0.01,0.19,0.02,0.27,0.03
	c2.09,0.22,4.21,0.23,6.3,0.09c1.05-0.06,2.1-0.19,3.12-0.44c-2.93,0.25-5.87,0.48-8.8,0.22c1.19,0.02,2.38-0.01,3.57-0.05
	c2.42-0.17,4.85-0.37,7.22-0.92c-2.39,0.2-4.85,0.61-7.23,0.72c-1.42,0.08-2.84,0.05-4.26,0.02c0.54-0.02,1.09-0.07,1.63-0.14
	c0.77-0.13,1.53-0.32,2.28-0.5l1.13-0.28c0.37-0.13,0.74-0.25,1.1-0.39c-1.51,0.22-3.05,0.73-4.55,0.98
	c-0.44,0.07-0.89,0.11-1.34,0.13c0.21-0.04,0.43-0.07,0.43-0.07c1.26-0.23,2.5-0.52,3.74-0.83c2.46-0.65,4.94-1.31,7.28-2.33
	c-3.66,1.08-7.29,2.3-11.05,2.97c-0.59,0.1-1.19,0.21-1.8,0.28c-0.09,0-0.17,0-0.26,0c0.53-0.07,1.05-0.19,1.56-0.31
	c0.77-0.17,1.53-0.37,2.29-0.57c1.17-0.2,2.33-0.42,3.48-0.74c0.99-0.26,2-0.55,2.85-1.13c-1.35,0.54-2.75,0.93-4.17,1.24
	c1.61-0.48,3.26-0.99,4.77-1.67c-2.05,0.55-4.11,1.32-6.15,1.88c-0.28,0.08-0.56,0.15-0.85,0.23c-0.24,0.04-0.48,0.08-0.72,0.12
	c0.67-0.19,1.34-0.38,2-0.58c2.17-0.72,4.42-1.39,6.34-2.66c-2.09,0.93-4.21,1.8-6.4,2.47c-1.33,0.42-2.69,0.77-4.05,1.1
	c-0.4,0.06-0.8,0.13-1.2,0.19c-0.01,0-0.03,0.01-0.04,0.01c0.62-0.2,1.25-0.4,1.9-0.55c1.14-0.31,2.34-0.49,3.37-0.89
	c-0.29,0.02-0.58,0.06-0.87,0.09l-0.85,0.2c-1.13,0.27-2.27,0.52-3.38,0.88c-0.12,0.04-0.24,0.08-0.36,0.13
	c0.16-0.09,0.31-0.18,0.47-0.27c0.12-0.06,0.25-0.12,0.37-0.18c0.34-0.11,0.68-0.21,1.01-0.35c0.48-0.17,1.15-0.4,1.61-0.59
	c1.59-0.66,3.11-1.48,4.61-2.3c0.9-0.49,2.11-1.2,2.92-1.8c-2.54,1.27-4.98,2.85-7.61,3.92c-0.39,0.16-0.82,0.32-1.25,0.47
	c0.34-0.17,0.67-0.34,1.01-0.52c1.4-0.81,2.81-1.65,3.98-2.78c-1.37,0.85-2.65,1.84-4.07,2.61c-0.16,0.08-0.32,0.17-0.48,0.25
	c2.34-1.45,4.58-3.09,6.52-5.04c-1.67,1.21-3.26,2.67-4.97,3.82c-1.11,0.73-2.36,1.48-3.53,2.19c-0.23,0.08-0.46,0.19-0.67,0.3
	c0.03-0.02,0.05-0.04,0.08-0.06c1.17-0.93,2.64-1.72,3.88-2.56c1.69-1.2,3.28-2.62,4.4-4.37c-1.38,1.53-2.8,3.05-4.51,4.21
	C18.3,7.38,17.06,8.06,16,8.83c0.4-0.35,0.8-0.69,1.22-1.01C18.2,7,19.28,6.29,20.14,5.44c-0.28,0.15-0.54,0.32-0.81,0.48L18.57,6.5
	c-0.5,0.38-0.99,0.77-1.48,1.17c-0.85,0.72-1.79,1.39-2.5,2.26c0.16-0.22,0.33-0.44,0.51-0.65c0.83-1.11,1.9-2.04,3.1-2.73
	c1.57-0.92,3.33-2.06,3.93-3.88c-0.9,1.63-2.43,2.81-4.03,3.7c-1.23,0.7-2.31,1.65-3.16,2.78c-0.1,0.16-0.2,0.32-0.3,0.48
	c0.15-0.36,0.29-0.73,0.54-1.04c0.36-0.53,0.88-0.95,1.2-1.51c-0.14,0.08-0.28,0.18-0.41,0.28l-0.33,0.36
	c-0.27,0.3-0.54,0.63-0.77,0.98c0.38-0.89,0.96-1.68,1.53-2.46c0.92-1.24,2.05-2.3,3.09-3.44c-1.28,0.88-2.28,2.11-3.24,3.32
	c-0.57,0.78-1.19,1.6-1.56,2.5c0.35-1.77,1.24-3.39,1.89-5.07c-0.73,0.97-1.13,2.15-1.56,3.28c-0.17,0.46-0.33,0.94-0.44,1.42
	c-0.01-0.25-0.03-0.5-0.06-0.76c0.05-0.77,0.12-1.54,0.23-2.31c0.19-1.61,0.58-3.26,0.74-4.87c-0.5,1.55-0.7,3.25-0.94,4.85
	c-0.06,0.46-0.11,0.92-0.16,1.38c-0.14-0.89-0.34-1.76-0.59-2.62c-0.6-1.55-1.69-2.92-3-3.94c1.2,1.41,2.61,2.81,3,4.68
	c0.23,0.93,0.41,1.88,0.52,2.83c-0.01,0.18-0.02,0.35-0.03,0.53c-0.09-0.27-0.2-0.54-0.32-0.8c-0.45-0.96-0.88-1.98-1.66-2.71
	c0.71,1.36,1.7,2.74,1.97,4.29c0,0.02,0,0.04,0,0.06c0.01,0.15,0.04,0.32,0.06,0.5c0,0.06,0.01,0.13,0.01,0.19
	c0.01,0.12,0.02,0.25,0.03,0.37c0,0.01,0,0.03,0,0.04c0,0,0,0-0.01,0c-0.14-0.5-0.27-1.01-0.53-1.47c-0.43-0.8-0.9-1.6-1.37-2.38
	c-0.02-0.07-0.04-0.15-0.06-0.22c-0.43-1.61-0.81-3.26-1.53-4.77c0.35,1.47,0.87,2.95,1.24,4.42c-0.88-1.4-1.74-2.91-2.8-4.19
	c0.35,0.67,0.91,1.6,1.34,2.23c0.55,0.87,1.1,1.74,1.63,2.62c0.06,0.22,0.11,0.46,0.17,0.71C12.22,6.49,12,6.05,11.78,5.6
	C10.9,3.98,9.89,2.43,8.66,1.06c0.42,0.7,1.06,1.63,1.52,2.29c0.97,1.36,1.68,2.87,2.47,4.33c0.17,0.61,0.39,1.22,0.71,1.71
	c-0.79-0.67-1.53-1.44-1.99-2.37c-0.29-0.66-0.64-1.32-0.99-1.96L9.83,4.11c-0.21-0.3-0.42-0.6-0.64-0.9
	c0.58,1.34,1.41,2.54,1.99,3.89c0.28,0.54,0.63,1.04,1.04,1.5c-0.85-0.6-1.71-1.18-2.54-1.8C8.13,5.65,6.65,4.28,5.1,3.11
	c1.33,1.45,2.91,2.64,4.46,3.85c0.74,0.56,1.51,1.09,2.28,1.61c-0.77-0.48-1.54-0.98-2.29-1.48C7.89,6.01,6.34,4.8,4.64,3.79
	c1.46,1.28,3.2,2.36,4.79,3.45c0.82,0.55,1.65,1.08,2.48,1.6c0.19,0.12,0.39,0.24,0.58,0.35c-1.02-0.53-2.1-1.06-2.93-1.5l-2.4-1.24
	C6.45,6.07,5.47,5.59,4.72,5.3c0.67,0.45,1.63,0.97,2.36,1.33l2.4,1.24c0.69,0.35,1.55,0.8,2.41,1.24C9.72,8.13,7.58,7.07,5.45,6
	L3.98,5.24L2.46,4.56c1.85,1.16,3.93,2.11,5.88,3.09c1.05,0.5,2.09,1.02,3.15,1.51C10.67,8.9,9.86,8.63,9.08,8.32
	c-1.73-0.63-3.48-1.45-5.24-2C4.58,6.73,5.6,7.17,6.39,7.48c1.37,0.54,2.74,1.09,4.13,1.58C9.84,8.85,9.17,8.63,8.5,8.4
	C6.52,7.75,4.52,6.91,2.52,6.28c1.86,0.95,3.96,1.61,5.92,2.3C8.83,8.71,9.22,8.84,9.6,8.97C9.44,8.93,9.29,8.89,9.14,8.85
	C7.59,8.48,5.31,7.81,3.76,7.59c1.48,0.55,3.79,1.04,5.33,1.45C9.25,9.08,9.42,9.13,9.6,9.17C9.34,9.11,9.08,9.06,8.81,9.01
	C7.9,8.85,6.98,8.75,6.06,8.64L4.69,8.5C4.22,8.48,3.76,8.47,3.3,8.47C5.08,8.81,7,8.88,8.78,9.21c0.91,0.17,1.87,0.39,2.81,0.61
	L9.97,9.56C9.25,9.43,8.52,9.32,7.8,9.21L6.71,9.05C6.34,9.04,5.97,9.01,5.6,9C7,9.37,8.52,9.48,9.93,9.75
	c0.44,0.07,1.34,0.22,2.12,0.34c-1.95-0.18-3.9-0.35-5.84-0.63L4.85,9.28l-1.38-0.1C5.23,9.62,7.13,9.77,8.92,10
	c0.69,0.07,1.39,0.15,2.08,0.22c-1.1,0.01-2.22-0.01-3.27-0.08c-2.27-0.15-4.59-0.29-6.82,0.28c1.13-0.08,2.27-0.18,3.4-0.22
	c2.27,0,4.55,0.29,6.83,0.21l0.31-0.01c-1.06,0.05-2.14,0.1-3.15,0.14l-3.02,0.1c-0.89,0.01-2.15,0.07-3.02,0.19
	c1.72,0.11,4.3-0.05,6.05-0.09c1.17-0.06,2.37-0.08,3.57-0.15c-2.17,0.26-4.35,0.42-6.54,0.41c-1.79,0-3.79-0.1-5.34,0.95
	c0.53-0.3,1.13-0.43,1.72-0.53c1.19-0.25,2.4-0.25,3.61-0.23c1.23,0.01,2.45-0.04,3.68-0.13C8.91,11.08,8.8,11.1,8.7,11.11
	c-1.57,0.29-3.93,0.62-5.44,1.07c0.8-0.06,1.95-0.24,2.74-0.4c0,0,1.61-0.28,2.26-0.39c-0.16,0.03-0.32,0.07-0.48,0.1
	c-2.13,0.5-4.39,0.94-6.47,1.64c2.16-0.36,4.37-0.99,6.51-1.44c1.23-0.29,2.47-0.53,3.71-0.78c-1.03,0.33-2.06,0.68-3.07,0.98
	c-1.67,0.54-4.19,1.22-5.79,1.87c1.71-0.33,4.17-1.18,5.85-1.68c0.45-0.15,0.91-0.29,1.38-0.44c-0.62,0.24-1.23,0.5-1.84,0.75
	c-0.51,0.21-1.02,0.42-1.54,0.62c-1.56,0.63-2.83,1.94-3.47,3.49c0.58-0.93,1.28-1.79,2.13-2.49c0.86-0.71,1.95-1,2.95-1.43
	c1.54-0.63,3.06-1.28,4.67-1.71c0.24-0.08,0.48-0.15,0.73-0.22c-0.89,0.4-1.75,0.83-2.67,1.16c-1.21,0.45-2.54,0.79-3.49,1.72
	c2.02-1.19,4.41-1.64,6.42-2.84c-0.07,0.07-0.15,0.13-0.22,0.2c-0.6,0.27-1.23,0.57-1.73,0.82c-0.91,0.44-1.83,0.84-2.76,1.24
	c-1.82,0.88-3.6,1.89-5.16,3.18c1.75-1,3.4-2.17,5.24-3c1.37-0.6,2.75-1.19,4.08-1.9c-0.04,0.05-0.08,0.1-0.12,0.15
	c-0.49,0.37-1,0.7-1.51,1.06c-0.9,0.72-1.73,1.59-2.2,2.65c0.75-0.85,1.4-1.81,2.32-2.49c0.32-0.22,0.65-0.45,0.98-0.67
	c-0.28,0.4-0.52,0.83-0.73,1.26c-0.34,0.91-0.79,1.78-1.21,2.65c0.68-0.72,1.03-1.66,1.39-2.57c0.29-0.63,0.69-1.22,1.13-1.76
	c0.16-0.12,0.31-0.24,0.47-0.37c-0.35,0.61-0.62,1.26-0.92,1.89c-0.43,0.96-1.14,1.73-1.78,2.54c1.6-1.03,2.1-3,2.99-4.57
	c0,0,0.01-0.02,0.01-0.02c-0.02,0.1-0.04,0.2-0.06,0.32c-0.12,0.42-0.19,0.86-0.27,1.29c-0.01,0.09-0.02,0.18-0.03,0.27
	c-0.53,2.73-1.44,7.35-2.44,12.55c-0.14,0.16-0.28,0.41-0.42,0.81c-0.33,0.95-0.87,3.14-1.28,5.47L9.49,32
	c-0.3,1.51-0.86,4.31,0.04,4.62c0.05,0.02,0.09,0.03,0.14,0.04c0.35,0.06,0.6-0.18,0.97-0.96c0.38-0.79,0.94-3.62,1.4-7.05
	c0.25-1.82,0.18-2.7,0.05-3.12c1.17-6.62,2.11-12.26,2.44-14.38c0.21,0.74,0.58,1.44,1.1,2c0.37,1.02,0.66,2.07,0.93,3.12
	c0.08,0.34,0.17,0.69,0.24,1.03l0.31,1.02c-0.08-1.42-0.52-2.78-0.92-4.14c-0.08-0.24-0.16-0.48-0.24-0.72
	c0.15,0.13,0.3,0.25,0.47,0.36c0.38,0.24,0.75,0.51,1.11,0.79c0.25,0.19,0.5,0.4,0.75,0.6c1.23,1.55,2.32,3.2,3.56,4.74
	c-0.82-1.47-1.83-2.81-2.86-4.14c0.91,0.78,1.8,1.6,2.74,2.32c-0.3-0.34-0.62-0.67-0.94-1l-1.02-0.91
	c-0.44-0.38-0.88-0.76-1.33-1.13c-0.02-0.03-0.05-0.06-0.07-0.1c-1.16-1.46-2.34-3.02-3.68-4.34c0.01-0.01,0.02-0.03,0.03-0.04
	c0.69,0.84,1.54,1.59,2.28,2.41c0.86,0.9,1.62,1.94,2.71,2.58c-1.32-1.33-2.55-2.73-3.87-4.07l-0.01-0.01c1,0.86,3.1,2.71,3.95,3.45
	c1.59,1.38,3.9,3.54,5.56,4.8c-1.44-1.52-3.85-3.53-5.43-4.95c-0.74-0.64-1.65-1.45-2.57-2.26c0.86,0.66,1.71,1.32,2.54,1.99
	c1.57,1.22,3.83,3.15,5.45,4.25c-1.42-1.37-3.78-3.15-5.33-4.41c-0.06-0.04-0.11-0.09-0.16-0.13c1.25,0.89,2.75,2,3.9,2.65
	c-1.22-1.07-3.26-2.41-4.59-3.38c-0.59-0.41-1.3-0.92-2.03-1.44c0.09,0.05,0.17,0.1,0.25,0.15c2.03,1.16,4.12,2.21,6.25,3.16
	c1.06,0.49,2.15,0.93,3.27,1.26c-3.12-1.43-6.29-2.77-9.26-4.5c0.81,0.38,1.63,0.74,2.45,1.09c1.97,0.78,3.96,1.6,6.07,1.91
	c-1.99-0.64-3.99-1.25-5.92-2.06c0.48,0.17,0.97,0.34,1.46,0.5c2.5,0.76,5.04,1.48,7.65,1.72c-2.54-0.58-5.1-1.1-7.59-1.91
	c-1.07-0.33-2.12-0.72-3.15-1.15c0.42,0.15,0.83,0.3,1.25,0.44c1.89,0.61,3.78,1.25,5.75,1.54c-0.83-0.29-2.01-0.62-2.85-0.85
	c-1.8-0.51-3.58-1.1-5.31-1.82c1.48,0.5,3,0.89,4.49,1.31C24.47,13.53,27.04,14.22,29.68,14.42z M12.84,7.64
	c-0.08-0.28-0.15-0.56-0.22-0.84c0.35,0.6,0.7,1.2,1.03,1.81c0.23,0.45,0.42,0.92,0.63,1.39c-0.03,0.01-0.06,0.02-0.09,0.04
	c-0.35-0.66-0.8-1.44-1.14-2.01C12.99,7.9,12.91,7.77,12.84,7.64z M13.17,8.61c0.27,0.46,0.56,0.91,0.88,1.34
	c-0.07-0.05-0.13-0.11-0.2-0.16C13.57,9.45,13.35,9.05,13.17,8.61z M14.02,10.28C14.02,10.28,14.02,10.28,14.02,10.28
	C14.01,10.28,14.01,10.28,14.02,10.28C14.01,10.28,14.01,10.28,14.02,10.28z M13.81,10.2c-0.03,0-0.07,0-0.1,0
	c-0.07-0.02-0.15-0.05-0.22-0.07C13.59,10.15,13.7,10.18,13.81,10.2z M12.94,10.64c0.01,0,0.02-0.01,0.04-0.01
	c0.35-0.07,0.69-0.14,1.04-0.21c0,0.01,0,0.02,0,0.02c-0.03,0.01-0.06,0.03-0.09,0.04C13.59,10.52,13.26,10.57,12.94,10.64z
	 M14.03,10.68c-0.02,0.01-0.04,0.02-0.05,0.02c0.03-0.04,0.06-0.08,0.09-0.12c0,0.01,0.01,0.01,0.01,0.02
	C14.07,10.62,14.05,10.65,14.03,10.68z M17.75,14.54c-0.04-0.03-0.08-0.06-0.11-0.09c-0.59-0.49-1.3-0.84-1.84-1.4
	c-0.24-0.69-0.52-1.37-0.88-1.99C15.83,12.22,16.83,13.37,17.75,14.54z M14.85,11.29c0.2,0.4,0.38,0.82,0.55,1.24
	c-0.34-0.5-0.61-1.05-0.83-1.62c0.01-0.07,0.02-0.14,0.03-0.2C14.69,10.9,14.77,11.09,14.85,11.29z M14.63,10.07
	c-0.01-0.01-0.02-0.02-0.03-0.02c0.09-0.08,0.19-0.16,0.28-0.24c-0.06,0.07-0.12,0.13-0.19,0.2C14.67,10.02,14.65,10.05,14.63,10.07
	z M14.68,10.12C14.68,10.12,14.67,10.11,14.68,10.12c0.05-0.03,0.1-0.06,0.16-0.08c0,0,0,0,0,0C14.78,10.06,14.73,10.09,14.68,10.12
	z M14.79,10.43c-0.01,0-0.01-0.01-0.02-0.01c0,0,0-0.01,0-0.01c0.01,0.01,0.02,0.01,0.03,0.02C14.8,10.43,14.79,10.43,14.79,10.43z
	 M14.93,10.43c-0.01,0-0.02-0.01-0.02-0.01c0.01,0,0.03,0.01,0.04,0.01C14.94,10.43,14.93,10.43,14.93,10.43z M15.18,10.56
	c-0.02-0.01-0.05-0.02-0.07-0.03c-0.01-0.01-0.03-0.01-0.04-0.02c0.05,0.01,0.1,0.01,0.16,0.02c0.16,0.05,0.31,0.1,0.47,0.14
	C15.52,10.63,15.35,10.6,15.18,10.56z M14.77,10.28c0,0-0.01,0-0.01,0c0,0,0,0,0,0c0.81-0.11,1.61-0.26,2.41-0.45
	c0.21-0.03,0.41-0.06,0.62-0.09C16.79,9.97,15.79,10.16,14.77,10.28z"/>
</svg>
