<?xml version="1.0" encoding="utf-8"?>
<!-- Generator: Adobe Illustrator 26.3.1, SVG Export Plug-In . SVG Version: 6.00 Build 0)  -->
<svg version="1.1" id="Layer_1" xmlns="http://www.w3.org/2000/svg" xmlns:xlink="http://www.w3.org/1999/xlink" x="0px" y="0px"
	 viewBox="0 0 36.91 53.57" enable-background="new 0 0 36.91 53.57" xml:space="preserve">
<path fill="#FFFFFF" d="M23.37,18.8c0.88,0.19,1.73,0.36,2.44,0.52c1.11,0.22,2.22,0.4,3.34,0.57l1.67,0.26
	c0.56,0.04,1.13,0.09,1.69,0.12c-2.15-0.55-4.48-0.75-6.65-1.2c-0.29-0.06-0.6-0.12-0.92-0.2c0.65,0.01,1.31-0.03,1.95-0.13
	c0.02,0,0.04-0.01,0.06-0.01c0.36,0.02,0.71,0.04,1.07,0.06C31,18.83,34,18.74,36.91,18.1c-2.93,0.18-5.85,0.52-8.78,0.43
	c1.07-0.19,2.14-0.39,3.19-0.64c1.28-0.07,2.55-0.2,3.81-0.46c-0.81,0.03-1.63,0.07-2.44,0.12c0.52-0.14,1.04-0.3,1.55-0.47
	l-1.86,0.31c-0.34,0.08-0.69,0.15-1.04,0.23c-1.4,0.07-2.81,0.13-4.21,0.12c-0.96,0.01-1.94-0.01-2.92-0.05
	c0.88-0.1,1.76-0.22,2.64-0.34c2.57-0.44,5.17-0.84,7.63-1.74c-2.56,0.45-5.09,1.11-7.67,1.48c-1.35,0.22-2.7,0.36-4.05,0.46
	c0.32-0.09,0.64-0.18,0.96-0.28c1.41-0.48,2.87-0.94,4.07-1.84c-2.09,0.8-4.13,1.75-6.34,2.16c-0.25-0.01-0.51-0.01-0.76-0.02
	c0.11-0.04,0.21-0.09,0.32-0.13c4.61-1.05,10.91-3.9,14.16-6.92c-2.46,1.66-4.99,3.24-7.72,4.43c-1.56,0.72-3.19,1.28-4.83,1.79
	c1.01-0.46,2-0.95,2.98-1.45c2.31-1.23,4.78-2.47,6.91-4.02c-2.36,1.16-4.68,2.61-7.03,3.79c-1.46,0.78-2.97,1.46-4.5,2.11
	c0.74-0.36,1.47-0.81,2.14-1.23c0.96-0.61,1.88-1.28,2.77-1.99c0.91-0.47,1.82-0.94,2.66-1.48c-0.43,0.15-0.85,0.31-1.27,0.48
	c0,0-0.2,0.1-0.44,0.22c0.34-0.29,0.68-0.59,1.01-0.9c0.84-0.77,1.63-1.6,2.27-2.55c-1.42,1.35-2.79,2.75-4.32,3.98
	c-1.06,0.56-2.14,1.13-3.18,1.74c0.55-0.41,1.1-0.83,1.65-1.23c1.39-1.09,3.57-2.6,4.79-3.85c-0.78,0.47-1.79,1.21-2.5,1.79
	L24.12,14c-1.28,0.98-2.6,1.89-3.89,2.84c0.53-0.49,1.3-1.19,1.65-1.51l1.38-1.24l0.69-0.61c0.2-0.24,0.41-0.47,0.61-0.71
	c-0.27,0.16-0.52,0.34-0.78,0.52l-0.69,0.62l-1.38,1.24l-0.18,0.16c0.44-0.49,0.88-0.97,1.34-1.43c0.58-0.6,1.18-1.19,1.78-1.78
	c0.54-0.51,1.29-1.25,1.71-1.85c-0.33,0.27-0.66,0.52-0.99,0.79c-0.88,0.85-1.84,1.79-2.69,2.66c-0.4,0.43-0.82,0.85-1.23,1.29
	c0.04-0.06,0.08-0.12,0.12-0.17l2.05-2.79c1.16-1.62,3.02-3.95,4-5.65c-1.34,1.45-3.01,3.9-4.21,5.5l-2.05,2.79
	c-0.2,0.28-0.42,0.56-0.62,0.84c0.28-0.44,1.09-1.7,1.09-1.7c0.41-0.66,1.5-2.4,1.88-3.05c0.17-0.36,0.34-0.73,0.49-1.1L23.5,10.6
	c-0.39,0.65-1.46,2.38-1.88,3.04l-1.28,2.01l-0.47,0.72c0.53-1.27,1.03-2.57,1.71-3.74c1.03-1.67,2.2-3.42,2.95-5.25
	c-0.51,0.71-1.18,1.78-1.6,2.55c-0.32,0.56-0.65,1.1-0.99,1.64c0.25-0.47,0.51-0.93,0.79-1.38c0.18-0.37,0.38-0.71,0.59-1.07
	c-1.18,1.15-1.8,2.73-2.53,4.18c-0.24,0.5-0.48,1.01-0.73,1.51c0.43-1.64,1.25-4.69,1.59-5.96C22.45,5.99,23.24,3.01,23,0
	c-0.12,1.49-0.31,2.97-0.54,4.44c-0.24,1.47-0.67,2.9-1.05,4.35c-0.38,1.42-1.38,5.13-1.73,6.51c-0.02,0.12-0.05,0.25-0.07,0.39
	c-0.15,0.27-0.29,0.55-0.39,0.85c-0.02-0.15-0.04-0.32-0.06-0.49c0.27-0.88,0.96-3.17,1.23-4.06c0.44-1.58,1.23-3.9,1.42-5.51
	c-0.32,0.79-0.66,1.88-0.87,2.71l-0.79,2.73l-0.82,2.72c-0.08,0.24-0.16,0.5-0.24,0.76c-0.05-0.46-0.1-0.9-0.13-1.16l-0.2-1.86
	l-0.1-0.93c-0.08-0.31-0.14-0.61-0.23-0.92c-0.02,0.32-0.02,0.63-0.03,0.94l0.1,0.93l0.2,1.86l0.21,1.8
	c-0.04,0.17-0.08,0.34-0.12,0.5c-0.19-2.14-0.37-4.98-0.53-7.03c-0.19-2.5-0.46-5.04-1.25-7.44c0.33,2.49,0.86,4.94,0.99,7.46
	c0.1,1.04,0.15,2.31,0.25,3.57c-0.52-3.15-0.49-6.4-1.21-9.52c0.01,0.98,0.14,2.4,0.27,3.38c0.27,2.25,0.36,4.52,0.78,6.74l0.3,1.67
	c0.12,0.45,0.24,0.89,0.36,1.34c0,0.02-0.01,0.03-0.01,0.05c-0.41-1.68-1.06-3.29-1.64-4.92c-0.74-1.86-1.37-3.79-2.44-5.49
	c0.64,1.87,1.53,3.73,2.2,5.58c0.5,1.29,0.91,2.61,1.38,3.91c-0.11-0.21-0.22-0.43-0.34-0.64l-0.1-0.3l-0.53-1.57l-0.26-0.79
	c-0.13-0.25-0.25-0.5-0.39-0.74c0.04,0.28,0.09,0.55,0.14,0.83l0.26,0.78l0.01,0.03c-0.04-0.1-0.09-0.19-0.14-0.29
	c-0.72-1.55-1.24-3.25-2.01-4.78c0.09,0.43,0.2,0.85,0.31,1.27l0.46,1.22c0.31,0.81,0.64,1.61,1,2.4c0.34,0.71,0.67,1.44,1.03,2.14
	l0.1,0.3c-0.14-0.21-0.29-0.43-0.43-0.64c-0.22-0.4-0.43-0.8-0.64-1.21c-0.68-1.4-1.1-2.91-1.66-4.38c-1.1-2.88-2.22-5.93-3.66-8.66
	c1,2.88,2.39,5.89,3.41,8.75c0.45,1.24,0.87,2.53,1.39,3.77c-0.08-0.13-0.16-0.25-0.25-0.38c-0.62-1.31-1.2-2.64-1.72-4
	c-0.19-0.48-0.38-0.97-0.56-1.46L13.02,6.1c0.42,1.8,1.17,3.5,1.9,5.2c-1.12-1.9-2.16-3.97-3.44-5.76c0.42,0.97,1.1,2.23,1.64,3.14
	c0.59,1.02,1.16,2.06,1.77,3.08c0.27,0.44,0.54,0.88,0.82,1.31c0.18,0.4,0.37,0.8,0.57,1.19c-0.8-1.05-1.44-2.21-2.23-3.26
	c0.46,1.35,1.36,2.48,2.18,3.62c-0.3-0.29-0.6-0.59-0.9-0.88c-0.93-1.11-1.85-2.19-2.6-3.09C10.94,8.56,8.4,5.35,6.5,3.42
	c1.57,2.22,4.28,5.27,6.02,7.39c0.24,0.28,0.49,0.57,0.74,0.88c-0.27-0.27-0.53-0.54-0.79-0.81C10.17,8.56,7.7,6.18,4.62,4.92
	c2.85,1.66,5.4,3.77,7.67,6.15c0.11,0.11,0.22,0.22,0.33,0.33c-1.98-1.84-3.98-3.76-6.43-4.95c2.33,1.65,4.53,3.47,6.58,5.45
	c0.81,0.77,1.6,1.57,2.37,2.38c-0.7-0.65-1.36-1.27-1.75-1.64c-1.83-1.71-3.75-3.42-6.01-4.55c2.01,1.51,4.04,2.97,5.83,4.74
	c0.28,0.26,0.69,0.65,1.16,1.09c-0.06-0.05-0.12-0.09-0.17-0.14c-2.77-2.34-5.7-4.64-8.85-6.43c2.26,1.79,4.8,3.39,7.01,5.22
	c0.47,0.39,0.94,0.78,1.41,1.18c-0.27-0.2-0.53-0.39-0.8-0.6c-2.18-1.57-4.41-3.32-6.74-4.68c2.06,1.73,4.44,3.27,6.58,4.89
	c0.58,0.42,1.15,0.86,1.73,1.29c-0.84-0.42-1.73-0.86-2.6-1.3c-1.55-0.94-3.06-1.92-4.52-2.99L6.55,9.69
	C5.73,8.98,4.8,8.36,4.13,7.48c0.72,1.27,1.99,2.21,3.14,3.08c0.71,0.52,1.43,1.02,2.17,1.5C9,11.84,8.59,11.62,8.22,11.42
	c-2.2-1.28-3.98-3.15-5.62-5.08c1.02,1.68,2.39,3.09,3.95,4.25C5.88,10.23,5.21,9.89,4.52,9.6c1.41,1.07,3.19,1.92,4.75,2.8
	c1.28,0.66,2.53,1.4,3.85,1.95c1,0.58,2.01,1.15,3.03,1.71c-0.37-0.18-0.74-0.36-1.07-0.52c-2.82-1.33-5.73-2.45-8.69-3.4
	c-1.48-0.49-2.98-0.9-4.52-1.15c4.44,1.39,8.91,2.75,13.11,4.79c0.53,0.25,1.57,0.77,2.08,1.04c0.3,0.13,0.6,0.28,0.9,0.42
	c0,0,0.01,0.01,0.01,0.01c-1.63-0.77-3.4-1.27-5.11-1.84c-2.1-0.63-4.29-1.41-6.46-1.77c2.05,0.8,4.3,1.33,6.38,2.02
	c1.71,0.52,3.39,1.16,5.08,1.75c-0.16-0.02-0.31-0.04-0.44-0.06c-3.52-1.31-7.19-2.25-10.85-3.08c-0.02-0.01-0.04-0.02-0.07-0.02
	l-2.09-0.75L2.3,12.82c0.75,0.36,1.53,0.69,2.32,0.99c-1.18-0.25-2.53-0.51-3.55-0.61l2.24,0.6l2.26,0.5
	c0.28,0.06,0.56,0.13,0.84,0.19c1.3,0.46,2.62,0.89,3.9,1.33c-0.39-0.1-0.66-0.17-0.66-0.17c-0.93-0.26-2.23-0.56-3.17-0.69
	c1.72,0.69,4.44,1.26,6.25,1.75c0.34,0.08,0.68,0.17,1.02,0.25c-1.81-0.18-3.64-0.39-5.37-0.74C5.72,15.68,2.68,14.94,0,14.6
	c2.16,0.64,4.91,1.15,7.13,1.62c1.01,0.24,2.04,0.42,3.08,0.57c-1.37-0.15-2.74-0.33-4.1-0.4c2.07,0.55,4.33,0.69,6.46,0.87
	c0.23,0.01,0.46,0.02,0.69,0.04c-0.22,0.01-0.43,0.01-0.65,0.02c-0.11,0.01-0.21,0.01-0.32,0.02c-0.45-0.04-0.89-0.08-1.34-0.13
	c-0.79-0.11-1.93-0.2-2.72-0.2c0.44,0.11,0.89,0.2,1.33,0.3c0.4,0.05,0.81,0.09,1.23,0.14c-1.14,0.09-2.27,0.23-3.38,0.49
	c-1.65-0.09-3.29-0.22-4.94-0.29c1.34,0.28,2.71,0.43,4.08,0.52c-0.07,0.02-0.15,0.04-0.22,0.06c0.15-0.02,0.3-0.03,0.45-0.05
	c1.33,0.08,2.66,0.1,3.99,0.13c2.27,0,4.56,0.02,6.83-0.23c-0.77,0.18-1.55,0.35-2.34,0.45c-1.29,0.22-2.6,0.23-3.87,0.54
	c0.33,0.03,0.66,0.04,0.99,0.06l0.98-0.09c0.53-0.06,1.05-0.12,1.58-0.19c-0.63,0.13-1.26,0.27-1.86,0.52
	c0.27,0.01,0.54-0.01,0.81-0.02l0.79-0.17c0.54-0.12,1.08-0.24,1.61-0.38c-0.81,0.32-1.65,0.58-2.48,0.87l-2.76,0.92
	c-0.87,0.27-1.9,0.65-2.72,1.05c0.89-0.18,1.94-0.49,2.8-0.8l2.76-0.92c1.4-0.45,2.84-0.94,4.17-1.62c0.12-0.04,0.23-0.08,0.35-0.13
	c0.01,0,0.02,0,0.03,0.01c-1.66,0.63-3.14,1.67-4.63,2.61c-0.79,0.52-1.56,1.05-2.33,1.59l-1.15,0.82
	c-0.36,0.31-0.72,0.62-1.06,0.94c1.61-0.93,3.12-2.15,4.68-3.14c1.13-0.77,2.31-1.44,3.48-2.13c-0.79,0.53-1.56,1.09-2.35,1.58
	c-1.33,0.89-2.76,1.63-3.92,2.57c0.36-0.15,0.72-0.32,1.08-0.49l1-0.61c1.33-0.82,2.65-1.67,3.94-2.55
	c0.23-0.15,0.45-0.31,0.68-0.48c-0.65,0.78-1.25,1.59-1.81,2.44l-0.42,0.66c-0.1,0.24-0.21,0.48-0.29,0.74
	c0.71-0.76,1.18-1.7,1.82-2.53c0.27-0.39,0.58-0.75,0.89-1.11c-0.42,0.58-0.82,1.18-1.2,1.79l-0.34,0.55
	c-0.07,0.21-0.15,0.41-0.21,0.63c0.61-0.62,0.96-1.43,1.47-2.13c0.19-0.3,0.41-0.58,0.62-0.87c-1.13,3-3.94,10.37-7.54,19.85
	c-0.28,0.14-0.62,0.44-0.99,1.08c-0.68,1.17-1.93,3.91-3,6.88l-0.16,0.42c-0.75,1.91-2.14,5.47-0.88,6.14
	c0.07,0.04,0.13,0.06,0.19,0.09c0.51,0.19,0.91-0.06,1.62-0.99c0.72-0.94,2.13-4.53,3.5-8.93c0.83-2.66,0.83-3.82,0.66-4.34
	c3.44-9.44,6.1-16.85,7.17-19.97c-0.19,1.75-0.27,4.43,1.01,5.61c-0.76-1.51-0.95-3.22-0.83-4.9c0.04,0.52,0.08,1.04,0.15,1.55
	c0.05,0.46,0.14,0.93,0.41,1.31c-0.12-1.27-0.32-2.53-0.36-3.81c0.06,0.33,0.16,0.66,0.24,0.95c0.39,1.4,0.96,2.74,1.66,4.01
	c0.34,0.65,0.73,1.26,1.25,1.77c-0.64-1.29-1.43-2.49-1.95-3.83c-0.24-0.57-0.45-1.17-0.63-1.77c0.52,1.21,1.19,2.35,1.84,3.48
	c1.02,1.83,1.71,3.92,2.61,5.81c-0.62-2.59-1.84-5.03-3.18-7.32c-0.65-1.16-1.17-2.38-1.7-3.6c1.42,2.35,2.86,4.68,4.15,7.1
	c0.41,0.8,1.05,1.92,1.56,2.65c-0.73-1.88-1.85-3.69-2.83-5.45c-0.52-0.87-1.01-1.77-1.55-2.64c0.46,0.64,0.91,1.28,1.32,1.94
	c1.03,1.52,1.91,3.23,3.02,4.7c-0.69-1.65-1.84-3.31-2.8-4.84c-0.62-0.92-1.22-1.87-1.9-2.76c0.47,0.58,0.93,1.15,1.36,1.76
	c0.94,1.23,1.71,2.59,2.74,3.76c-0.16-0.36-0.35-0.7-0.53-1.05l-0.65-0.96c-0.44-0.64-0.89-1.28-1.35-1.9
	c-0.18-0.24-0.36-0.48-0.54-0.72c1.06,1.27,2.1,2.56,3.08,3.9c1.56,2.06,2.97,4.35,4.55,6.41c-1.21-2.33-2.81-4.43-4.34-6.56
	c-0.67-0.88-1.33-1.77-2.02-2.63c0.6,0.65,1.17,1.33,1.71,2.02l0.76,0.81c-0.6-1.19-1.53-2.17-2.43-3.15
	c0.58,0.49,1.12,0.95,1.45,1.23c0.84,0.72,1.68,1.44,2.55,2.13c0.82,0.66,1.67,1.33,2.65,1.74c1.02,0.7,2.08,1.33,3.21,1.83
	c-1.23-0.81-2.47-1.62-3.66-2.49c-1.26-1.67-2.87-3.03-4.46-4.38c-0.42-0.33-0.85-0.67-1.28-0.99c0.8,0.45,1.62,0.88,2.42,1.33
	c2.08,1.08,4.21,2.33,6.41,3.15l-1.54-0.91c-1.54-0.78-3.24-1.65-4.75-2.47c-1.01-0.53-2-1.1-2.98-1.67
	c0.85,0.37,1.71,0.72,2.54,1.07c2.07,0.81,4.14,1.69,6.34,2.06c-2.07-0.81-4.2-1.44-6.25-2.3c-1.42-0.56-2.83-1.23-4.26-1.85
	c0.61,0.2,1.23,0.39,1.85,0.56c4.07,1.21,8.31,2.03,12.57,1.78c-2.8-0.3-5.64-0.33-8.4-0.97C25.91,19.5,24.63,19.16,23.37,18.8z
	 M16.96,16.47c0.09,0.04,0.19,0.09,0.28,0.13c0.02,0.02,0.04,0.04,0.06,0.06C17.19,16.6,17.08,16.54,16.96,16.47z M16.88,15.62
	c0.09,0.08,0.17,0.16,0.26,0.24c0.04,0.07,0.08,0.14,0.13,0.21c-0.01-0.01-0.03-0.02-0.04-0.03C17.11,15.91,16.99,15.76,16.88,15.62
	z M17.16,15.4c-0.09-0.17-0.18-0.34-0.26-0.51l0.17,0.25c0.09,0.16,0.19,0.32,0.28,0.47C17.29,15.55,17.22,15.47,17.16,15.4z
	 M8.88,15.07c2.5,0.61,4.99,1.31,7.41,2.14c-0.23-0.02-0.47-0.05-0.7-0.07c-0.4-0.1-0.8-0.19-1.2-0.29
	C12.55,16.28,10.71,15.69,8.88,15.07z M10.78,18.05c-0.79,0-1.59-0.03-2.38-0.06c1.31-0.16,2.63-0.31,3.95-0.39
	c0.44,0.04,0.87,0.07,1.29,0.1c1.07,0.05,2.15,0.14,3.22,0.13c0.12,0.03,0.24,0.06,0.36,0.08C15.08,17.97,12.93,18.1,10.78,18.05z
	 M17.87,17.89c-0.02-0.01-0.04-0.01-0.06-0.02c0.04,0.01,0.08,0.01,0.12,0.01C17.91,17.89,17.89,17.89,17.87,17.89z M19.43,16.65
	c-0.03,0.19-0.06,0.38-0.08,0.55c-0.01,0.03-0.02,0.06-0.03,0.09c-0.01,0-0.03-0.01-0.04-0.01c0-0.08,0-0.16,0-0.24
	C19.32,16.91,19.37,16.78,19.43,16.65z M18.96,16.55l0.06,0.51c0.02,0.05,0.03,0.11,0.05,0.16c0,0.02,0,0.04,0,0.06
	c-0.04,0.01-0.07,0.02-0.1,0.03c-0.05-0.1-0.1-0.19-0.15-0.29c0-0.04-0.01-0.07-0.01-0.11C18.86,16.79,18.91,16.67,18.96,16.55z
	 M18.79,16.95c0,0.02,0.01,0.03,0.01,0.05c-0.01-0.01-0.01-0.03-0.02-0.04C18.79,16.96,18.79,16.95,18.79,16.95z M18.75,17.49
	c-0.01,0.01-0.01,0.02-0.02,0.04c-0.02,0-0.04-0.01-0.05-0.01c-0.02-0.01-0.04-0.03-0.06-0.04c0-0.02-0.01-0.05-0.01-0.07
	C18.65,17.43,18.7,17.46,18.75,17.49z M18.65,17.73c0-0.01,0-0.02,0-0.03c0.01,0,0.01,0,0.02,0c0,0.02,0,0.03,0,0.05
	C18.66,17.74,18.66,17.73,18.65,17.73z M18.66,17.78c0,0,0,0.01,0,0.01C18.66,17.79,18.66,17.78,18.66,17.78
	C18.66,17.78,18.66,17.78,18.66,17.78z M18.67,18.03C18.67,18.03,18.67,18.04,18.67,18.03c-0.02,0.02-0.04,0.04-0.06,0.06
	c-0.01,0-0.02,0.01-0.04,0.01c-0.01,0-0.02-0.01-0.03-0.01C18.59,18.08,18.63,18.05,18.67,18.03z M18.64,17.59c0.01,0,0.02,0,0.02,0
	c0.01,0,0.02,0.01,0.03,0.01c0,0,0,0.01,0,0.01c0,0,0,0,0,0C18.67,17.61,18.65,17.6,18.64,17.59z M18.27,17.21l0.02,0.06
	c-0.07-0.05-0.12-0.08-0.12-0.08c-0.01-0.01-0.02-0.01-0.03-0.02c-0.03-0.03-0.06-0.06-0.09-0.1C18.12,17.12,18.2,17.17,18.27,17.21
	z M17.96,16.72c0.01,0.01,0.02,0.01,0.02,0.01c0,0,0.01,0.01,0.01,0.01C17.98,16.74,17.97,16.73,17.96,16.72z M18.07,17.6
	c-0.02-0.01-0.05-0.02-0.07-0.03c0.1,0,0.2,0.01,0.29,0.01c0.01,0.01,0.02,0.02,0.03,0.03C18.23,17.6,18.15,17.6,18.07,17.6z
	 M18.39,16.73l-0.03-0.09c0.07,0.12,0.15,0.23,0.23,0.34c-0.04-0.05-0.09-0.09-0.13-0.14C18.42,16.78,18.42,16.78,18.39,16.73z
	 M18.43,17.61C18.43,17.61,18.43,17.6,18.43,17.61c0,0,0.01,0,0.01,0C18.44,17.61,18.44,17.61,18.43,17.61z M18.44,17.73
	C18.44,17.73,18.44,17.73,18.44,17.73C18.44,17.73,18.44,17.73,18.44,17.73C18.44,17.73,18.44,17.73,18.44,17.73z M23.81,15.05
	c0.24-0.14,0.49-0.28,0.75-0.41c-1.19,0.87-2.47,1.68-3.78,2.35c-0.32,0.21-0.65,0.39-0.99,0.57c-0.03,0-0.07,0-0.1,0
	C21.08,16.77,22.42,15.8,23.81,15.05z M19.66,17.45c0.02-0.03,0.04-0.06,0.06-0.09c0.05-0.03,0.1-0.05,0.15-0.08
	C19.79,17.34,19.73,17.4,19.66,17.45z M19.67,17.98c0.02,0.02,0.03,0.04,0.05,0.06c-0.02-0.02-0.04-0.04-0.06-0.06
	C19.66,17.98,19.67,17.98,19.67,17.98z M19.72,16.03c0.02-0.03,0.03-0.06,0.04-0.08c-0.05,0.13-0.09,0.26-0.14,0.39
	C19.66,16.23,19.69,16.13,19.72,16.03z M19.55,17.45c0.03-0.02,0.06-0.03,0.09-0.05c-0.01,0.03-0.03,0.06-0.04,0.1
	c0,0-0.01,0.01-0.01,0.01C19.58,17.49,19.57,17.47,19.55,17.45C19.55,17.45,19.55,17.45,19.55,17.45z M19.49,18.16
	C19.49,18.15,19.5,18.15,19.49,18.16c0.09,0.07,0.17,0.15,0.25,0.23c0.11,0.14,0.22,0.27,0.33,0.41
	C19.88,18.57,19.69,18.36,19.49,18.16z M24.36,21.2c1.62,1.29,3.04,2.82,4.61,4.17c-1.04-0.76-2.05-1.56-3-2.45
	c-0.78-0.73-1.54-1.52-2.31-2.27C23.89,20.82,24.13,21.01,24.36,21.2z M21.68,19.21c1.44,1.22,2.75,2.59,4.12,3.9
	c0.29,0.26,0.58,0.52,0.87,0.77c-2.06-1.67-4.09-3.48-6.06-5.13c-0.14-0.1-0.28-0.21-0.42-0.31c-0.16-0.15-0.33-0.31-0.5-0.45
	c0.06,0,0.13,0.01,0.19,0.01c0.13,0.08,0.26,0.15,0.4,0.22C20.74,18.55,21.21,18.88,21.68,19.21z M21.99,17.87
	c1.71,0.11,3.43,0.1,5.14,0.12c0.88-0.01,1.77-0.02,2.65-0.04c-0.96,0.2-1.92,0.38-2.84,0.52c-1.82-0.1-3.63-0.3-5.43-0.59
	C21.67,17.88,21.83,17.88,21.99,17.87z M21.8,18.18c1.18,0.21,2.37,0.35,3.57,0.45C24.17,18.64,22.98,18.45,21.8,18.18z"/>
</svg>
