<?xml version="1.0" encoding="utf-8"?>
<!-- Generator: Adobe Illustrator 26.3.1, SVG Export Plug-In . SVG Version: 6.00 Build 0)  -->
<svg version="1.1" id="Layer_1" xmlns="http://www.w3.org/2000/svg" xmlns:xlink="http://www.w3.org/1999/xlink" x="0px" y="0px"
	 viewBox="0 0 29.09 39.64" enable-background="new 0 0 29.09 39.64" xml:space="preserve">
<g>
	<path fill="#FFFFFF" d="M20.75,8.57C20.64,8.65,20.7,8.61,20.75,8.57L20.75,8.57z"/>
	<path fill="#FFFFFF" d="M28.25,16.55l-1.69-0.34l-1.7-0.26c-1.6-0.25-3.21-0.54-4.8-0.86c0.32,0.05,0.64,0.09,0.96,0.13l1.05,0.13
		c0.35,0.01,0.71,0.02,1.06,0.02l-1.04-0.22l-1.05-0.13c-1.23-0.15-2.46-0.36-3.68-0.61c0.31,0.03,0.62,0.05,0.92,0.09
		c1.2,0.12,2.4,0.26,3.6,0.4c1.74,0.21,3.64,0.46,5.39,0.7l1.81,0.16c-2.32-0.53-4.81-0.75-7.17-1.06c-1.2-0.14-2.4-0.28-3.6-0.4
		c-0.7-0.11-1.41-0.09-2.11-0.22c-0.01,0-0.02-0.01-0.03-0.01c1.87,0.19,4.17,0.28,5.82,0.4c2.01,0.11,5.02,0.39,7.01,0.35
		c-1.98-0.29-4.98-0.4-7-0.55c-1.73-0.1-4.2-0.31-6.12-0.35c-0.07-0.03-0.14-0.07-0.21-0.1c1.95,0.08,4.48,0,6.26,0.01
		c2.02-0.03,5.05,0.03,7.04-0.15c-2-0.15-5.01-0.05-7.04-0.05c-1.83,0.03-4.47-0.02-6.43,0.1c-0.06-0.03-0.13-0.06-0.19-0.09
		c-0.01-0.01-0.02-0.01-0.04-0.02c0.1-0.01,0.21-0.01,0.31-0.02c0.97,0,1.93-0.07,2.9-0.07c1.21-0.04,2.46,0.07,3.58-0.09
		c-0.3-0.05-0.6-0.08-0.9-0.11l-0.9-0.01c-0.6,0-1.2,0-1.79,0.01c-0.11,0-0.23,0.01-0.34,0.01c0.85-0.1,1.69-0.2,2.53-0.26
		c1.37-0.13,2.88-0.24,4.26-0.33l1.42-0.18c-1.87-0.08-3.83,0.17-5.69,0.32c-1.47,0.15-2.95,0.26-4.41,0.51
		c-0.29,0.02-0.57,0.05-0.86,0.1c0.06-0.01,0.12-0.03,0.18-0.04c1.49-0.18,2.97-0.42,4.46-0.57c1.68-0.21,3.46-0.27,5.12-0.58
		c-1.7-0.04-3.46,0.22-5.14,0.38c-0.9,0.11-1.82,0.2-2.72,0.33c1.48-0.4,3.05-0.87,4.26-1.2c1.92-0.56,4.82-1.29,6.67-1.98
		c-1.95,0.38-4.79,1.27-6.72,1.79c-1.67,0.49-4.09,1.11-5.91,1.71c-0.09,0.02-0.17,0.05-0.26,0.07c0.09-0.07,0.18-0.13,0.27-0.2
		c0.01,0,0.08-0.02,0.08-0.02c0.87-0.28,1.83-0.58,2.71-0.84l1.81-0.53l0.91-0.26c0.29-0.12,0.59-0.23,0.88-0.35
		c-0.31,0.04-0.62,0.1-0.94,0.16l-0.91,0.26l-1.82,0.53c-0.06,0.02-0.12,0.04-0.18,0.05c0.47-0.17,0.95-0.34,1.43-0.49
		c1.62-0.57,3.37-1.01,4.96-1.66c-1.69,0.32-3.39,0.95-5.03,1.47c-0.94,0.33-1.89,0.63-2.81,0.99c1.4-0.66,2.85-1.2,4.33-1.65
		c0.37-0.12,0.74-0.23,1.12-0.33l1.1-0.4c-1.55,0.22-3.03,0.78-4.49,1.3c-0.01,0.01-0.03,0.01-0.04,0.02
		c0.35-0.17,0.7-0.32,1.06-0.47c1.6-0.72,3.34-1.28,4.95-1.99c-1.75,0.39-3.39,1.13-5.03,1.81c-0.97,0.43-1.95,0.87-2.89,1.37
		l1.16-1.02l1.45-1.28l0.73-0.64c0.22-0.24,0.44-0.47,0.66-0.71c-0.27,0.18-0.53,0.38-0.79,0.56l-0.72,0.64l-1.45,1.28l-1.45,1.28
		l-0.43,0.38c-0.07,0.04-0.14,0.09-0.21,0.13c-0.05,0.03-0.11,0.06-0.16,0.1c0.59-0.94,1.16-1.89,1.77-2.82l1.08-1.66l0.55-0.82
		c0.16-0.29,0.32-0.58,0.47-0.88c-0.22,0.25-0.42,0.51-0.63,0.77c-0.35,0.52-1.27,1.94-1.63,2.48c-0.6,1-1.34,1.95-1.79,3.04
		c-0.1,0.07-0.2,0.14-0.3,0.21c-0.01,0-0.01-0.01-0.02-0.01c0.85-1.37,1.64-2.79,2.53-4.13c0.86-1.37,1.91-2.72,2.71-4.14
		c-1.08,1.22-1.97,2.68-2.87,4.03c-0.85,1.35-1.78,2.68-2.36,4.18c0.21-1.17,0.36-2.34,0.68-3.48c0.31-1.28,0.81-2.5,1.13-3.78
		c-0.65,1.16-0.96,2.46-1.32,3.73c-0.28,1.16-0.59,2.35-0.57,3.55c-0.03-0.01-0.05-0.02-0.08-0.03c-0.01,0-0.03,0-0.04,0
		c0.03-1.36-0.3-2.73-0.53-4.07L14.2,8.35c-0.09-0.23-0.17-0.47-0.28-0.7L14,8.4c0.06,0.24,0.11,0.48,0.16,0.72
		c0.33,1.37,0.4,2.71,0.64,4.03c-0.03,0-0.05,0.01-0.08,0.02c-0.02-0.03-0.03-0.06-0.05-0.09c-0.01-0.09-0.02-0.28-0.02-0.28
		c-0.03-0.46-0.08-0.92-0.14-1.37c-0.02-0.24-0.09-0.46-0.23-0.66c-0.03,0.62,0.13,1.23,0.17,1.86c-0.05-0.11-0.1-0.22-0.14-0.34
		c-0.07-0.15-0.14-0.3-0.22-0.44c-0.09-1.09-0.22-2.18-0.22-3.3c-0.01-0.26-0.01-0.53-0.01-0.79l-0.09-0.79
		c-0.05,0.26-0.07,0.53-0.11,0.79l0.01,0.79c0.05,0.9,0.06,1.82,0.14,2.73C13,9.51,12.2,7.57,11.44,5.83
		c-0.09-0.17-0.34-0.62-0.43-0.78l-0.08-0.12c-0.03-0.04-0.05-0.09-0.1-0.1c0.06,0.03,0.1,0.2,0.13,0.25
		c0.07,0.17,0.24,0.66,0.3,0.83l0.46,1.08c0.37,0.87,0.85,1.99,1.3,3.01c-0.57-1.05-1.12-2.11-1.64-3.2C10.3,4.61,9.37,2.23,8.32,0
		c0.75,2.38,1.83,4.64,2.9,6.89c0.86,1.71,1.69,3.45,2.69,5.08c0,0,0,0.01,0,0.01c-0.51-0.8-1.03-1.6-1.48-2.44
		c-0.7-1.2-1.28-2.54-2.04-3.7c0.45,1.31,1.22,2.58,1.87,3.79c0.29,0.53,0.6,1.05,0.91,1.56c-0.86-1.06-1.74-2.11-2.56-3.16
		C9.59,6.74,8.49,5.3,7.49,3.97L6.4,2.65c1.17,1.92,2.69,3.73,4.06,5.5c1,1.24,2.01,2.55,3.07,3.78c-0.01,0-0.01-0.01-0.02-0.01
		c-0.73-0.62-1.43-1.28-2.09-1.97c-0.31-0.33-0.62-0.65-0.98-0.93C9.6,8,8.79,6.96,7.99,5.91C7.4,5.11,6.56,4.01,5.91,3.24
		c1.15,1.9,2.63,3.71,4.01,5.44c0.71,0.87,1.44,1.74,2.21,2.56c0.34,0.36,0.68,0.72,1.05,1.06c-0.31-0.2-0.61-0.41-0.9-0.64
		c-0.85-0.62-1.62-1.41-2.49-2c0.16,0.21,0.34,0.41,0.52,0.62l0.6,0.53c0.41,0.35,0.82,0.69,1.25,1.01c0.22,0.16,0.45,0.33,0.69,0.5
		c-0.11-0.03-0.22-0.06-0.34-0.09c-1.33-0.93-2.55-2.01-3.76-3.11c-1.8-1.63-3.5-3.49-5.28-5.14c1.55,1.92,3.36,3.6,5.15,5.29
		c0.91,0.83,1.83,1.65,2.8,2.41c0.05,0.03,0.09,0.07,0.14,0.1c-0.84-0.44-1.66-0.94-2.45-1.48c-0.29-0.19-0.58-0.39-0.86-0.59
		l-0.9-0.54c1,0.98,2.23,1.68,3.42,2.4c0.3,0.16,0.59,0.33,0.9,0.49c-0.15-0.02-0.3-0.05-0.45-0.07c-1.2-0.71-2.35-1.49-3.46-2.34
		C5.93,8.29,4.25,6.74,2.47,5.3C4.02,7,5.84,8.41,7.65,9.81c0.9,0.66,1.81,1.33,2.76,1.93c-0.16-0.05-0.32-0.1-0.48-0.15
		c-0.57-0.16-1.15-0.34-1.74-0.51C6.69,10.3,5.26,9.39,3.8,8.55c1.08,0.9,2.28,1.62,3.52,2.29c-0.85-0.23-1.71-0.42-2.56-0.53
		c1.1,0.38,2.26,0.67,3.41,0.98c0.17,0.09,0.35,0.18,0.52,0.27c-2.08-0.45-4.2-0.92-6.11-1.89C2.04,9.39,1.45,9.12,1.08,8.63
		c1.15,1.81,5.59,2.67,7.64,3.13c0,0,0.4,0.07,0.67,0.12c0.39,0.18,0.79,0.36,1.19,0.52c-0.27-0.06-0.55-0.13-0.82-0.2
		c-1.69-0.39-3.35-0.91-5.04-1.31c1.46,0.67,3.04,1.01,4.59,1.4c-1.51-0.23-3.68-0.64-5.16-0.68C4.9,11.81,6,12.01,6.77,12.1
		l2.63,0.41c0.9,0.13,1.82,0.31,2.75,0.47c0.09,0.03,0.18,0.06,0.27,0.08c-0.58-0.06-1.17-0.13-1.73-0.2
		c-1.02-0.11-2.02-0.33-3.04-0.42c-0.05-0.01-0.18-0.02-0.26-0.03c0.01,0,0.02,0,0.03,0c-0.03,0-0.08-0.02-0.1-0.01
		c-0.01,0-0.01,0.01-0.01,0.02c0,0.01,0.01,0.02,0.01,0.02c0.07,0.04,0.24,0.09,0.32,0.12l0.42,0.13c1.72,0.29,3.49,0.52,5.23,0.68
		c0.06,0,0.13,0,0.19,0c-0.11,0.02-0.22,0.04-0.33,0.07c-1.85-0.2-3.71-0.35-5.55-0.65c-2.46-0.36-4.89-0.9-7.29-1.51
		c2.31,0.95,4.81,1.3,7.26,1.7c1.54,0.22,3.08,0.43,4.63,0.55c-1.74-0.02-3.5,0-5.21-0.09C4.65,13.36,2.33,13.1,0,12.98
		c2.29,0.47,4.65,0.53,6.98,0.65c1.05,0.03,2.11,0.07,3.16,0.08C9.76,13.76,9.38,13.79,9,13.83c-1.72,0.19-3.53,0.32-5.25,0.66
		c-0.41,0.02-0.81,0.04-1.2,0.06l-1.73,0.16c2.28,0.1,4.67-0.14,6.94-0.29c0.98-0.09,1.99-0.16,3-0.24
		c-1.03,0.15-2.04,0.31-2.87,0.43c-1.86,0.29-4.66,0.61-6.46,1.05c1.86-0.11,4.62-0.6,6.49-0.85c0.73-0.11,1.6-0.23,2.5-0.36
		c-0.03,0.01-0.06,0.03-0.09,0.04c-0.97,0.18-1.91,0.36-2.7,0.49c-2.01,0.38-5.04,0.85-6.99,1.37c2.02-0.2,5-0.83,7.02-1.17
		c0.26-0.05,0.55-0.1,0.84-0.16c-0.28,0.08-0.55,0.15-0.81,0.22c-1.98,0.57-4.97,1.32-6.87,2.06c2-0.42,4.92-1.33,6.92-1.87
		c0.39-0.11,0.99-0.27,1.66-0.45c-0.45,0.25-0.9,0.52-1.34,0.78c-1.81,1.19-3.62,2.45-5.09,4.05c1.7-1.34,3.35-2.74,5.19-3.89
		c0.69-0.44,1.4-0.83,2.13-1.2c0.12-0.03,0.23-0.06,0.35-0.1c0.24-0.04,0.47-0.09,0.71-0.13c-0.47,0.22-0.94,0.45-1.39,0.7
		c-1.5,0.84-3.02,1.68-4.31,2.83c1.49-0.86,2.88-1.86,4.4-2.65c0.71-0.38,1.43-0.73,2.17-1.04c0.21-0.04,0.42-0.08,0.63-0.13
		c-0.67,0.33-1.31,0.71-1.94,1.07c-1.25,0.78-2.54,1.53-3.62,2.56l0.95-0.57c0.3-0.21,0.6-0.42,0.91-0.63
		c0.18-0.12,0.36-0.24,0.54-0.35c-0.2,0.17-0.41,0.34-0.61,0.52c0.25-0.12,0.49-0.25,0.74-0.38l0.69-0.45
		c0.16-0.11,0.32-0.21,0.48-0.31c-0.35,0.25-0.71,0.5-1.06,0.74c-1.34,0.97-3.4,2.34-4.61,3.44c0.72-0.42,1.71-1.11,2.38-1.61
		l2.34-1.67c1.05-0.74,2.21-1.54,3.3-2.28c0.17-0.1,0.33-0.2,0.5-0.3c0.03-0.01,0.06-0.01,0.09-0.02c-0.05,0.03-0.09,0.06-0.14,0.09
		c-0.69,0.46-1.37,0.94-2.04,1.43l-0.5,0.37c-0.15,0.15-0.3,0.29-0.44,0.45c0.19-0.09,0.37-0.2,0.56-0.29l0.5-0.37
		c0.56-0.44,1.16-0.83,1.75-1.22c-0.19,0.15-0.37,0.3-0.55,0.44c-0.42,0.35-0.88,0.74-1.29,1.11c-0.09,0.11-0.18,0.23-0.26,0.35
		c-0.02,0.04-0.06,0.08-0.05,0.13c0.02-0.05,0.16-0.13,0.21-0.17l0.24-0.16c0.69-0.63,1.42-1.23,2.16-1.81l0.44-0.33
		c-0.32,1.72-1.48,7.55-2.79,14.36c0,0,0.01,0,0.01,0c-0.14,0.16-0.29,0.41-0.43,0.82c-0.33,0.95-0.87,3.14-1.28,5.47l-0.06,0.33
		c-0.3,1.51-0.86,4.31,0.04,4.62c0.05,0.02,0.09,0.03,0.14,0.04c0.35,0.06,0.6-0.18,0.97-0.96c0.38-0.79,0.94-3.62,1.41-7.05
		c0.25-1.83,0.18-2.7,0.05-3.13c0,0,0,0,0,0c1.08-6.15,1.97-11.45,2.34-13.78l0.13,0.71l0.15,0.85l0.07,0.43
		c0.06,0.14,0.11,0.27,0.17,0.41c0.02-0.15,0.02-0.29,0.02-0.44l-0.08-0.43l-0.15-0.85l-0.11-0.65c0.08,0.2,0.16,0.4,0.23,0.59
		c0.25,0.54,0.45,1.14,0.92,1.53l-0.15-0.43c-0.07-0.13-0.15-0.25-0.21-0.39c-0.28-0.48-0.44-0.97-0.61-1.45
		c0.75,1.1,1.64,2.13,2.46,3.15c1.07,1.24,2.1,2.55,3.4,3.57c-1.05-1.26-2.21-2.42-3.25-3.69c-0.93-1.09-1.8-2.3-2.75-3.4
		c-0.04-0.1-0.08-0.2-0.12-0.3c0,0,0,0,0,0c0,0,0,0,0,0c0.09,0.06,0.17,0.12,0.26,0.18c0.04,0.07,0.09,0.14,0.13,0.21
		c0.66,0.86,1.4,1.7,2.16,2.46c1.04,1.01,2.08,2.07,3.34,2.81c-1.04-1.01-2.19-1.9-3.2-2.94c-0.56-0.56-1.1-1.15-1.6-1.77
		c1.14,1.12,2.35,2.18,3.49,3.24c1.48,1.31,3.62,3.36,5.2,4.52c-1.36-1.41-3.6-3.32-5.06-4.66c-0.24-0.22-0.49-0.45-0.74-0.68
		c0.32,0.26,0.65,0.51,0.98,0.77c1.86,1.37,3.77,2.74,5.91,3.63c-1.97-1.2-3.96-2.38-5.79-3.79c-0.81-0.6-1.58-1.24-2.33-1.9
		c0.06,0.05,0.13,0.09,0.19,0.14c1.16,0.79,2.29,1.66,3.59,2.21c-1.1-0.84-2.37-1.55-3.48-2.37c-0.41-0.28-0.81-0.59-1.2-0.9
		c0.1,0.05,0.19,0.11,0.29,0.16c0.92,0.64,1.86,1.24,2.79,1.86c1.84,1.15,3.64,2.37,5.63,3.25c-1.81-1.18-3.71-2.22-5.52-3.41
		c-0.46-0.29-0.93-0.6-1.39-0.91c0.68,0.33,1.36,0.65,2.04,0.96c2.06,0.9,4.11,1.84,6.29,2.42c-2.05-0.9-4.17-1.65-6.21-2.6
		c-1.19-0.52-2.34-1.11-3.49-1.72c-0.15-0.1-0.3-0.2-0.45-0.3c1.02,0.54,2.08,1.02,3.12,1.51c1.82,0.81,3.64,1.66,5.57,2.15
		c-1.81-0.82-3.69-1.48-5.49-2.33c-0.15-0.07-0.3-0.14-0.44-0.2c0.4,0.16,0.8,0.32,1.2,0.49c2.05,0.79,4.19,1.71,6.32,2.28
		l-1.54-0.66l-1.57-0.59c-1.19-0.43-2.36-0.9-3.53-1.38c1.14,0.41,2.29,0.79,3.48,1c-0.74-0.3-1.59-0.59-2.35-0.82
		c-0.66-0.21-1.32-0.44-1.97-0.69c1.23,0.31,2.47,0.6,3.73,0.62c-1.82-0.42-3.69-0.73-5.47-1.32c-0.06-0.03-0.12-0.05-0.18-0.08
		c1.23,0.29,2.47,0.55,3.71,0.78C23.67,15.94,25.99,16.41,28.25,16.55z M9.66,11.73c0,0-0.1-0.02-0.24-0.04
		c-0.09-0.04-0.18-0.09-0.28-0.13c0.24,0.07,0.48,0.14,0.72,0.22C9.8,11.76,9.73,11.75,9.66,11.73z M11.64,13.89
		c-1.3,0.12-2.65,0.24-3.9,0.33c-0.5,0.04-1.01,0.08-1.53,0.11c0.94-0.11,1.88-0.23,2.81-0.31c0.99-0.11,1.98-0.18,2.97-0.26
		C11.87,13.8,11.76,13.85,11.64,13.89z M14.49,13.1C14.48,13.1,14.48,13.1,14.49,13.1C14.48,13.1,14.48,13.1,14.49,13.1L14.49,13.1z
		 M14.2,12.68c0.09,0.1,0.19,0.2,0.28,0.3l0.01,0.09c-0.05-0.02-0.11-0.04-0.16-0.06c-0.05-0.03-0.1-0.06-0.15-0.09
		c0-0.09-0.01-0.18-0.01-0.26C14.17,12.66,14.18,12.67,14.2,12.68z M14.3,13.25c-0.04-0.01-0.08-0.02-0.12-0.03c0,0,0,0,0-0.01
		C14.22,13.22,14.26,13.24,14.3,13.25z M14.17,13.21C14.17,13.21,14.17,13.21,14.17,13.21c-0.01,0.01-0.01,0-0.02,0
		c-0.07-0.02-0.14-0.04-0.2-0.05c-0.04-0.02-0.08-0.04-0.12-0.06C13.93,13.13,14.05,13.17,14.17,13.21z M14.15,13.33
		c-0.06-0.01-0.13-0.03-0.19-0.04c0.05,0.01,0.1,0.02,0.15,0.02C14.12,13.32,14.14,13.33,14.15,13.33z M11.95,12.71
		c-0.6-0.2-1.19-0.43-1.76-0.67c0.32,0.05,0.64,0.1,0.96,0.15c0.38,0.22,0.76,0.42,1.16,0.6C12.19,12.76,12.07,12.73,11.95,12.71z
		 M12.81,12.89c-0.24-0.13-0.48-0.26-0.71-0.39c0.34,0.12,0.69,0.24,1.03,0.36c0.11,0.07,0.23,0.13,0.35,0.19
		C13.25,12.99,13.03,12.94,12.81,12.89z M12.28,11.12c-0.12-0.13-0.23-0.25-0.35-0.38c0.13,0.12,0.26,0.24,0.38,0.37
		c0.55,0.49,1.09,1.03,1.7,1.45c0.02,0.1,0.04,0.2,0.07,0.31c-0.01-0.01-0.03-0.02-0.04-0.02C13.41,12.32,12.85,11.7,12.28,11.12z
		 M13.24,13.76c-0.18,0.01-0.31,0.01-0.31,0.01c-0.19,0.02-0.37,0.04-0.56,0.05c0.1-0.04,0.21-0.08,0.31-0.12
		c0.34-0.03,0.67-0.06,1.01-0.09c0.02,0,0.05,0,0.07,0C13.58,13.66,13.41,13.7,13.24,13.76z M14.12,13.86c-0.01,0-0.03,0-0.04,0.01
		c0.06-0.03,0.12-0.05,0.17-0.08C14.21,13.81,14.16,13.83,14.12,13.86z M14.32,13.48c-0.23-0.01-0.47-0.01-0.7,0
		c-0.07-0.01-0.13-0.02-0.2-0.02c0.09-0.03,0.14-0.04,0.28-0.09c0.22,0.04,0.44,0.07,0.67,0.09C14.35,13.46,14.34,13.47,14.32,13.48
		z M14.08,13.34c0.03,0,0.05,0,0.08,0c0.09,0.03,0.18,0.06,0.27,0.08c0,0,0,0-0.01,0C14.31,13.39,14.2,13.37,14.08,13.34z
		 M14.48,13.48c-0.02,0-0.03,0-0.05,0c0.01-0.01,0.02-0.02,0.03-0.02c0.01,0,0.01,0,0.02,0C14.48,13.47,14.48,13.48,14.48,13.48z
		 M14.51,13.38c-0.02,0.01-0.03,0.02-0.05,0.03c-0.05-0.02-0.1-0.04-0.15-0.06c0.07,0.01,0.13,0.01,0.2,0.02
		C14.51,13.37,14.51,13.37,14.51,13.38z M15.04,13.88c0-0.01,0-0.02,0-0.02c0.01-0.01,0.03-0.01,0.04-0.02
		c0.02,0.01,0.04,0.02,0.07,0.04c0.01,0.01,0.02,0.02,0.03,0.03c0,0,0,0.01,0.01,0.01C15.13,13.91,15.08,13.89,15.04,13.88z
		 M15.3,13.29c-0.01,0.02-0.01,0.03-0.02,0.05c-0.02,0.02-0.04,0.04-0.06,0.07c-0.01-0.03-0.02-0.06-0.04-0.09
		C15.24,13.3,15.25,13.3,15.3,13.29z M15.2,13.69C15.21,13.69,15.21,13.69,15.2,13.69c0.01,0,0.02,0.01,0.02,0.01
		C15.22,13.7,15.21,13.7,15.2,13.69z"/>
</g>
</svg>
