<?xml version="1.0" encoding="utf-8"?>
<!-- Generator: Adobe Illustrator 26.3.1, SVG Export Plug-In . SVG Version: 6.00 Build 0)  -->
<svg version="1.1" id="Layer_1" xmlns="http://www.w3.org/2000/svg" xmlns:xlink="http://www.w3.org/1999/xlink" x="0px" y="0px"
	 viewBox="0 0 44.89 75.33" enable-background="new 0 0 44.89 75.33" xml:space="preserve">
<path fill="#FFFFFF" d="M44.49,18.81c-3.39,0.84-6.7,2-10.18,2.43c-1.62,0.22-3.24,0.36-4.87,0.48c1.1-0.16,2.16-0.31,3.07-0.43
	c1.39-0.21,2.76-0.48,4.13-0.75l2.05-0.41c0.67-0.19,1.35-0.37,2.02-0.58c-2.74,0.28-5.53,1.03-8.25,1.42
	c-0.36,0.05-0.75,0.11-1.15,0.16c0.76-0.26,1.51-0.58,2.21-0.98c0.02-0.01,0.04-0.02,0.06-0.04c0.42-0.13,0.85-0.26,1.27-0.39
	c3.47-1.21,6.93-2.58,10.04-4.56c-3.33,1.45-6.58,3.08-10.03,4.22c1.17-0.67,2.32-1.36,3.44-2.1c1.46-0.62,2.88-1.31,4.23-2.15
	c-0.93,0.38-1.86,0.77-2.79,1.17c0.55-0.39,1.08-0.79,1.61-1.21l-2.03,1.15c-0.36,0.23-0.74,0.47-1.11,0.71
	c-1.6,0.68-3.21,1.34-4.85,1.92c-1.12,0.42-2.26,0.81-3.41,1.18c0.98-0.49,1.96-1,2.92-1.52c2.8-1.6,5.66-3.17,8.14-5.25
	c-2.79,1.61-5.45,3.44-8.29,4.97c-1.47,0.83-2.99,1.56-4.52,2.25c0.34-0.24,0.67-0.48,1-0.73c1.43-1.16,2.94-2.31,3.96-3.87
	c-2.09,1.82-4.06,3.78-6.46,5.2c-0.3,0.1-0.59,0.2-0.89,0.3c0.11-0.09,0.21-0.19,0.32-0.29c4.92-3.17,11.04-9.16,13.55-14.05
	c-2.16,2.97-4.43,5.88-7.1,8.42c-1.52,1.5-3.16,2.84-4.86,4.13c0.98-0.96,1.92-1.95,2.85-2.95c2.17-2.41,4.51-4.9,6.33-7.6
	c-2.26,2.34-4.34,5.02-6.57,7.38c-1.37,1.52-2.84,2.96-4.34,4.36c0.71-0.73,1.36-1.56,1.96-2.33c0.85-1.11,1.64-2.28,2.37-3.49
	c0.86-0.93,1.72-1.86,2.47-2.85c-0.44,0.35-0.85,0.73-1.28,1.09c0,0-0.19,0.2-0.42,0.44c0.27-0.49,0.54-0.98,0.79-1.47
	c0.66-1.25,1.22-2.56,1.57-3.93c-1.07,2.17-2.08,4.38-3.34,6.46c-1,1.11-2.01,2.22-2.97,3.37c0.47-0.71,0.92-1.43,1.4-2.13
	c1.16-1.86,3.05-4.54,3.94-6.51c-0.71,0.88-1.57,2.16-2.15,3.14l-2.05,3.2c-1.07,1.68-2.22,3.29-3.32,4.95
	c0.41-0.8,1.01-1.94,1.28-2.45l1.08-2.02l0.55-1.01c0.14-0.36,0.28-0.72,0.41-1.09c-0.24,0.3-0.46,0.62-0.69,0.93l-0.54,1.01
	l-1.08,2.02l-0.14,0.26c0.3-0.75,0.61-1.5,0.96-2.23c0.43-0.95,0.87-1.89,1.32-2.82c0.42-0.82,0.97-2,1.21-2.88
	c-0.27,0.45-0.55,0.89-0.82,1.34c-0.66,1.36-1.39,2.86-2,4.24c-0.29,0.67-0.59,1.34-0.89,2.02c0.02-0.09,0.05-0.17,0.07-0.26
	l1.21-4.11c0.67-2.37,1.84-5.87,2.27-8.27c-0.94,2.26-1.85,5.81-2.57,8.18l-1.21,4.11c-0.12,0.41-0.25,0.82-0.37,1.24
	c0.14-0.63,0.54-2.44,0.54-2.44c0.2-0.94,0.73-3.43,0.9-4.34c0.04-0.49,0.08-0.99,0.1-1.48l-0.41,1.42c-0.17,0.92-0.7,3.38-0.9,4.33
	l-0.64,2.88l-0.16,0.68c-0.01-0.34-0.02-0.65-0.02-0.94c0.06-1.28,0.13-2.55,0.35-3.78c0.49-2.38,1.11-4.91,1.21-7.36
	c-0.3,1.04-0.61,2.57-0.78,3.65c-0.14,0.78-0.3,1.55-0.46,2.33c0.09-0.65,0.2-1.3,0.34-1.94c0.05-0.5,0.15-0.99,0.23-1.49
	c-0.88,1.84-0.94,3.93-1.17,5.93c-0.01,0.06-0.01,0.12-0.02,0.19l-0.34,0.02c0,0.06,0,0.17,0,0.3c-0.19-2.1-0.42-4.78-0.53-6.05
	C22.95,7.19,22.6,3.4,21.05,0c0.48,1.78,0.9,3.58,1.25,5.39c0.34,1.81,0.45,3.66,0.62,5.5c0.16,1.81,0.57,6.56,0.74,8.3
	c0.03,0.15,0.05,0.31,0.08,0.48c-0.06,0.37-0.1,0.77-0.09,1.15c-0.09-0.17-0.18-0.35-0.28-0.54c-0.06-1.14-0.22-4.09-0.29-5.24
	c-0.16-2.02-0.22-5.05-0.68-7.01c-0.03,1.05,0.02,2.47,0.13,3.52l0.23,3.51l0.2,3.51c0.01,0.31,0.02,0.64,0.05,0.98
	c-0.26-0.51-0.5-1-0.65-1.29l-1.02-2.08l-0.51-1.04c-0.22-0.32-0.42-0.65-0.65-0.97c0.11,0.38,0.24,0.74,0.36,1.11l0.51,1.04
	l1.02,2.08l1,2c0.02,0.21,0.04,0.43,0.07,0.64c-1.13-2.4-2.54-5.63-3.6-7.95c-1.29-2.83-2.67-5.67-4.6-8.12
	c1.44,2.75,3.09,5.39,4.31,8.26c0.56,1.17,1.16,2.62,1.8,4.05c-1.94-3.45-3.28-7.24-5.44-10.56c0.43,1.14,1.18,2.73,1.75,3.82
	c1.26,2.5,2.33,5.11,3.76,7.51l1.05,1.82c0.33,0.47,0.65,0.94,0.99,1.4c0,0.02,0.01,0.04,0.01,0.06c-1.18-1.78-2.62-3.38-3.98-5.03
	c-1.65-1.85-3.2-3.83-5.17-5.36c1.54,1.91,3.36,3.69,4.92,5.57c1.13,1.28,2.16,2.65,3.25,3.96c-0.22-0.2-0.44-0.41-0.66-0.61
	l-0.24-0.3l-1.28-1.6l-0.64-0.8c-0.25-0.23-0.5-0.47-0.76-0.7c0.16,0.31,0.34,0.6,0.51,0.9l0.64,0.8l0.02,0.03
	c-0.09-0.09-0.19-0.18-0.28-0.28c-1.49-1.49-2.82-3.26-4.36-4.71c0.28,0.46,0.59,0.9,0.9,1.34l1.05,1.22
	c0.71,0.81,1.43,1.6,2.18,2.37c0.7,0.68,1.39,1.39,2.11,2.05l0.25,0.31c-0.26-0.19-0.51-0.37-0.77-0.56
	c-0.43-0.37-0.85-0.75-1.25-1.14c-1.38-1.34-2.51-2.92-3.78-4.4c-2.5-2.89-5.09-5.95-7.92-8.53c2.38,2.92,5.28,5.84,7.68,8.73
	c1.04,1.25,2.08,2.58,3.21,3.8c-0.15-0.11-0.3-0.23-0.45-0.34c-1.28-1.26-2.52-2.56-3.7-3.92c-0.43-0.48-0.85-0.97-1.27-1.46
	l-1.37-1.38c1.25,1.92,2.84,3.58,4.41,5.25c-2.11-1.73-4.2-3.7-6.45-5.25c0.9,0.95,2.22,2.13,3.24,2.96
	c1.12,0.94,2.22,1.9,3.36,2.83c0.5,0.4,1,0.79,1.51,1.18c0.38,0.39,0.77,0.77,1.16,1.15c-1.37-0.89-2.61-1.96-3.98-2.85
	c1.1,1.37,2.63,2.31,4.07,3.28c-0.47-0.21-0.95-0.43-1.42-0.64c-1.55-0.89-3.08-1.76-4.33-2.5c-2.95-1.67-7.27-4.33-10.3-5.77
	c2.77,1.91,7.21,4.32,10.14,6.05c0.39,0.22,0.81,0.46,1.24,0.71c-0.43-0.2-0.85-0.4-1.27-0.6c-3.67-1.73-7.55-3.46-11.66-3.62
	c4.01,0.73,7.87,2.1,11.53,3.91c0.17,0.08,0.35,0.16,0.52,0.24c-3.08-1.3-6.23-2.69-9.58-3.04c3.41,0.93,6.74,2.11,9.97,3.55
	c1.27,0.55,2.52,1.15,3.76,1.76c-1.09-0.47-2.12-0.91-2.73-1.17c-2.85-1.22-5.81-2.39-8.92-2.75c2.97,0.91,5.96,1.75,8.79,3.04
	c0.43,0.19,1.08,0.46,1.81,0.78c-0.09-0.03-0.18-0.06-0.26-0.09c-4.21-1.55-8.6-2.98-13.02-3.73c3.38,1.13,7.02,1.92,10.37,3.11
	c0.71,0.26,1.42,0.52,2.14,0.77c-0.39-0.12-0.79-0.23-1.18-0.36c-3.2-0.91-6.53-2-9.82-2.59c3.13,1.14,6.55,1.92,9.73,2.9
	c0.85,0.25,1.7,0.51,2.55,0.76c-1.15-0.13-2.37-0.27-3.58-0.41c-2.2-0.43-4.38-0.94-6.52-1.56l-1.29-0.41
	c-1.26-0.48-2.6-0.81-3.75-1.54c1.38,1.18,3.25,1.72,4.95,2.26c1.04,0.3,2.1,0.58,3.15,0.83c-0.6-0.08-1.17-0.16-1.69-0.24
	c-3.1-0.56-5.97-1.97-8.69-3.52c1.89,1.53,4.08,2.58,6.4,3.27c-0.93-0.14-1.85-0.26-2.77-0.3c2.1,0.65,4.53,0.89,6.71,1.24
	c1.77,0.23,3.53,0.56,5.31,0.64c1.41,0.25,2.83,0.48,4.24,0.7c-0.51-0.06-1.01-0.11-1.47-0.15c-3.84-0.36-7.7-0.42-11.55-0.28
	c-1.93,0.06-3.85,0.21-5.75,0.58c5.75-0.26,11.53-0.57,17.27,0.02c0.72,0.06,2.15,0.23,2.86,0.33c0.41,0.02,0.82,0.07,1.22,0.11
	c0.01,0,0.01,0.01,0.02,0.01c-2.23-0.21-4.49-0.04-6.72,0.02c-2.71,0.15-5.58,0.17-8.26,0.67c2.72,0.07,5.56-0.28,8.28-0.35
	c2.21-0.13,4.44-0.08,6.65-0.12c-0.19,0.04-0.38,0.08-0.54,0.12c-4.65-0.04-9.32,0.43-13.92,1.01c-0.03,0-0.06,0-0.09,0l-2.75,0.01
	L2.4,23.68c1.03,0.1,2.07,0.15,3.12,0.18c-1.47,0.2-3.16,0.48-4.39,0.79l2.86-0.25l2.84-0.38c0.35-0.05,0.71-0.09,1.06-0.14
	c1.71-0.01,3.42-0.07,5.09-0.1c-0.49,0.05-0.84,0.08-0.84,0.08c-1.19,0.09-2.83,0.29-3.98,0.53c2.29,0.07,5.7-0.41,8.01-0.61
	c0.43-0.04,0.86-0.09,1.29-0.14c-2.19,0.56-4.4,1.09-6.56,1.41c-3.31,0.5-7.16,0.93-10.42,1.66c2.79-0.17,6.2-0.74,8.98-1.13
	c1.28-0.15,2.55-0.37,3.82-0.64c-1.66,0.4-3.33,0.77-4.94,1.27c2.65-0.23,5.33-1.03,7.88-1.73c0.27-0.09,0.54-0.17,0.82-0.25
	c-0.25,0.1-0.5,0.2-0.75,0.29c-0.12,0.05-0.24,0.11-0.36,0.16c-0.53,0.14-1.07,0.28-1.61,0.41c-0.97,0.21-2.33,0.58-3.24,0.92
	c0.56-0.06,1.12-0.14,1.68-0.21c0.49-0.12,0.99-0.24,1.49-0.36c-1.28,0.59-2.54,1.23-3.72,2c-1.95,0.59-3.92,1.14-5.86,1.75
	c1.68-0.24,3.33-0.64,4.96-1.12c-0.08,0.06-0.16,0.11-0.23,0.17c0.17-0.08,0.34-0.17,0.51-0.25c1.58-0.47,3.14-1.01,4.69-1.53
	c2.65-0.96,5.31-1.91,7.84-3.15c-0.83,0.53-1.65,1.06-2.53,1.51c-1.4,0.8-2.93,1.36-4.27,2.26c0.4-0.1,0.78-0.23,1.17-0.35
	l1.09-0.52c0.59-0.29,1.17-0.59,1.75-0.89c-0.68,0.42-1.35,0.85-1.95,1.39c0.32-0.11,0.63-0.24,0.94-0.37l0.84-0.53
	c0.58-0.37,1.15-0.74,1.71-1.13c-0.8,0.72-1.67,1.37-2.52,2.06l-2.82,2.24c-0.9,0.68-1.94,1.56-2.72,2.37
	c0.96-0.58,2.05-1.4,2.92-2.12L18.87,27c1.43-1.12,2.91-2.3,4.17-3.65c0.12-0.09,0.24-0.19,0.35-0.29c0.01,0,0.03-0.01,0.04-0.01
	c-1.67,1.44-2.94,3.27-4.28,5c-0.7,0.93-1.37,1.88-2.04,2.84l-0.99,1.44c-0.28,0.51-0.57,1.02-0.83,1.55
	c1.48-1.76,2.72-3.82,4.12-5.64c0.99-1.37,2.08-2.65,3.14-3.95c-0.69,0.95-1.35,1.93-2.07,2.83c-1.17,1.6-2.52,3.06-3.47,4.65
	c0.36-0.33,0.7-0.68,1.04-1.02l0.91-1.14c1.2-1.52,2.38-3.06,3.51-4.64c0.2-0.27,0.4-0.55,0.58-0.84c-0.43,1.18-0.78,2.38-1.07,3.6
	l-0.21,0.95c-0.02,0.33-0.04,0.65-0.03,0.98c0.5-1.19,0.65-2.48,1.05-3.71c0.15-0.57,0.36-1.12,0.56-1.67
	c-0.25,0.86-0.46,1.72-0.64,2.59l-0.16,0.79c0,0.27,0,0.54,0.02,0.82c0.45-0.98,0.51-2.07,0.81-3.09c0.13-0.58,0.31-1.15,0.48-1.71
	c0.07,7.54,0.14,20.38,0.01,35.24c-0.24,0.23-0.5,0.66-0.65,1.48c-0.25,1.41-0.5,4.6-0.49,7.97l-0.01,0.47
	c-0.05,2.18-0.15,6.24,1.35,6.46c0.08,0.01,0.15,0.02,0.22,0.02c0.57,0,0.89-0.4,1.26-1.58c0.38-1.2,0.48-5.3,0.25-10.2
	c-0.14-3-0.57-4.15-0.93-4.59c0.03-14.39-0.17-26.95-0.34-34.64c0.53,2.11,1.58,5.11,3.51,5.91c-1.53-1.44-2.47-3.34-3.04-5.35
	c0.26,0.59,0.54,1.17,0.84,1.74c0.26,0.51,0.56,1.02,1.04,1.35c-0.68-1.42-1.44-2.81-2.03-4.28c0.21,0.36,0.46,0.7,0.68,1
	c1.05,1.46,2.28,2.78,3.62,3.97c0.67,0.61,1.39,1.15,2.21,1.53c-1.29-1.23-2.72-2.29-3.89-3.63c-0.52-0.56-1.02-1.17-1.48-1.79
	c1.11,1.18,2.38,2.23,3.62,3.27c1.97,1.69,3.65,3.83,5.5,5.65c-1.82-2.75-4.27-5.07-6.8-7.17c-1.25-1.07-2.37-2.28-3.5-3.47
	c2.64,2.13,5.31,4.23,7.83,6.5c0.82,0.76,2.04,1.78,2.93,2.42c-1.64-1.88-3.72-3.51-5.6-5.14c-0.98-0.79-1.93-1.63-2.92-2.41
	c0.8,0.55,1.6,1.1,2.36,1.7c1.84,1.33,3.59,2.95,5.5,4.19c-1.5-1.63-3.55-3.07-5.31-4.44c-1.11-0.8-2.21-1.66-3.38-2.4
	c0.79,0.47,1.57,0.95,2.33,1.47c1.62,1.03,3.09,2.29,4.77,3.21c-0.34-0.35-0.7-0.67-1.06-0.99l-1.17-0.85
	c-0.78-0.56-1.57-1.11-2.37-1.64c-0.31-0.2-0.63-0.4-0.94-0.61c1.77,1.03,3.53,2.09,5.23,3.24c2.69,1.74,5.3,3.81,8,5.53
	c-2.4-2.2-5.15-3.96-7.83-5.79c-1.15-0.74-2.29-1.49-3.46-2.21c0.97,0.5,1.92,1.05,2.85,1.62l1.23,0.61
	c-1.2-1.13-2.7-1.88-4.16-2.63c0.88,0.33,1.71,0.63,2.21,0.82c1.28,0.48,2.57,0.96,3.87,1.4c1.24,0.42,2.51,0.85,3.82,0.9
	c1.48,0.39,2.98,0.66,4.51,0.77c-1.78-0.42-3.56-0.84-5.32-1.35c-2.17-1.42-4.62-2.31-7.04-3.2c-0.63-0.21-1.27-0.41-1.91-0.61
	c1.12,0.18,2.25,0.34,3.37,0.52c2.87,0.38,5.88,0.92,8.79,0.95l-2.18-0.41c-2.12-0.25-4.46-0.55-6.57-0.86
	c-1.4-0.19-2.79-0.43-4.18-0.68c1.15,0.07,2.29,0.11,3.41,0.17c2.75,0.06,5.53,0.21,8.25-0.29c-2.75-0.06-5.49,0.1-8.24-0.04
	c-1.89-0.04-3.82-0.23-5.73-0.35c0.8-0.02,1.6-0.07,2.39-0.13C34.36,21.74,39.65,20.91,44.49,18.81z M20.57,20.13
	c0.17,0.15,0.35,0.29,0.53,0.43c-0.11-0.06-0.21-0.12-0.32-0.18c-0.17-0.16-0.35-0.32-0.52-0.48L20.57,20.13z M20.95,20.93
	c0.08,0.06,0.16,0.13,0.24,0.19c-0.02,0-0.04-0.01-0.06-0.01c-0.19-0.12-0.39-0.23-0.58-0.35C20.68,20.82,20.81,20.87,20.95,20.93z
	 M21,21.72c0.13,0.01,0.26,0.02,0.39,0.03c0.03,0.01,0.07,0.03,0.1,0.04C21.32,21.77,21.16,21.74,21,21.72z M22.27,21.58
	c0.01,0,0.02,0,0.03,0.01c0.01,0,0.01,0.01,0.02,0.01C22.3,21.6,22.29,21.59,22.27,21.58z M11.01,23.5
	c3.17-0.35,6.36-0.59,9.53-0.65c-0.28,0.07-0.56,0.14-0.85,0.22c-0.51,0.06-1.01,0.12-1.52,0.17C15.78,23.36,13.4,23.45,11.01,23.5z
	 M14.48,26.16c-0.92,0.33-1.86,0.64-2.79,0.93c1.46-0.74,2.93-1.47,4.43-2.12c0.53-0.14,1.05-0.28,1.54-0.43
	c1.26-0.39,2.56-0.75,3.81-1.21c0.15-0.02,0.3-0.04,0.46-0.06C19.44,24.26,17,25.31,14.48,26.16z M23.33,21.5
	c0.01,0.02,0.03,0.04,0.04,0.05c-0.01-0.01-0.03-0.02-0.04-0.04C23.33,21.51,23.33,21.5,23.33,21.5z M22.66,22.99
	c-0.02,0-0.05,0-0.07,0c0.05-0.01,0.1-0.02,0.14-0.03C22.71,22.97,22.68,22.98,22.66,22.99z M22.52,21.96
	c0.11,0.02,0.21,0.04,0.32,0.06l0.05,0.06c-0.1-0.02-0.17-0.04-0.17-0.04c-0.02,0-0.03-0.01-0.05-0.01
	C22.62,22.01,22.57,21.98,22.52,21.96z M22.76,22.55c-0.03,0-0.06,0-0.1,0c0.12-0.04,0.23-0.07,0.35-0.11
	c0.01,0.01,0.03,0.01,0.04,0.02C22.96,22.49,22.86,22.52,22.76,22.55z M22.89,21.51c-0.06-0.05-0.06-0.05-0.12-0.1l-0.08-0.1
	c0.13,0.1,0.27,0.2,0.41,0.3C23.03,21.58,22.96,21.55,22.89,21.51z M23.19,22.42C23.19,22.41,23.19,22.41,23.19,22.42
	c0,0,0.01-0.01,0.02-0.01C23.2,22.41,23.2,22.41,23.19,22.42z M23.25,22.56C23.26,22.56,23.26,22.56,23.25,22.56
	C23.26,22.56,23.26,22.56,23.25,22.56C23.26,22.56,23.26,22.56,23.25,22.56z M23.34,22.19c-0.02-0.03-0.03-0.05-0.05-0.08
	c0.07,0.01,0.14,0.03,0.22,0.04c0,0.02-0.01,0.03-0.01,0.05c-0.02,0-0.04,0.01-0.07,0.01C23.4,22.2,23.37,22.19,23.34,22.19z
	 M23.43,22.31c0.01,0,0.02-0.01,0.03-0.01c0.01,0,0.03,0,0.04,0c0,0,0,0.01,0,0.01c0,0,0,0,0,0C23.47,22.31,23.45,22.31,23.43,22.31
	z M23.5,22.46c-0.01-0.01-0.01-0.02-0.02-0.03c0.01,0,0.01-0.01,0.02-0.01c0,0.02,0.01,0.04,0.02,0.05
	C23.51,22.47,23.51,22.47,23.5,22.46z M23.6,22.9c-0.01,0.01-0.03,0.02-0.04,0.03c-0.01,0-0.03,0-0.04,0
	c0.04-0.04,0.08-0.09,0.12-0.13c0,0,0,0,0.01,0C23.64,22.84,23.62,22.87,23.6,22.9z M23.53,22.51
	C23.53,22.51,23.53,22.51,23.53,22.51c0.01,0.01,0.01,0.01,0.01,0.02C23.54,22.52,23.53,22.52,23.53,22.51z M23.68,21.84
	c-0.1-0.09-0.19-0.18-0.29-0.27c-0.02-0.04-0.04-0.08-0.06-0.12c0.01-0.16,0.02-0.33,0.02-0.49l0.29,0.57
	c0.04,0.06,0.08,0.11,0.12,0.17c0.01,0.02,0.02,0.05,0.02,0.07C23.75,21.79,23.72,21.81,23.68,21.84z M24.47,21.7
	c0.01-0.01,0.03-0.03,0.04-0.04c0,0.04,0,0.09,0,0.13c0,0.01-0.01,0.01-0.01,0.02c-0.01-0.01-0.02-0.01-0.03-0.02
	C24.47,21.76,24.47,21.73,24.47,21.7z M24.58,21.59c0.04-0.05,0.09-0.1,0.14-0.15c-0.06,0.09-0.11,0.19-0.17,0.28
	C24.56,21.67,24.57,21.63,24.58,21.59z M28.37,17.16c0.22-0.27,0.46-0.53,0.69-0.8c-1.02,1.52-2.16,3-3.4,4.33
	c-0.28,0.38-0.6,0.73-0.91,1.08c-0.04,0.01-0.08,0.03-0.12,0.04C25.92,20.32,27.07,18.63,28.37,17.16z M24.8,22.33
	c0.03,0.02,0.05,0.03,0.08,0.05c-0.03-0.01-0.06-0.03-0.09-0.04C24.79,22.33,24.79,22.33,24.8,22.33z M24.65,22.6
	c0,0,0.01-0.01,0.01-0.01c0.13,0.06,0.25,0.12,0.38,0.18c0.18,0.11,0.37,0.22,0.55,0.33C25.29,22.93,24.97,22.76,24.65,22.6z
	 M31.61,24.08c2.44,0.81,4.73,1.99,7.13,2.9c-1.54-0.44-3.05-0.95-4.52-1.58c-1.22-0.52-2.43-1.11-3.66-1.67
	C30.91,23.84,31.26,23.96,31.61,24.08z M27.65,22.9c2.19,0.81,4.3,1.84,6.44,2.79c0.44,0.18,0.89,0.35,1.34,0.53
	c-3.11-1.07-6.23-2.32-9.22-3.4c-0.21-0.06-0.41-0.12-0.62-0.18c-0.26-0.11-0.51-0.22-0.77-0.32c0.08-0.02,0.15-0.04,0.23-0.07
	c0.18,0.03,0.37,0.06,0.56,0.09C26.28,22.54,26.97,22.72,27.65,22.9z M27.44,21.21c2.03-0.6,4.03-1.34,6.03-2.03
	c1.02-0.39,2.05-0.77,3.07-1.17c-1.03,0.64-2.07,1.26-3.08,1.81c-2.16,0.65-4.35,1.19-6.57,1.61
	C27.07,21.36,27.26,21.29,27.44,21.21z M31.7,20.66c-1.39,0.53-2.86,0.81-4.34,0.99C28.82,21.4,30.26,21.06,31.7,20.66z"/>
</svg>
