<?xml version="1.0" encoding="utf-8"?>
<!-- Generator: Adobe Illustrator 26.3.1, SVG Export Plug-In . SVG Version: 6.00 Build 0)  -->
<svg version="1.1" id="Layer_1" xmlns="http://www.w3.org/2000/svg" xmlns:xlink="http://www.w3.org/1999/xlink" x="0px" y="0px"
	 viewBox="0 0 29.25 37.64" enable-background="new 0 0 29.25 37.64" xml:space="preserve">
<path fill="#FFFFFF" d="M29.03,8.68c-1.09,0.37-2.59,0.96-3.65,1.37c-0.48,0.17-1.05,0.36-1.63,0.57c0.04-0.02,0.07-0.03,0.11-0.05
	c1.38-0.81,2.62-1.86,3.66-3.1c0.59-0.24,1.18-0.49,1.75-0.75c-0.46,0.13-0.99,0.31-1.54,0.5c0.19-0.23,0.37-0.47,0.54-0.72
	c-0.25,0.27-0.5,0.53-0.75,0.79c-0.44,0.16-0.89,0.32-1.31,0.48c0.43-0.39,0.83-0.81,1.2-1.28c-0.57,0.52-1.15,1.02-1.76,1.49
	c-0.08,0.03-0.17,0.07-0.25,0.1c-1.27,0.51-2.54,1.02-3.78,1.62c-1.22,0.63-2.4,1.33-3.59,2.02c-0.02,0.01-0.05,0.03-0.07,0.04
	c-0.12,0.05-0.24,0.09-0.37,0.13c0.33-0.2,0.66-0.42,0.99-0.64c0.98-0.58,1.93-1.2,2.87-1.83c1.12-0.79,2.24-1.59,3.32-2.44
	c0.45-0.25,0.88-0.5,1.24-0.72c-0.24,0.1-0.48,0.2-0.72,0.31c0.92-0.74,1.81-1.52,2.65-2.37c-1.16,0.9-2.31,1.84-3.47,2.74
	c-0.33,0.16-0.67,0.32-1,0.49c0.93-0.72,1.82-1.47,2.66-2.29c-1.27,0.92-2.49,1.9-3.74,2.85c-0.04,0.02-0.08,0.04-0.13,0.07
	c0.84-0.93,1.58-1.95,2.21-3.04c-0.89,1.15-1.8,2.3-2.81,3.36c-0.61,0.32-1.21,0.65-1.81,0.97c-0.16,0.09-0.32,0.19-0.48,0.28
	l0.26-0.19l0.86-0.61c0.27-0.23,0.54-0.46,0.8-0.7c-0.31,0.17-0.61,0.35-0.92,0.53L19.51,9.3l-1.73,1.23
	c-0.13,0.09-0.25,0.18-0.38,0.27c-0.06,0.04-0.12,0.07-0.18,0.11c0.63-0.92,1.12-1.94,1.54-2.96c0.31-0.75,0.54-1.53,0.69-2.33
	c-0.32,0.74-0.59,1.49-0.88,2.25c-0.06,0.14-0.12,0.28-0.18,0.42c0.29-0.65,0.51-1.31,0.63-2.01c-0.46,1.03-0.86,2.09-1.39,3.08
	C17.78,9.04,17.89,8.72,18,8.4c0.66-1.88,1.41-3.84,1.85-5.79c-0.97,2.31-1.61,4.82-2.59,7.13c-0.22,0.51-0.51,0.99-0.83,1.44
	c-0.13,0.15-0.25,0.3-0.39,0.44c-0.19,0.11-0.38,0.23-0.56,0.36c0.21-0.4,0.36-0.85,0.5-1.28c0.22-0.31,0.43-0.62,0.62-0.95
	l0.37-0.59c0.1-0.22,0.2-0.43,0.28-0.65c-0.16,0.18-0.31,0.36-0.46,0.54c-0.14,0.23-0.39,0.63-0.58,0.94
	c0.33-1.02,0.87-2.36,1.06-3.36c-0.15,0.28-0.28,0.56-0.41,0.84l-0.3,0.87c0,0-0.13,0.4-0.28,0.81c0.34-1.26,0.88-2.44,1.36-3.66
	c-0.84,1.17-1.28,2.6-1.65,3.98c-0.14,0.52-0.28,1.03-0.48,1.53c-0.08,0.11-0.16,0.22-0.25,0.33l0.04-0.07
	c0.17-0.34,0.3-0.69,0.43-1.04l0.18-0.53c0.03-0.19,0.05-0.37,0.06-0.57c-0.38,0.64-0.5,1.39-0.85,2.05
	c-0.19,0.39-0.47,0.86-0.67,1.33c0.13-0.5,0.22-1.01,0.39-1.51c0.2-0.71,0.56-1.37,0.7-2.11c-0.12,0.15-0.21,0.31-0.31,0.47
	l-0.21,0.52c-0.09,0.28-0.19,0.56-0.29,0.84c0.09-0.61,0.15-1.23,0.23-1.84l0.07-0.73c-0.01-0.25-0.02-0.49-0.04-0.74
	c-0.13,0.47-0.19,0.96-0.23,1.44c-0.02,0.22-0.04,0.44-0.07,0.65c0.02-0.42,0.02-0.84,0.03-1.25c-0.05-1.68,0.19-3.34,0.15-5.02
	c-0.08,0.41-0.14,0.83-0.2,1.25l-0.08,1.26c-0.05,0.84-0.08,1.68-0.07,2.52c0.01,1.37-0.13,2.73-0.3,4.08
	c-0.02,0.15-0.05,0.3-0.06,0.45c-0.01-0.21-0.02-0.43-0.02-0.64c-0.07-1.13-0.07-2.28-0.16-3.4c-0.07-1.51,0.26-3.01,0.38-4.51
	c-0.48,1.45-0.6,3-0.58,4.52c0.05,0.76,0.09,1.51,0.11,2.27c0,0.49,0.04,0.98,0.12,1.46c-0.47-0.96-0.56-2.04-0.6-3.1L13.39,8.7
	c-0.04-0.22-0.07-0.45-0.12-0.67c-0.04,0.23-0.06,0.46-0.08,0.68l0.03,0.68c0.02,0.63,0.06,1.27,0.19,1.89
	c-0.04-0.07-0.08-0.15-0.12-0.22c-0.18-0.63-0.31-1.28-0.42-1.92c-0.15-0.71-0.31-1.42-0.47-2.13l-0.26-1.06
	c-0.12-0.34-0.24-0.69-0.37-1.03c0.19,1.42,0.64,2.86,0.9,4.26c0.08,0.38,0.15,0.78,0.24,1.18c-0.48-0.87-0.82-1.8-1.3-2.66
	c0.05,0.25,0.09,0.53,0.18,0.77c0.36,0.91,0.84,1.76,1.3,2.63c0.04,0.16,0.09,0.32,0.14,0.47c-0.06-0.08-0.11-0.17-0.17-0.25
	c-1.64-3.17-2.67-6.63-3.36-10.14c0.03,1.1,0.25,2.17,0.53,3.23c0.46,1.78,1.07,3.52,1.8,5.2c-0.07-0.13-0.14-0.25-0.2-0.38
	c-0.72-1.38-1.15-2.88-1.61-4.37c0.04,0.79,0.24,1.56,0.51,2.3c0.51,1.48,1.24,2.87,2.1,4.17c-0.24-0.21-0.49-0.41-0.74-0.59
	c-0.89-1.05-1.76-2.1-2.57-3.22C8.17,5.16,7.32,2.53,6.32,0c0.53,2.17,1.34,4.26,2.31,6.27C8.52,6.1,8.41,5.94,8.3,5.77
	c-0.14-0.3-0.27-0.61-0.41-0.91c0.04,0.17,0.09,0.34,0.14,0.51c-0.32-0.46-0.63-0.93-0.95-1.4C7.01,3.69,6.94,3.4,6.9,3.11
	c0,0.22,0.02,0.45,0.04,0.67C6.93,3.77,6.93,3.76,6.92,3.75C6.8,3.06,6.71,2.37,6.63,1.69C6.61,2.27,6.64,2.84,6.7,3.42
	C6.55,3.2,6.4,2.97,6.26,2.75C6.26,2.27,6.28,1.78,6.31,1.3C6.23,1.71,6.17,2.13,6.13,2.55C6.05,2.44,5.97,2.32,5.89,2.2
	C5.56,1.62,5.1,1.12,4.65,0.63C5.03,1.17,5.45,1.7,5.72,2.3c0.12,0.2,0.25,0.4,0.37,0.59c-0.07,0.84-0.08,1.69,0,2.53
	c0.04,0.42,0.09,0.85,0.17,1.27C5.49,5.96,4.81,5.15,4.13,4.33c-0.46-0.46-0.94-0.9-1.45-1.31c0.91,0.93,1.7,1.96,2.56,2.93
	c0.15,0.17,0.32,0.34,0.48,0.5c-0.64-0.54-1.3-1.11-1.95-1.64c-0.15-0.16-0.3-0.32-0.45-0.48c0.06,0.09,0.13,0.18,0.2,0.27
	C2.81,4.02,2.12,3.47,1.51,3.03c0.71,0.7,1.62,1.5,2.56,2.3C4.83,6.3,5.65,7.21,6.52,8.07c-1.37-1.22-2.74-2.43-4.29-3.4
	c1.34,1.2,2.93,2.38,4.23,3.62c0.27,0.24,0.54,0.48,0.81,0.72C7.4,9.23,7.54,9.46,7.69,9.68C7.57,9.59,7.45,9.51,7.32,9.42
	c-2.17-1.5-4.62-2.9-7.3-3.05c2.61,0.5,5.03,1.67,7.19,3.22c0.23,0.15,0.45,0.31,0.67,0.47c-0.3,0.11-0.6,0.26-0.91,0.44
	C5.42,9.39,3.87,8.15,2.23,7.2C3,7.86,4.16,8.72,4.99,9.29c0.54,0.38,1.07,0.79,1.61,1.19c-0.97-0.3-1.87-0.75-2.76-1.23
	c-0.66-0.66-1.3-1.34-1.98-1.96c0.44,0.56,0.9,1.11,1.38,1.63C2.66,8.6,2.09,8.28,1.52,7.99c0.7,0.52,1.43,1.01,2.2,1.44
	c0.25,0.26,0.51,0.5,0.78,0.74C3.51,9.54,2.51,8.93,1.53,8.41c0.88,0.68,1.89,1.33,2.89,1.96C3.13,9.94,1.81,9.6,0.44,9.5
	c1.16,0.29,2.31,0.57,3.46,0.91c0.42,0.13,0.84,0.28,1.26,0.43c0.09,0.06,0.19,0.12,0.28,0.18c-0.6-0.05-1.2-0.07-1.8-0.04
	c-0.14-0.03-0.28-0.06-0.41-0.08c0.07,0.03,0.15,0.06,0.23,0.09C3.17,11,2.88,11.03,2.6,11.07c0.4,0.02,0.81,0.04,1.21,0.05
	c0.68,0.25,1.48,0.51,2.1,0.68c0.36,0.11,0.72,0.22,1.07,0.33c0.32,0.28,0.64,0.57,0.97,0.84c-0.26-0.04-0.52-0.09-0.79-0.14
	C4.8,12.48,2.39,12.22,0,12.49c2.38,0.09,4.78,0.14,7.13,0.55c0.38,0.07,0.76,0.13,1.15,0.19c0.06,0.04,0.12,0.08,0.18,0.12
	c-0.18,0-0.35-0.01-0.53-0.01c-0.59-0.02-3.46-0.16-3.99-0.13c-0.81,0.05-1.58,0.19-2.38,0.28c1.06,0.07,2.12-0.11,3.18-0.07
	l3.18,0.13c0.29,0.01,0.57,0.01,0.86,0.01c0.12,0.07,0.23,0.13,0.36,0.19c0.01,0,0.02,0.01,0.03,0.01
	c-1.43,0.08-2.86,0.13-4.22,0.22c-0.91,0.03-2.21,0.13-3.09,0.27c1.77,0.08,4.41-0.15,6.2-0.23c0.5-0.04,1.01-0.06,1.52-0.09
	c0.5,0.19,1.03,0.3,1.56,0.33c-2.37,0.49-4.8,0.47-7.2,0.55c1.75,0.27,3.53,0.12,5.28-0.05c1.07-0.16,2.18-0.28,3.22-0.6
	c-0.69,0.31-1.38,0.61-2.1,0.84c-0.64,0.24-1.31,0.44-1.98,0.64c-0.74-0.06-1.53-0.2-2.42-0.4c-0.43-0.07-0.86-0.15-1.28-0.24
	c0.4,0.17,0.82,0.31,1.24,0.44c0.64,0.14,1.3,0.27,1.96,0.35c-0.58,0.18-1.16,0.36-1.72,0.57c0.37-0.05,0.73-0.12,1.09-0.18
	l1.06-0.31c0.04-0.01,0.07-0.02,0.11-0.03c0.91,0.07,1.83,0.02,2.71-0.25c0.77-0.26,1.49-0.68,2.11-1.22
	c-1.13,1.48-1.98,3.65-2.06,5.22c-0.01,0.16-0.01,0.32-0.01,0.48c0.09-0.31,0.14-0.63,0.23-0.93c0.31-1.89,1.19-3.58,2.31-5.1
	c-0.25,0.44-0.47,0.89-0.68,1.35l-0.17,0.38c-0.03,0.14-0.05,0.28-0.07,0.42c0.36-0.42,0.51-0.97,0.77-1.45
	c0.1-0.23,0.23-0.45,0.36-0.66c-0.54,2.8-1.41,7.26-2.36,12.25c-0.14,0.16-0.3,0.41-0.45,0.84c-0.33,0.95-0.87,3.14-1.28,5.47
	l-0.06,0.33c-0.3,1.51-0.86,4.31,0.04,4.62c0.05,0.02,0.09,0.03,0.14,0.04c0.35,0.06,0.6-0.18,0.97-0.96
	c0.38-0.79,0.94-3.62,1.41-7.05c0.24-1.76,0.19-2.63,0.06-3.07c0.9-5.12,1.66-9.65,2.12-12.48c0.16,0.42,0.33,0.83,0.45,1.27
	c0.16,0.67,0.37,1.4,0.56,2.05l0.2,0.68c0.1,0.22,0.19,0.43,0.3,0.65c-0.1-0.92-0.47-1.8-0.7-2.75c-0.12-0.47-0.25-0.97-0.42-1.43
	c0.47,0.98,0.62,2.1,1.13,3.06c-0.01-0.2-0.04-0.4-0.07-0.6l-0.18-0.57c-0.19-0.56-0.35-1.15-0.58-1.71
	c0.51,0.69,0.99,1.4,1.43,2.14c0.23,0.41,0.47,0.8,0.77,1.16c-0.28-0.9-0.85-1.67-1.35-2.45c-0.34-0.48-0.66-0.98-1.04-1.43
	c0.87,0.75,1.96,1.22,3.02,1.63c1.42,0.48,2.89,0.92,4.4,0.9c-2.52-0.54-5.18-1.02-7.27-2.65c-0.21-0.12-0.39-0.26-0.58-0.41
	c0.06,0.03,0.12,0.06,0.19,0.08c0.42,0.36,0.89,0.66,1.39,0.89c0.99,0.48,2.08,0.7,3.16,0.85c0.72,0.14,1.45-0.08,2.04-0.51
	c0.35,0.01,0.7,0.02,1.05,0.01c0.93-0.01,1.88-0.11,2.77-0.43c-1.18,0.17-2.38,0.24-3.57,0.22c0.11-0.1,0.22-0.21,0.32-0.32
	c0.91-0.01,1.82-0.03,2.73,0.01c1.03,0.03,2.5,0.03,3.51-0.03c-1.99-0.2-4.06-0.2-6.08-0.19c0.03-0.04,0.06-0.09,0.09-0.13
	c-0.05,0.04-0.1,0.09-0.15,0.13c-0.3,0-0.59,0-0.88,0c-1.17,0.04-2.33,0-3.49-0.18c-0.16-0.02-0.31-0.05-0.47-0.08
	c0.04,0,0.09-0.01,0.13-0.01c0.19,0.01,0.38,0.01,0.56,0.02c3.66,0.08,7.35-0.52,10.81-1.77c-2.39,0.48-4.73,1.21-7.16,1.43
	c-1.07,0.1-2.15,0.15-3.23,0.14c0.21-0.05,0.41-0.11,0.62-0.18c3.48-0.14,7-0.59,10.05-2.4c-0.31,0.13-0.62,0.26-0.93,0.38
	c-1.3,0.18-2.68,0.47-4.01,0.65c1.3-0.4,2.6-0.84,3.82-1.36c-1.65,0.4-3.28,0.97-4.92,1.48c-0.04,0-0.08,0.01-0.12,0.01
	c0.33-0.14,0.66-0.3,0.98-0.48c0.72-0.37,1.41-0.79,2.07-1.25c0.01,0,0.03-0.01,0.04-0.01c-0.01,0-0.02,0-0.02,0.01
	c0.24-0.17,0.48-0.35,0.72-0.53c-0.38,0.2-0.75,0.41-1.12,0.62c-0.46,0.1-0.91,0.22-1.37,0.34c0.48-0.22,0.95-0.46,1.41-0.72
	c-0.98,0.34-1.97,0.74-2.96,1.14c-0.68,0.19-1.36,0.37-2.04,0.54c0.42-0.15,0.83-0.29,1.25-0.44C24.17,10.66,26.75,9.89,29.03,8.68z
	 M21.7,9.9c1.05-0.51,2.17-0.98,3.3-1.43c-0.67,0.48-1.36,0.91-2.1,1.27c-1.24,0.57-2.5,1.1-3.77,1.59
	C19.98,10.83,20.82,10.33,21.7,9.9z M18.6,11.01c-0.41,0.24-0.82,0.47-1.23,0.69c0.83-0.49,1.63-1.03,2.43-1.57
	C19.41,10.43,19.01,10.73,18.6,11.01z M22.47,8.21c0.17-0.09,0.34-0.18,0.51-0.26c0.19-0.1,0.41-0.2,0.63-0.32
	c-0.75,0.57-1.5,1.12-2.28,1.65c-0.34,0.24-0.68,0.46-1.03,0.69c0.34-0.29,0.67-0.59,1-0.89C21.69,8.79,22.08,8.5,22.47,8.21z
	 M16.62,11.27c0.25-0.31,0.49-0.64,0.71-0.98c0.37-0.6,0.72-1.23,1.02-1.88c-0.42,0.95-0.91,1.9-1.54,2.74
	C16.76,11.19,16.69,11.23,16.62,11.27C16.62,11.27,16.62,11.27,16.62,11.27z M16.28,12.09c0.19-0.2,0.36-0.41,0.53-0.62
	c0.23-0.16,0.45-0.32,0.68-0.49c1.21-0.73,2.44-1.43,3.69-2.09c-0.03,0.03-0.07,0.07-0.1,0.1c-0.23,0.16-0.45,0.32-0.68,0.48
	C19.07,10.42,17.68,11.28,16.28,12.09C16.27,12.1,16.28,12.1,16.28,12.09z M14.55,12.77c-0.01,0.02-0.03,0.05-0.04,0.07
	c-0.01,0.01-0.02,0.02-0.03,0.02C14.5,12.83,14.52,12.8,14.55,12.77z M14.27,12.8c0,0.02,0,0.03,0,0.05c-0.01,0-0.01,0-0.02,0
	C14.25,12.83,14.26,12.81,14.27,12.8z M14,12.98c0,0-0.01,0.01-0.01,0.02c-0.01-0.01-0.01-0.02-0.02-0.02
	c-0.02-0.04-0.05-0.08-0.07-0.11C13.93,12.9,13.97,12.94,14,12.98z M13.94,13.07C13.94,13.08,13.94,13.08,13.94,13.07
	c-0.01,0.01-0.01,0-0.02,0c-0.03-0.02-0.06-0.05-0.09-0.07c-0.04-0.04-0.09-0.08-0.13-0.12C13.79,12.95,13.87,13.01,13.94,13.07z
	 M13.2,12c0.06,0.09,0.12,0.18,0.18,0.27c-0.19-0.22-0.37-0.43-0.56-0.65C12.96,11.74,13.08,11.87,13.2,12z M13.42,12.5
	c-0.13-0.12-0.26-0.23-0.39-0.34c-0.01-0.01-0.02-0.02-0.03-0.03c-0.05-0.05-0.1-0.11-0.14-0.16c-0.26-0.3-0.53-0.61-0.78-0.91
	C12.5,11.55,12.95,12.04,13.42,12.5z M13.36,12.91c-0.07-0.03-0.15-0.07-0.22-0.1c-0.05-0.04-0.1-0.07-0.15-0.11
	c0.06,0.04,0.13,0.08,0.19,0.12c0.04,0.02,0.08,0.04,0.12,0.06C13.32,12.89,13.34,12.9,13.36,12.91z M8.45,11.76
	c0.06,0.02,0.12,0.04,0.19,0.06c0.04,0.02,0.08,0.04,0.11,0.06c-0.25-0.07-0.49-0.15-0.73-0.23C8.16,11.68,8.3,11.72,8.45,11.76z
	 M8.1,11.28c0.57,0.24,1.14,0.49,1.72,0.72c-0.38-0.13-0.76-0.26-1.14-0.38C8.49,11.51,8.3,11.4,8.1,11.28z M9.73,12.36
	c0.65,0.29,1.32,0.54,2.01,0.69c-0.96-0.13-1.91-0.36-2.79-0.77c-0.69-0.3-1.41-0.54-2.11-0.83c0.15,0.05,0.29,0.11,0.44,0.16
	C8.08,11.88,8.9,12.14,9.73,12.36z M8.55,10.53c0.64,0.45,1.29,0.9,1.95,1.33c0.22,0.13,0.43,0.27,0.66,0.41
	c-0.07-0.02-0.15-0.05-0.22-0.07c-0.33-0.11-0.66-0.24-0.99-0.37C9.41,11.47,8.96,11.02,8.55,10.53z M8.36,10.14
	c0.06-0.01,0.12-0.02,0.17-0.04c1.2,1,2.46,1.92,3.87,2.55c-0.06-0.02-0.11-0.03-0.17-0.05C10.86,11.93,9.61,11.03,8.36,10.14z
	 M8.78,8.21C9.2,8.8,9.66,9.36,10.15,9.89c-0.1-0.02-0.2-0.04-0.29-0.05C9.82,9.81,9.79,9.78,9.76,9.76
	C9.4,9.27,9.08,8.75,8.78,8.21z M9.2,9.52C9.13,9.46,9.07,9.4,9,9.33c0.06,0.06,0.13,0.12,0.19,0.18C9.2,9.51,9.2,9.52,9.2,9.52z
	 M10.03,10.56c0.09,0.1,0.18,0.2,0.28,0.3c-0.42-0.26-0.83-0.54-1.23-0.84c0.12-0.01,0.23-0.02,0.35-0.02
	C9.63,10.19,9.83,10.38,10.03,10.56z M10.86,11.42c0.03,0.03,0.06,0.06,0.09,0.09c0.16,0.15,0.33,0.29,0.51,0.43
	c-0.72-0.41-1.41-0.86-2.05-1.4c-0.08-0.06-0.15-0.12-0.23-0.19C9.72,10.75,10.28,11.09,10.86,11.42z M10.11,10.07
	c0.09,0.02,0.19,0.05,0.28,0.07c0.47,0.49,0.96,0.94,1.45,1.35c0.22,0.21,0.44,0.41,0.66,0.61c-0.02-0.01-0.04-0.02-0.05-0.03
	C11.65,11.44,10.87,10.76,10.11,10.07z M12.21,11.54c-0.07-0.05-0.14-0.11-0.2-0.16c-0.33-0.31-0.64-0.64-0.95-0.97
	c0.11,0.05,0.22,0.11,0.33,0.16C11.66,10.89,11.94,11.22,12.21,11.54z M9.07,7.28C9.16,7.4,9.24,7.51,9.32,7.62
	c0.51,0.91,1.11,1.76,1.76,2.57c-0.1-0.05-0.21-0.09-0.32-0.13c-0.14-0.17-0.28-0.33-0.41-0.5c-0.62-0.81-1.1-1.72-1.54-2.65
	C8.9,7.04,8.99,7.16,9.07,7.28z M8.25,6.06c0.44,1.23,1.08,2.38,1.82,3.44C8.79,8.06,7.78,6.39,7.23,4.54
	C7.57,5.05,7.91,5.56,8.25,6.06z M8.27,7.44c0.11,0.33,0.24,0.65,0.39,0.95c-0.21-0.32-0.41-0.65-0.6-0.97
	c-0.42-0.8-0.71-1.66-0.91-2.54C7.38,5.75,7.78,6.62,8.27,7.44z M6.25,3.36c0-0.07,0-0.15,0-0.22c0.16,0.24,0.33,0.47,0.49,0.71
	C6.93,5.13,7.3,6.38,7.89,7.52C8.14,7.94,8.4,8.36,8.67,8.76C8.06,8.21,7.43,7.67,6.79,7.16C6.7,7.09,6.61,7.01,6.53,6.93
	C6.24,5.78,6.22,4.55,6.25,3.36z M4.88,6.01C5.4,6.46,5.92,6.89,6.42,7.3C6.48,7.5,6.55,7.7,6.63,7.89
	C6.03,7.28,5.45,6.65,4.88,6.01z M7.12,8.37c-0.1-0.17-0.19-0.33-0.29-0.5c-0.04-0.1-0.08-0.2-0.11-0.31c0.35,0.3,0.69,0.58,1,0.85
	c0.5,0.46,0.99,0.93,1.49,1.39c-0.13,0-0.26,0.01-0.39,0.03C8.64,9.69,8.46,9.55,8.29,9.4C7.88,9.08,7.5,8.73,7.12,8.37z M7.79,9.48
	c0.17,0.15,0.35,0.3,0.52,0.45C8.26,9.94,8.19,9.96,8.13,9.98C8.02,9.81,7.9,9.65,7.79,9.48z M8.06,10.22
	c0.35,0.48,0.72,0.92,1.16,1.31c-0.65-0.27-1.3-0.56-1.96-0.82c-0.07-0.05-0.15-0.11-0.22-0.16C7.38,10.43,7.72,10.31,8.06,10.22z
	 M4.38,9.78c0.54,0.28,1.1,0.52,1.67,0.74c0.38,0.1,0.73,0.22,1.08,0.36c0.22,0.15,0.44,0.31,0.66,0.45
	c0.06,0.04,0.12,0.07,0.18,0.11c-0.43-0.1-0.86-0.19-1.29-0.26c-0.38-0.14-0.75-0.28-1.13-0.42C5.14,10.46,4.75,10.13,4.38,9.78z
	 M5.97,11.61c-0.46-0.15-1.03-0.31-1.58-0.45c0.48,0.03,0.97,0.07,1.45,0.12c0.11,0.07,0.22,0.15,0.33,0.22
	c0.14,0.1,0.27,0.2,0.41,0.3C6.37,11.73,6.17,11.67,5.97,11.61z M6.65,11.6c0.73,0.32,1.49,0.56,2.21,0.88
	c0.18,0.08,0.36,0.15,0.54,0.22c-0.02-0.01-0.04-0.01-0.06-0.01c-0.74-0.25-1.5-0.49-2.26-0.73C6.94,11.83,6.8,11.71,6.65,11.6z
	 M8.36,13.03c-0.31-0.23-0.61-0.49-0.9-0.75c0.61,0.19,1.22,0.39,1.82,0.59c0.83,0.18,1.67,0.33,2.51,0.41
	C10.65,13.3,9.5,13.2,8.36,13.03z M8.83,13.35c-0.03-0.02-0.06-0.04-0.09-0.06c0.17,0.02,0.33,0.05,0.5,0.07
	C9.11,13.36,8.97,13.36,8.83,13.35z M9.22,13.56c0.63,0,1.26,0,1.89-0.01c0.32-0.01,0.63-0.02,0.95-0.04
	c-0.8,0.1-1.62,0.17-2.44,0.22C9.48,13.68,9.35,13.63,9.22,13.56z M8.95,15.67c0.48-0.15,0.97-0.31,1.44-0.48
	c1.14-0.43,2.34-0.83,3.36-1.52C12.14,15.19,10.7,15.71,8.95,15.67z M12.9,13.8c-0.13,0.04-0.27,0.08-0.4,0.11
	c-0.77,0.19-1.59,0.19-2.36-0.01c1.23-0.07,2.46-0.18,3.61-0.59c0,0,0,0,0,0c0.03,0.02,0.06,0.03,0.09,0.04
	C13.55,13.54,13.23,13.69,12.9,13.8z M13.84,13.3c0.02,0,0.04-0.01,0.07-0.01c0,0.01,0,0.01,0,0.02c-0.01,0.01-0.02,0.01-0.03,0.02
	C13.87,13.32,13.86,13.31,13.84,13.3z M14.57,13.52C14.57,13.52,14.57,13.52,14.57,13.52C14.57,13.52,14.57,13.52,14.57,13.52
	c0.01-0.01,0.01-0.01,0.01-0.01c0.01,0,0.01,0.01,0.02,0.01C14.58,13.53,14.58,13.53,14.57,13.52z M14.66,13.1
	c0,0,0.01-0.01,0.01-0.01c0.03-0.01,0.06-0.02,0.1-0.03c-0.03,0.02-0.07,0.04-0.1,0.06C14.66,13.11,14.66,13.1,14.66,13.1z
	 M14.81,13.35c-0.05,0-0.1,0-0.15,0c0,0,0,0,0,0c0.06,0,0.12,0,0.18,0C14.83,13.35,14.82,13.35,14.81,13.35z M14.78,12.93
	c-0.04,0.01-0.08,0.03-0.12,0.04c0.06-0.04,0.13-0.09,0.18-0.14c0.07-0.05,0.14-0.09,0.21-0.14C14.97,12.78,14.87,12.86,14.78,12.93
	z M15.16,13.68C15.16,13.68,15.15,13.68,15.16,13.68c0.01,0,0.03,0.01,0.05,0.01C15.19,13.69,15.18,13.69,15.16,13.68z M15.14,12.21
	c-0.04,0.05-0.07,0.09-0.11,0.14c0.11-0.16,0.2-0.32,0.3-0.49C15.27,11.98,15.21,12.09,15.14,12.21z M15.39,12.87
	c0.02-0.01,0.03-0.02,0.05-0.03c0.01,0,0.02-0.01,0.04-0.01C15.44,12.84,15.42,12.85,15.39,12.87z M15.35,12.63
	c0.23-0.18,0.45-0.38,0.65-0.6c0.05-0.04,0.11-0.07,0.17-0.11c-0.21,0.22-0.43,0.43-0.66,0.62C15.45,12.57,15.4,12.6,15.35,12.63z
	 M16.58,12.49c0.11-0.04,0.23-0.08,0.34-0.12c-0.36,0.19-0.73,0.37-1.1,0.51C16.07,12.75,16.33,12.62,16.58,12.49z M16.48,13.08
	c-0.06,0.02-0.12,0.03-0.18,0.05c-0.08,0.01-0.16,0.02-0.24,0.02C16.2,13.13,16.34,13.1,16.48,13.08z M19.33,15.22
	c-1.1-0.14-2.19-0.4-3.19-0.88c1.01,0.35,2.2,0.51,3.26,0.43c0.53,0.06,1.06,0.11,1.6,0.13C20.48,15.18,19.92,15.33,19.33,15.22z
	 M16.51,14.25c0.35,0.09,0.7,0.16,1.06,0.23c-0.03-0.01-0.07-0.01-0.1-0.01C17.14,14.42,16.83,14.34,16.51,14.25z M17.61,14.21
	c1.37,0.2,2.76,0.2,4.14,0.18c-0.14,0.11-0.28,0.21-0.43,0.31c-0.36-0.01-0.71-0.03-1.07-0.06c0.25-0.06,0.49-0.13,0.71-0.22
	c-0.54,0.05-1.08,0.1-1.62,0.13c-1.12-0.13-2.24-0.35-3.33-0.65C16.53,14.03,17.07,14.13,17.61,14.21z M17.31,13.7
	c-0.41-0.02-0.83-0.05-1.24-0.09c0.19,0,0.38,0,0.57-0.01c0.42,0.02,0.85,0.02,1.27,0C17.71,13.65,17.51,13.68,17.31,13.7z
	 M18.98,13.32c-0.19,0.02-0.37,0.04-0.56,0.05c-0.58,0.02-1.16,0.04-1.74,0.04c-0.09,0-0.19,0-0.28,0c1.48-0.1,2.96-0.36,4.43-0.59
	c-0.59,0.18-1.19,0.33-1.79,0.48C19.02,13.3,19,13.31,18.98,13.32z M22.9,12.53c1.59-0.2,3.18-0.41,4.73-0.84
	c-1.92,0.72-3.9,1.27-5.94,1.47c-0.43,0.04-0.86,0.08-1.29,0.11c0.28-0.07,0.56-0.15,0.83-0.23C21.78,12.86,22.34,12.69,22.9,12.53z
	 M22.63,11.62c0.83-0.22,1.66-0.46,2.46-0.74c-0.47,0.26-0.93,0.53-1.4,0.78c-0.55,0.31-1.12,0.55-1.7,0.77
	c-1.22,0.17-2.43,0.39-3.65,0.56c0.59-0.13,1.17-0.29,1.75-0.46C20.94,12.24,21.79,11.95,22.63,11.62z M20.62,12.14
	c-0.2,0.07-0.4,0.13-0.59,0.19c-0.69,0.21-1.4,0.39-2.1,0.53c0.05-0.02,0.1-0.03,0.14-0.05c0.19-0.06,0.37-0.13,0.55-0.19
	c0.5-0.12,0.99-0.23,1.49-0.35C20.28,12.23,20.45,12.18,20.62,12.14z M16.73,12.68c0.45-0.23,0.9-0.48,1.34-0.73
	c1.08-0.4,2.15-0.83,3.22-1.28c1.57-0.62,3.11-1.42,4.44-2.5c0.5-0.2,1-0.4,1.49-0.6c-1.05,1.06-2.17,2.06-3.46,2.8
	C21.56,11.52,19.12,12.09,16.73,12.68z"/>
</svg>
