<?xml version="1.0" encoding="utf-8"?>
<!-- Generator: Adobe Illustrator 26.3.1, SVG Export Plug-In . SVG Version: 6.00 Build 0)  -->
<svg version="1.1" id="Layer_1" xmlns="http://www.w3.org/2000/svg" xmlns:xlink="http://www.w3.org/1999/xlink" x="0px" y="0px"
	 viewBox="0 0 39.15 53.53" enable-background="new 0 0 39.15 53.53" xml:space="preserve">
<path fill="#FFFFFF" d="M38.41,16.4c-1.49,0.23-3.57,0.65-5.04,0.94c-0.65,0.11-1.44,0.23-2.23,0.36c0.05-0.01,0.1-0.03,0.15-0.04
	c1.97-0.73,3.82-1.81,5.44-3.17c0.82-0.18,1.64-0.37,2.43-0.57c-0.62,0.07-1.35,0.17-2.1,0.29c0.29-0.26,0.58-0.53,0.86-0.8
	c-0.38,0.29-0.77,0.57-1.15,0.85c-0.61,0.1-1.22,0.22-1.8,0.33c0.65-0.41,1.26-0.86,1.84-1.38c-0.85,0.54-1.72,1.06-2.61,1.53
	c-0.12,0.02-0.24,0.05-0.35,0.07c-1.76,0.37-3.52,0.73-5.26,1.24c-1.73,0.53-3.41,1.17-5.1,1.8c-0.03,0.01-0.07,0.02-0.1,0.04
	c-0.17,0.03-0.34,0.06-0.51,0.09c0.48-0.19,0.95-0.39,1.42-0.6c1.4-0.52,2.77-1.12,4.13-1.71c1.63-0.76,3.26-1.54,4.85-2.39
	c0.64-0.22,1.25-0.45,1.76-0.65c-0.33,0.07-0.67,0.15-1.01,0.24c1.36-0.75,2.69-1.56,3.96-2.46c-1.71,0.9-3.4,1.85-5.11,2.76
	c-0.47,0.13-0.94,0.27-1.41,0.41c1.36-0.72,2.69-1.49,3.97-2.36c-1.85,0.9-3.66,1.89-5.49,2.83c-0.06,0.02-0.12,0.04-0.18,0.06
	c1.3-1.01,2.49-2.16,3.55-3.43c-1.42,1.29-2.86,2.57-4.4,3.7c-0.86,0.28-1.71,0.57-2.56,0.84c-0.23,0.08-0.46,0.17-0.69,0.25
	l0.38-0.18l1.25-0.59c0.4-0.24,0.8-0.47,1.2-0.72c-0.44,0.15-0.87,0.32-1.31,0.47l-1.25,0.6l-2.51,1.19
	c-0.18,0.09-0.37,0.18-0.55,0.26c-0.08,0.03-0.17,0.06-0.25,0.1c1.02-1.05,1.9-2.25,2.67-3.48c0.57-0.9,1.05-1.85,1.42-2.85
	c-0.59,0.89-1.11,1.8-1.65,2.71c-0.11,0.17-0.22,0.33-0.33,0.5c0.52-0.77,0.96-1.58,1.28-2.45c-0.83,1.22-1.58,2.5-2.5,3.67
	c0.24-0.38,0.47-0.76,0.68-1.15c1.28-2.28,2.7-4.64,3.72-7.06c-1.78,2.77-3.18,5.86-4.97,8.62c-0.41,0.6-0.88,1.16-1.4,1.67
	c-0.2,0.17-0.4,0.33-0.61,0.48c-0.27,0.1-0.54,0.21-0.8,0.34c0.36-0.47,0.66-1.02,0.94-1.55c0.35-0.35,0.7-0.71,1.02-1.08l0.62-0.68
	c0.17-0.26,0.35-0.51,0.52-0.78c-0.25,0.19-0.48,0.39-0.71,0.59c-0.23,0.26-0.65,0.73-0.97,1.08c0.66-1.24,1.66-2.86,2.14-4.1
	c-0.25,0.32-0.48,0.66-0.72,0.99l-0.59,1.06c0,0-0.26,0.48-0.54,0.99c0.72-1.56,1.69-2.96,2.59-4.42c-1.36,1.33-2.25,3.06-3.04,4.77
	c-0.3,0.64-0.6,1.27-0.97,1.87c-0.13,0.12-0.26,0.25-0.4,0.37l0.06-0.08c0.3-0.4,0.55-0.82,0.79-1.25l0.35-0.65
	c0.08-0.24,0.15-0.47,0.21-0.72c-0.63,0.74-0.97,1.69-1.57,2.45c-0.33,0.46-0.8,1.01-1.17,1.56c0.28-0.62,0.52-1.26,0.85-1.86
	c0.42-0.88,1.03-1.65,1.38-2.57c-0.18,0.17-0.35,0.35-0.51,0.54l-0.38,0.62c-0.18,0.33-0.38,0.68-0.57,1.02
	c0.25-0.77,0.48-1.55,0.71-2.32l0.26-0.93c0.04-0.32,0.09-0.64,0.11-0.96c-0.28,0.58-0.46,1.19-0.62,1.82
	c-0.08,0.28-0.16,0.55-0.24,0.83c0.12-0.54,0.22-1.08,0.33-1.61c0.32-2.18,1.01-4.28,1.34-6.46c-0.2,0.52-0.37,1.04-0.55,1.56
	l-0.39,1.61c-0.25,1.07-0.49,2.15-0.66,3.24c-0.3,1.77-0.8,3.5-1.31,5.21c-0.07,0.19-0.13,0.38-0.18,0.57
	c0.04-0.28,0.08-0.56,0.13-0.83c0.16-1.47,0.43-2.96,0.57-4.43c0.26-1.97,1.03-3.83,1.52-5.74c-0.95,1.77-1.45,3.74-1.78,5.71
	c-0.11,1-0.22,1.97-0.38,2.96c-0.11,0.63-0.17,1.27-0.18,1.91c-0.39-1.35-0.26-2.76-0.06-4.15l0.12-0.88c0-0.3,0.01-0.6,0-0.9
	c-0.1,0.29-0.18,0.58-0.26,0.87c0,0-0.12,0.89-0.12,0.89c-0.12,0.82-0.21,1.66-0.19,2.49c-0.03-0.11-0.07-0.21-0.1-0.32
	c-0.09-0.86-0.11-1.73-0.11-2.58c-0.02-0.96-0.07-1.91-0.13-2.86l-0.09-1.43c-0.08-0.47-0.15-0.95-0.24-1.42
	c-0.08,1.88,0.18,3.84,0.2,5.72c0.02,0.51,0.02,1.04,0.04,1.57c-0.42-1.23-0.65-2.52-1.08-3.74c0,0.34,0,0.71,0.06,1.04
	c0.26,1.26,0.68,2.47,1.08,3.69c0.02,0.22,0.05,0.43,0.08,0.64c-0.05-0.12-0.11-0.24-0.16-0.36c-1.4-4.47-1.94-9.18-2.03-13.87
	c-0.21,1.43-0.18,2.87-0.05,4.3c0.19,2.41,0.58,4.8,1.15,7.14c-0.06-0.18-0.12-0.35-0.18-0.53c-0.62-1.95-0.84-3.99-1.08-6.01
	c-0.12,1.03-0.04,2.07,0.13,3.09c0.32,2.03,0.94,3.99,1.76,5.87c-0.26-0.33-0.54-0.64-0.82-0.93c-0.91-1.56-1.8-3.12-2.59-4.75
	C12.24,7.1,11.73,3.5,11.03,0c0.18,2.93,0.76,5.82,1.56,8.64c-0.11-0.24-0.21-0.48-0.32-0.72c-0.11-0.42-0.21-0.84-0.32-1.26
	c0.01,0.23,0.04,0.46,0.06,0.69c-0.3-0.67-0.61-1.35-0.91-2.02c-0.02-0.39-0.04-0.78-0.03-1.17c-0.05,0.29-0.08,0.58-0.1,0.88
	C10.95,5.01,10.95,5,10.94,4.99c0-0.91,0.05-1.83,0.09-2.73c-0.16,0.74-0.25,1.49-0.31,2.25c-0.14-0.32-0.28-0.64-0.42-0.96
	c0.12-0.62,0.25-1.25,0.4-1.87c-0.2,0.52-0.37,1.05-0.53,1.58c-0.07-0.17-0.15-0.34-0.22-0.51c-0.3-0.83-0.78-1.58-1.26-2.32
	C9.09,1.22,9.5,2,9.72,2.84c0.11,0.29,0.23,0.57,0.35,0.85C9.78,4.76,9.58,5.86,9.49,6.96C9.44,7.51,9.41,8.08,9.42,8.64
	C8.59,7.52,7.9,6.32,7.21,5.11C6.71,4.4,6.19,3.73,5.63,3.08C6.6,4.5,7.38,6,8.28,7.46c0.16,0.26,0.33,0.51,0.51,0.76
	c-0.7-0.85-1.43-1.73-2.14-2.57C6.49,5.41,6.33,5.17,6.17,4.93c0.06,0.13,0.13,0.26,0.19,0.4C5.57,4.4,4.8,3.53,4.11,2.81
	C4.87,3.88,5.86,5.12,6.9,6.38c0.75,1.42,1.61,2.79,2.54,4.1C7.96,8.59,6.45,6.72,4.67,5.1c1.46,1.86,3.24,3.75,4.64,5.64
	c0.29,0.37,0.58,0.75,0.88,1.12c0.13,0.32,0.26,0.64,0.4,0.96c-0.14-0.14-0.28-0.27-0.42-0.41C7.7,9.98,4.86,7.61,1.42,6.81
	c3.26,1.24,6.13,3.3,8.57,5.8c0.26,0.25,0.51,0.5,0.77,0.76c-0.41,0.07-0.84,0.19-1.27,0.37C7.72,11.93,6,9.98,4.09,8.38
	c0.84,1.02,2.14,2.4,3.09,3.33c0.61,0.62,1.2,1.27,1.8,1.91c-1.18-0.61-2.25-1.39-3.29-2.22c-0.7-1-1.37-2.03-2.11-2.99
	c0.44,0.82,0.91,1.64,1.41,2.42c-0.66-0.54-1.32-1.08-2-1.59c0.79,0.84,1.63,1.63,2.51,2.36c0.27,0.39,0.55,0.77,0.84,1.14
	c-1.13-1.03-2.29-2.05-3.43-2.94c0.99,1.08,2.15,2.15,3.29,3.19c-1.57-0.85-3.2-1.59-4.94-2.03c1.43,0.64,2.86,1.27,4.27,1.96
	c0.52,0.26,1.02,0.55,1.53,0.84c0.11,0.1,0.21,0.2,0.32,0.3c-0.76-0.2-1.54-0.36-2.32-0.46c-0.18-0.07-0.35-0.14-0.52-0.2
	c0.09,0.06,0.18,0.11,0.27,0.17c-0.37-0.04-0.75-0.07-1.12-0.09c0.52,0.11,1.04,0.23,1.56,0.35c0.83,0.48,1.8,0.99,2.56,1.36
	c0.44,0.22,0.88,0.45,1.31,0.67c0.35,0.43,0.7,0.88,1.06,1.3c-0.33-0.12-0.66-0.23-0.99-0.36c-2.97-1-6.04-1.89-9.19-2.08
	c3.06,0.66,6.15,1.27,9.1,2.33c0.48,0.17,0.96,0.34,1.44,0.51c0.06,0.07,0.13,0.13,0.2,0.2c-0.23-0.04-0.46-0.09-0.68-0.13
	c-0.76-0.15-4.43-0.99-5.13-1.08c-1.06-0.12-2.09-0.11-3.14-0.18c1.36,0.33,2.77,0.34,4.13,0.63L10,17.88
	c0.37,0.08,0.74,0.14,1.11,0.22c0.13,0.11,0.27,0.23,0.42,0.33c0.01,0.01,0.02,0.02,0.04,0.02c-1.87-0.22-3.73-0.49-5.51-0.68
	c-1.18-0.17-2.88-0.33-4.06-0.36c2.27,0.5,5.74,0.81,8.07,1.12c0.66,0.06,1.32,0.15,1.98,0.23c0.61,0.36,1.27,0.62,1.94,0.78
	c-3.17,0.09-6.31-0.49-9.44-0.93c2.2,0.75,4.54,0.96,6.84,1.14c1.41,0.04,2.88,0.14,4.3-0.04c-0.96,0.25-1.93,0.47-2.91,0.61
	c-0.89,0.16-1.8,0.27-2.71,0.38c-0.94-0.25-1.93-0.61-3.03-1.06c-0.54-0.18-1.07-0.39-1.61-0.6c0.48,0.31,0.99,0.58,1.5,0.85
	c0.8,0.32,1.62,0.64,2.45,0.9c-0.79,0.09-1.58,0.2-2.35,0.35c0.49,0.02,0.97,0.02,1.46,0.02l1.45-0.15c0.05-0.01,0.1-0.01,0.15-0.02
	c1.17,0.3,2.36,0.45,3.57,0.3c1.05-0.17,2.08-0.53,3-1.09c-1.8,1.65-3.39,4.26-3.85,6.28c-0.04,0.21-0.08,0.41-0.12,0.62
	c0.18-0.38,0.32-0.78,0.51-1.15c0.83-2.38,2.36-4.36,4.16-6.07c-0.42,0.51-0.82,1.05-1.19,1.6l-0.31,0.45
	c-0.07,0.17-0.13,0.35-0.18,0.53c0.57-0.46,0.88-1.14,1.33-1.7c0.14-0.21,0.31-0.4,0.47-0.6c-1.03,2.74-3.71,9.72-7.13,18.74
	c-0.28,0.14-0.62,0.44-1,1.08c-0.68,1.17-1.93,3.91-3,6.88l-0.16,0.42c-0.75,1.91-2.14,5.47-0.88,6.14
	c0.07,0.04,0.13,0.06,0.19,0.09c0.51,0.19,0.92-0.06,1.62-0.99c0.72-0.94,2.13-4.53,3.5-8.93c0.83-2.65,0.83-3.81,0.66-4.33
	c3.61-9.9,6.28-17.4,7-19.6c0.1,0.74,0.29,1.43,0.36,2.18c0.06,0.9,0.15,1.89,0.26,2.78l0.11,0.92c0.08,0.3,0.15,0.61,0.24,0.91
	c0.08-1.21-0.19-2.43-0.28-3.71c-0.04-0.64-0.1-1.3-0.22-1.95c0.38,1.38,0.32,2.85,0.76,4.21c0.03-0.27,0.03-0.53,0.05-0.8
	l-0.1-0.78c-0.11-0.77-0.19-1.57-0.36-2.35c0.51,1.01,0.96,2.04,1.36,3.1c0.21,0.58,0.43,1.14,0.73,1.68
	c-0.16-1.23-0.72-2.35-1.19-3.48c-0.33-0.69-0.63-1.42-1.01-2.09c0.96,1.16,2.26,2.03,3.54,2.8c1.73,0.94,3.53,1.85,5.49,2.17
	c-3.14-1.27-6.47-2.5-8.8-5.08c-0.24-0.2-0.45-0.43-0.65-0.67c0.07,0.05,0.15,0.1,0.22,0.15c0.46,0.56,1,1.05,1.59,1.46
	c1.17,0.85,2.53,1.38,3.89,1.82c0.9,0.35,1.9,0.23,2.76-0.19c0.45,0.09,0.91,0.18,1.36,0.25c1.21,0.2,2.46,0.29,3.67,0.07
	c-1.57-0.05-3.13-0.23-4.67-0.53c0.17-0.1,0.33-0.22,0.48-0.34c1.18,0.19,2.36,0.38,3.53,0.64c1.32,0.28,3.23,0.61,4.55,0.76
	c-2.52-0.71-5.21-1.19-7.82-1.64c0.05-0.05,0.1-0.1,0.15-0.15c-0.08,0.05-0.15,0.09-0.23,0.14c-0.38-0.07-0.76-0.13-1.14-0.2
	c-1.52-0.22-3.02-0.54-4.47-1.02c-0.2-0.07-0.39-0.14-0.59-0.21c0.06,0.01,0.12,0.01,0.18,0.01c0.24,0.05,0.48,0.1,0.73,0.15
	c4.72,0.94,9.62,1,14.38,0.18c-3.2,0.08-6.4,0.48-9.59,0.21c-1.41-0.11-2.81-0.29-4.2-0.55c0.28-0.02,0.56-0.05,0.84-0.09
	c4.54,0.62,9.19,0.83,13.55-0.81c-0.43,0.1-0.86,0.19-1.29,0.28c-1.73-0.07-3.57-0.01-5.33-0.08c1.77-0.23,3.55-0.49,5.25-0.88
	c-2.22,0.15-4.47,0.5-6.71,0.8c-0.05,0-0.1,0-0.16-0.01c0.46-0.11,0.92-0.24,1.38-0.4c1.01-0.32,2-0.7,2.97-1.15
	c0.02,0,0.04-0.01,0.05-0.01c-0.01,0-0.02,0-0.03,0c0.35-0.17,0.71-0.34,1.05-0.52c-0.53,0.18-1.06,0.36-1.59,0.55
	c-0.61,0.03-1.23,0.07-1.85,0.12c0.67-0.18,1.33-0.37,1.98-0.61c-1.35,0.21-2.72,0.51-4.08,0.79c-0.92,0.09-1.85,0.17-2.76,0.23
	c0.57-0.09,1.14-0.19,1.71-0.28C31.68,17.85,35.19,17.45,38.41,16.4z M18.38,18.36c0,0.02-0.01,0.04-0.01,0.06
	c-0.01,0-0.02,0-0.02,0C18.36,18.4,18.37,18.38,18.38,18.36z M18,18.53c-0.01,0.01-0.01,0.01-0.02,0.02
	c-0.01-0.01-0.01-0.02-0.02-0.04c-0.02-0.05-0.04-0.11-0.07-0.16C17.93,18.41,17.96,18.47,18,18.53z M17.9,18.64
	C17.9,18.65,17.89,18.65,17.9,18.64c-0.01,0.01-0.02,0-0.02,0c-0.03-0.04-0.07-0.07-0.1-0.11c-0.05-0.06-0.09-0.12-0.14-0.19
	C17.73,18.45,17.81,18.54,17.9,18.64z M17.81,18.92c0,0.01,0,0.02,0,0.03c-0.01,0.01-0.03,0.01-0.04,0.02
	c-0.02-0.02-0.03-0.03-0.05-0.05C17.75,18.92,17.78,18.92,17.81,18.92z M17.19,17.08c0.05,0.13,0.11,0.26,0.17,0.4
	c-0.19-0.32-0.38-0.65-0.57-0.97C16.93,16.7,17.06,16.89,17.19,17.08z M17.35,17.79c-0.14-0.18-0.28-0.36-0.43-0.53
	c-0.01-0.01-0.03-0.03-0.04-0.04c-0.05-0.08-0.1-0.16-0.14-0.24c-0.27-0.45-0.54-0.9-0.81-1.36C16.38,16.35,16.86,17.08,17.35,17.79
	z M17.18,18.3c-0.09-0.06-0.17-0.12-0.26-0.18c-0.06-0.06-0.11-0.12-0.16-0.17c0.07,0.07,0.15,0.13,0.22,0.2
	c0.05,0.03,0.09,0.07,0.14,0.1C17.14,18.26,17.16,18.28,17.18,18.3z M11.09,15.69c0.08,0.04,0.15,0.08,0.23,0.11
	c0.04,0.04,0.09,0.07,0.13,0.11c-0.3-0.15-0.6-0.3-0.9-0.46C10.73,15.53,10.91,15.6,11.09,15.69z M10.76,14.99
	c0.68,0.45,1.37,0.89,2.06,1.32c-0.46-0.26-0.92-0.51-1.38-0.75C11.2,15.38,10.98,15.19,10.76,14.99z M12.61,16.77
	c0.77,0.53,1.59,1,2.44,1.35c-1.21-0.38-2.38-0.9-3.44-1.63c-0.83-0.55-1.7-1.02-2.53-1.56c0.18,0.1,0.35,0.2,0.53,0.3
	C10.59,15.77,11.59,16.29,12.61,16.77z M11.51,14.12c0.73,0.73,1.46,1.46,2.22,2.17c0.25,0.22,0.5,0.45,0.76,0.67
	c-0.09-0.05-0.18-0.1-0.27-0.15c-0.41-0.22-0.8-0.46-1.2-0.7C12.41,15.54,11.92,14.86,11.51,14.12z M11.35,13.58
	c0.08,0,0.15-0.01,0.23-0.01c1.32,1.57,2.75,3.04,4.42,4.18c-0.07-0.03-0.14-0.07-0.2-0.1C14.17,16.47,12.77,15.01,11.35,13.58z
	 M12.57,12.95c0,0.01,0.01,0.01,0.01,0.02c-0.07-0.1-0.15-0.19-0.22-0.29C12.43,12.77,12.5,12.86,12.57,12.95z M12.33,11.18
	c0.4,0.86,0.87,1.69,1.39,2.48c-0.12-0.05-0.25-0.09-0.37-0.13c-0.03-0.04-0.07-0.08-0.1-0.13C12.89,12.69,12.6,11.94,12.33,11.18z
	 M12.76,13.65c0.22,0.29,0.43,0.57,0.65,0.85c0.09,0.15,0.19,0.3,0.29,0.45c-0.48-0.44-0.95-0.89-1.4-1.37
	C12.45,13.6,12.6,13.62,12.76,13.65z M14.29,15.81c0.03,0.05,0.07,0.1,0.1,0.14c0.17,0.23,0.36,0.46,0.55,0.67
	c-0.84-0.69-1.63-1.44-2.33-2.28c-0.09-0.1-0.17-0.2-0.26-0.29C12.96,14.67,13.62,15.25,14.29,15.81z M13.63,13.89
	c0.12,0.05,0.23,0.1,0.35,0.16c0.5,0.74,1.03,1.43,1.57,2.08c0.23,0.32,0.47,0.63,0.72,0.94c-0.02-0.02-0.04-0.03-0.06-0.05
	C15.3,16.01,14.46,14.96,13.63,13.89z M16.01,16.26c-0.08-0.09-0.15-0.17-0.22-0.26c-0.35-0.48-0.69-0.97-1-1.47
	c0.13,0.09,0.26,0.19,0.38,0.29C15.44,15.3,15.73,15.78,16.01,16.26z M12.92,10.05c0.08,0.16,0.16,0.33,0.25,0.49
	c0.45,1.29,1.04,2.53,1.69,3.72c-0.12-0.08-0.25-0.16-0.38-0.23c-0.14-0.25-0.29-0.49-0.42-0.75c-0.61-1.2-1.03-2.47-1.38-3.77
	C12.76,9.69,12.84,9.87,12.92,10.05z M12.13,8.28c0.29,1.68,0.86,3.32,1.57,4.86c-1.32-2.15-2.26-4.54-2.55-7.06
	C11.49,6.81,11.81,7.55,12.13,8.28z M11.85,10.06c0.07,0.45,0.16,0.89,0.29,1.32c-0.2-0.46-0.38-0.93-0.56-1.4
	c-0.36-1.14-0.53-2.31-0.6-3.5C11.08,7.68,11.4,8.89,11.85,10.06z M7.79,7.45c0.58,0.69,1.15,1.37,1.69,2.02
	c0.03,0.27,0.08,0.54,0.15,0.8C8.99,9.35,8.38,8.4,7.79,7.45z M10.17,4.33c0.02-0.1,0.04-0.19,0.05-0.29
	c0.16,0.35,0.32,0.69,0.48,1.04c-0.06,1.69,0.14,3.39,0.64,5c0.23,0.6,0.47,1.2,0.73,1.79c-0.67-0.85-1.35-1.7-2.07-2.51
	C9.89,9.25,9.8,9.13,9.71,9.01C9.6,7.45,9.86,5.86,10.17,4.33z M10.15,11c-0.09-0.24-0.17-0.48-0.26-0.71
	c-0.03-0.14-0.05-0.28-0.08-0.42c0.39,0.47,0.76,0.91,1.1,1.33c0.54,0.7,1.07,1.42,1.61,2.14c-0.17-0.03-0.34-0.04-0.51-0.05
	c-0.2-0.22-0.4-0.45-0.59-0.68C10.97,12.09,10.55,11.55,10.15,11z M11.34,13.29c-0.08,0.01-0.17,0.01-0.25,0.02
	c-0.11-0.24-0.22-0.48-0.32-0.73C10.96,12.82,11.15,13.06,11.34,13.29z M10.95,13.61c0.34,0.69,0.72,1.36,1.2,1.96
	c-0.78-0.5-1.55-1.02-2.34-1.5c-0.08-0.09-0.17-0.17-0.25-0.26C10.01,13.73,10.48,13.66,10.95,13.61z M6.28,12.21
	c0.64,0.48,1.3,0.93,1.99,1.33c0.46,0.22,0.89,0.45,1.32,0.71c0.25,0.25,0.49,0.49,0.75,0.73c0.07,0.06,0.14,0.12,0.21,0.18
	c-0.53-0.23-1.07-0.44-1.61-0.63c-0.46-0.27-0.91-0.53-1.37-0.8C7.11,13.26,6.69,12.74,6.28,12.21z M7.92,14.93
	c-0.56-0.29-1.26-0.64-1.94-0.95c0.62,0.15,1.24,0.31,1.85,0.48c0.13,0.12,0.26,0.24,0.38,0.36c0.16,0.16,0.31,0.32,0.46,0.49
	C8.42,15.19,8.17,15.06,7.92,14.93z M8.81,15.07c0.87,0.58,1.8,1.07,2.66,1.64c0.21,0.14,0.42,0.28,0.64,0.41
	c-0.02-0.01-0.05-0.02-0.08-0.03c-0.9-0.5-1.83-0.98-2.75-1.46C9.13,15.44,8.97,15.25,8.81,15.07z M10.69,17.32
	c-0.35-0.37-0.67-0.77-0.99-1.17c0.74,0.39,1.48,0.78,2.23,1.18c1.03,0.43,2.08,0.81,3.16,1.11C13.59,18.18,12.13,17.8,10.69,17.32z
	 M11.23,17.84c-0.04-0.03-0.07-0.07-0.11-0.1c0.21,0.07,0.42,0.13,0.64,0.2C11.58,17.91,11.4,17.88,11.23,17.84z M11.68,18.2
	c0.81,0.15,1.63,0.29,2.44,0.41c0.41,0.06,0.83,0.12,1.24,0.17c-1.06-0.05-2.14-0.15-3.21-0.27C11.99,18.42,11.83,18.31,11.68,18.2z
	 M12.79,18.85c1.6,0.19,3.22,0.32,4.81,0.06c0,0,0,0,0.01,0c0.03,0.03,0.07,0.05,0.1,0.08c-0.43,0.17-0.87,0.29-1.32,0.35
	c-0.18,0.02-0.36,0.04-0.54,0.06C14.8,19.47,13.75,19.28,12.79,18.85z M10.85,20.87c0.66-0.09,1.32-0.18,1.98-0.29
	c1.58-0.29,3.21-0.55,4.69-1.2C15.08,20.98,13.1,21.31,10.85,20.87z M28.65,16.3c1.47-0.43,3.03-0.77,4.6-1.1
	c-0.97,0.47-1.97,0.87-3.01,1.17c-1.73,0.46-3.48,0.85-5.24,1.2C26.21,17.12,27.42,16.66,28.65,16.3z M24.4,17.04
	c-0.58,0.21-1.16,0.42-1.75,0.61c1.18-0.45,2.34-0.96,3.5-1.48C25.57,16.48,24.99,16.77,24.4,17.04z M30.04,14.3
	c0.24-0.07,0.47-0.15,0.71-0.22c0.27-0.08,0.58-0.17,0.89-0.27c-1.09,0.57-2.2,1.11-3.32,1.61c-0.49,0.23-0.99,0.44-1.49,0.66
	c0.51-0.29,1-0.6,1.49-0.93C28.9,14.87,29.47,14.59,30.04,14.3z M21.77,16.92c0.4-0.34,0.78-0.71,1.14-1.1
	c0.61-0.7,1.21-1.43,1.74-2.2c-0.76,1.13-1.62,2.25-2.62,3.2C21.97,16.85,21.87,16.88,21.77,16.92
	C21.77,16.92,21.77,16.92,21.77,16.92z M21.14,17.91c0.29-0.21,0.56-0.45,0.83-0.68c0.33-0.16,0.66-0.32,0.99-0.47
	c1.73-0.67,3.48-1.29,5.25-1.87c-0.05,0.04-0.1,0.07-0.15,0.11c-0.33,0.16-0.66,0.31-0.99,0.47c-1.94,0.93-3.93,1.73-5.94,2.46
	C21.13,17.91,21.14,17.91,21.14,17.91z M18.84,18.83c0.04-0.01,0.09-0.01,0.13-0.02c-0.05,0.02-0.1,0.04-0.15,0.06
	c0-0.01,0-0.02,0-0.03C18.83,18.83,18.83,18.83,18.84,18.83z M18.6,19.37C18.6,19.37,18.6,19.36,18.6,19.37c0.01,0,0.02,0,0.02,0
	c0.01,0.01,0.01,0.01,0.02,0.02C18.62,19.38,18.61,19.37,18.6,19.37z M18.68,18.47c-0.01,0.01-0.03,0.02-0.04,0.02
	c0.04-0.04,0.08-0.07,0.11-0.1C18.73,18.42,18.7,18.44,18.68,18.47z M18.96,19.21c-0.06-0.01-0.13-0.03-0.19-0.04c0,0,0,0,0,0
	c0.07,0.01,0.15,0.03,0.23,0.04C18.99,19.21,18.97,19.21,18.96,19.21z M19.33,19.71c0,0-0.01-0.01-0.01-0.01
	c0.03,0.01,0.05,0.03,0.08,0.04C19.38,19.73,19.35,19.72,19.33,19.71z M19.02,18.65c-0.06,0.01-0.11,0.02-0.17,0.03
	c0.09-0.04,0.18-0.09,0.27-0.14c0.1-0.04,0.21-0.09,0.31-0.13C19.29,18.49,19.15,18.58,19.02,18.65z M19.47,17.95
	c0.17-0.18,0.34-0.37,0.5-0.56c-0.1,0.14-0.21,0.28-0.32,0.41C19.58,17.85,19.53,17.9,19.47,17.95z M19.82,18.71
	c0.02-0.01,0.04-0.02,0.07-0.03c0.02,0,0.03,0,0.05,0C19.89,18.68,19.86,18.69,19.82,18.71z M19.82,18.39
	c0.34-0.18,0.67-0.39,0.98-0.62c0.08-0.03,0.16-0.07,0.24-0.1c-0.32,0.24-0.65,0.45-0.99,0.65C19.97,18.33,19.89,18.36,19.82,18.39z
	 M21.44,18.49c0.16-0.02,0.31-0.05,0.47-0.08c-0.51,0.17-1.03,0.31-1.54,0.41C20.73,18.71,21.08,18.6,21.44,18.49z M21.18,19.23
	c-0.08,0.01-0.16,0.01-0.25,0.02c-0.1-0.01-0.21-0.01-0.31-0.02C20.81,19.23,20.99,19.23,21.18,19.23z M24.37,22.64
	c-1.39-0.43-2.74-1.01-3.92-1.86c1.23,0.68,2.72,1.16,4.12,1.29c0.67,0.2,1.35,0.38,2.03,0.53C25.88,22.85,25.12,22.93,24.37,22.64z
	 M20.95,20.75c0.43,0.19,0.87,0.37,1.31,0.54c-0.04-0.01-0.08-0.03-0.13-0.04C21.73,21.11,21.34,20.94,20.95,20.75z M22.38,20.95
	c1.73,0.58,3.52,0.89,5.31,1.18c-0.2,0.11-0.41,0.21-0.63,0.3c-0.46-0.1-0.92-0.2-1.37-0.32c0.34-0.01,0.66-0.05,0.97-0.12
	c-0.71-0.06-1.42-0.12-2.13-0.21c-1.42-0.43-2.82-0.96-4.16-1.6C21.03,20.48,21.7,20.73,22.38,20.95z M22.11,20.23
	c-0.53-0.12-1.06-0.25-1.58-0.39c0.25,0.04,0.49,0.08,0.74,0.12c0.54,0.12,1.09,0.21,1.64,0.29C22.64,20.25,22.38,20.24,22.11,20.23
	z M24.36,20.11c-0.25-0.01-0.49-0.04-0.74-0.06c-0.76-0.1-1.51-0.22-2.26-0.34c-0.12-0.02-0.24-0.05-0.36-0.07
	c1.94,0.21,3.91,0.21,5.86,0.25c-0.81,0.09-1.62,0.15-2.43,0.22C24.41,20.1,24.39,20.1,24.36,20.11z M29.61,19.98
	c2.1,0.1,4.2,0.2,6.3-0.01c-2.65,0.5-5.34,0.76-8.02,0.54c-0.57-0.05-1.13-0.1-1.7-0.16c0.38-0.02,0.76-0.06,1.13-0.11
	C28.08,20.15,28.84,20.07,29.61,19.98z M29.47,18.75c1.12-0.1,2.25-0.22,3.35-0.4c-0.66,0.23-1.32,0.47-1.99,0.69
	c-0.78,0.27-1.57,0.46-2.37,0.61c-1.62-0.05-3.24-0.05-4.85-0.11c0.79-0.04,1.58-0.11,2.36-0.2C27.14,19.17,28.31,18.98,29.47,18.75
	z M26.75,18.96c-0.27,0.04-0.54,0.08-0.81,0.11c-0.94,0.12-1.89,0.18-2.84,0.21c0.07-0.01,0.13-0.02,0.2-0.03
	c0.25-0.04,0.51-0.08,0.76-0.12c0.67-0.04,1.34-0.08,2-0.11C26.29,19,26.52,18.98,26.75,18.96z M24.15,18.86
	C24.15,18.86,24.15,18.86,24.15,18.86L24.15,18.86C24.15,18.86,24.15,18.86,24.15,18.86z M21.59,18.78c0.64-0.2,1.27-0.41,1.9-0.64
	c1.49-0.27,2.97-0.58,4.45-0.92c2.18-0.45,4.35-1.13,6.31-2.22c0.69-0.14,1.38-0.28,2.07-0.43c-1.6,1.13-3.28,2.17-5.11,2.83
	C28.1,18.37,24.81,18.55,21.59,18.78z"/>
</svg>
