<?xml version="1.0" encoding="utf-8"?>
<!-- Generator: Adobe Illustrator 26.3.1, SVG Export Plug-In . SVG Version: 6.00 Build 0)  -->
<svg version="1.1" id="Layer_1" xmlns="http://www.w3.org/2000/svg" xmlns:xlink="http://www.w3.org/1999/xlink" x="0px" y="0px"
	 viewBox="0 0 47.38 74.13" enable-background="new 0 0 47.38 74.13" xml:space="preserve">
<g>
	<path fill="#FFFFFF" d="M23.74,10.22C23.66,10.29,23.58,10.37,23.74,10.22L23.74,10.22z"/>
	<path fill="#FFFFFF" d="M46.25,20.87l-2.8-0.07l-2.79,0.06c-2.64,0.05-5.28,0.05-7.93-0.03c0.52-0.02,1.05-0.03,1.57-0.06
		l1.72-0.08c0.57-0.09,1.14-0.16,1.71-0.27l-1.73-0.05c0,0-1.72,0.09-1.72,0.09c-2.02,0.11-4.04,0.12-6.06,0.07
		c0.5-0.05,1.01-0.1,1.5-0.11c1.96-0.14,3.92-0.26,5.88-0.37c2.84-0.16,5.97-0.3,8.83-0.4l2.94-0.25
		c-3.87-0.19-7.92,0.15-11.78,0.32c-1.96,0.11-3.92,0.23-5.88,0.37c-1.15,0.02-2.29,0.25-3.44,0.24c-0.02,0-0.03-0.01-0.05-0.01
		c3.04-0.22,6.76-0.72,9.44-1c3.26-0.39,8.15-0.79,11.33-1.42c-3.25,0.09-8.09,0.77-11.36,1.1c-2.8,0.34-6.82,0.69-9.91,1.17
		c-0.12-0.03-0.24-0.07-0.36-0.1c3.14-0.42,7.17-1.26,10.02-1.76c3.23-0.62,8.1-1.37,11.24-2.22c-3.25,0.32-8.04,1.34-11.3,1.91
		c-2.92,0.56-7.17,1.23-10.28,1.98c-0.11-0.03-0.22-0.06-0.33-0.1c-0.02-0.01-0.04-0.01-0.06-0.02c0.16-0.04,0.33-0.08,0.49-0.12
		c1.55-0.27,3.07-0.66,4.62-0.92c1.93-0.4,3.95-0.59,5.71-1.15c-0.49,0.01-0.98,0.05-1.47,0.07l-1.44,0.24
		c-0.96,0.16-1.92,0.34-2.87,0.52c-0.18,0.04-0.37,0.07-0.55,0.11c1.33-0.4,2.66-0.8,3.97-1.14c2.15-0.59,4.54-1.2,6.72-1.73
		l2.22-0.69c-3.02,0.4-6.08,1.35-9.02,2.11c-2.31,0.66-4.65,1.25-6.92,2.06c-0.46,0.11-0.91,0.24-1.35,0.4
		c0.09-0.04,0.19-0.08,0.28-0.12c2.33-0.71,4.64-1.51,6.99-2.17c2.63-0.81,5.46-1.41,8.04-2.37c-2.73,0.41-5.48,1.33-8.13,2.06
		c-1.42,0.44-2.85,0.83-4.27,1.3c2.26-1.06,4.64-2.26,6.49-3.13c2.91-1.44,7.36-3.43,10.12-5.06C41.3,11.3,37,13.52,34.05,14.91
		c-2.54,1.25-6.24,2.93-8.98,4.41c-0.13,0.06-0.26,0.13-0.4,0.19c0.13-0.13,0.26-0.26,0.38-0.39c0.02-0.01,0.12-0.05,0.12-0.05
		c1.31-0.7,2.77-1.45,4.1-2.1l2.76-1.36l1.38-0.67c0.44-0.27,0.88-0.53,1.32-0.81c-0.49,0.16-0.97,0.34-1.46,0.52l-1.38,0.67
		l-2.76,1.36c-0.09,0.05-0.18,0.09-0.27,0.14c0.71-0.41,1.42-0.8,2.15-1.19c2.43-1.37,5.11-2.57,7.48-4.06
		c-2.62,0.98-5.16,2.48-7.63,3.77c-1.41,0.79-2.84,1.54-4.23,2.37c2.06-1.44,4.23-2.73,6.47-3.86c0.56-0.29,1.13-0.57,1.7-0.85
		l1.65-0.95c-2.42,0.78-4.63,2.1-6.83,3.35c-0.02,0.01-0.04,0.03-0.06,0.04c0.52-0.36,1.04-0.72,1.57-1.06
		c2.36-1.61,4.99-3,7.37-4.59c-2.69,1.11-5.11,2.76-7.55,4.32c-1.43,0.97-2.87,1.94-4.23,3l1.57-1.97l1.96-2.46l0.98-1.23
		c0.29-0.44,0.58-0.88,0.85-1.33c-0.38,0.37-0.74,0.75-1.11,1.13l-0.98,1.23l-1.96,2.46l-1.96,2.46l-0.58,0.73
		c-0.1,0.09-0.2,0.18-0.3,0.27c-0.08,0.07-0.16,0.13-0.24,0.2c0.68-1.67,1.33-3.35,2.04-5.01l1.26-2.96l0.64-1.47
		c0.17-0.51,0.35-1.02,0.5-1.54c-0.28,0.46-0.53,0.94-0.8,1.41c-0.41,0.94-1.49,3.46-1.91,4.44c-0.68,1.78-1.6,3.51-2,5.38
		c-0.08,0.08-0.16,0.16-0.24,0.24c0-0.12-0.01-0.24-0.01-0.36c0.9-2.27,1.71-4.57,2.69-6.81c0.99-2.44,2.29-4.9,3.16-7.39
		c-1.39,2.25-2.39,4.85-3.46,7.27c-0.86,2.13-1.84,4.24-2.4,6.47c-0.05-2.08-0.09-3.46-0.11-3.96l-0.04,0
		c0.02-0.31,0.03-0.62,0.06-0.94c0.14-2.14,0.59-4.23,0.75-6.37c-0.71,2.03-0.85,4.21-1.07,6.34c-0.02,0.32-0.04,0.65-0.06,0.98
		l-0.2,0.01c0.01,0.33,0.03,1.9,0.06,4.44c-0.38-2.04-1.21-4.01-1.91-5.95l-0.46-1.12c-0.21-0.35-0.41-0.7-0.64-1.04l0.34,1.17
		c0.16,0.37,0.31,0.74,0.46,1.11c0.91,2.1,1.41,4.23,2.17,6.27c-0.04,0.01-0.08,0.03-0.12,0.05c-0.03-0.04-0.07-0.09-0.1-0.13
		c-0.03-0.14-0.11-0.44-0.11-0.44c-0.18-0.73-0.38-1.45-0.62-2.16c-0.1-0.38-0.27-0.72-0.56-0.99c0.12,1,0.55,1.94,0.79,2.93
		c-0.11-0.17-0.22-0.33-0.32-0.5c-0.16-0.21-0.31-0.43-0.47-0.65c-0.45-1.72-0.97-3.44-1.28-5.23c-0.08-0.42-0.17-0.84-0.24-1.26
		L20.37,9.6c0,0.43,0.03,0.86,0.05,1.3c0,0,0.24,1.27,0.24,1.27c0.33,1.43,0.61,2.9,1,4.34c-1.83-2.6-3.67-5.48-5.36-8.05
		c-0.19-0.24-0.71-0.9-0.91-1.13l-0.16-0.18c-0.06-0.05-0.11-0.14-0.19-0.14c0.11,0.03,0.22,0.29,0.28,0.37
		c0.16,0.25,0.57,0.98,0.71,1.25l1.05,1.6c0.84,1.29,1.93,2.96,2.94,4.46c-1.2-1.53-2.39-3.07-3.52-4.66
		C14.13,6.82,11.97,3.27,9.65,0c1.87,3.61,4.25,6.91,6.59,10.22c1.85,2.5,3.68,5.04,5.75,7.37c0,0.01,0,0.02,0.01,0.02
		c-1.05-1.14-2.1-2.28-3.06-3.5c-1.45-1.72-2.76-3.7-4.31-5.34c1.08,1.97,2.67,3.79,4.06,5.55c0.62,0.76,1.25,1.51,1.9,2.24
		c-1.68-1.46-3.39-2.89-4.99-4.35c-2.01-1.78-4.18-3.78-6.15-5.62l-2.12-1.8c2.42,2.74,5.36,5.21,8.06,7.67
		c1.95,1.7,3.94,3.51,5.99,5.18c-0.01-0.01-0.02-0.01-0.03-0.02c-1.34-0.79-2.65-1.64-3.91-2.56c-0.59-0.45-1.18-0.87-1.83-1.22
		c-1.64-1.39-3.23-2.83-4.81-4.29C9.64,8.44,7.98,6.92,6.71,5.88c2.38,2.72,5.26,5.2,7.96,7.59c1.39,1.2,2.8,2.37,4.27,3.48
		c0.64,0.48,1.3,0.96,1.98,1.39c-0.55-0.24-1.09-0.49-1.62-0.77c-1.54-0.75-2.99-1.81-4.56-2.51c0.32,0.3,0.67,0.57,1.01,0.84
		l1.12,0.68c0.75,0.45,1.51,0.87,2.29,1.27c0.41,0.2,0.82,0.41,1.24,0.61c-0.19-0.02-0.38-0.04-0.57-0.05
		c-2.4-1.11-4.66-2.5-6.89-3.92c-3.34-2.1-6.59-4.6-9.91-6.74c3.02,2.63,6.39,4.82,9.73,7.01c1.69,1.08,3.4,2.12,5.17,3.06
		c0.08,0.04,0.17,0.09,0.25,0.13c-1.48-0.47-2.93-1.03-4.35-1.67c-0.52-0.23-1.03-0.46-1.54-0.7l-1.59-0.6
		c1.88,1.28,4.05,2.06,6.16,2.87c0.52,0.18,1.04,0.36,1.57,0.53c-0.24,0-0.49,0.01-0.73,0.02c-2.12-0.81-4.19-1.73-6.2-2.77
		c-3.33-1.66-6.46-3.68-9.71-5.47c2.96,2.28,6.27,4.03,9.57,5.76c1.62,0.8,3.27,1.62,4.96,2.31c-0.27-0.04-0.55-0.07-0.82-0.11
		c-0.96-0.1-1.94-0.22-2.93-0.32c-2.62-0.83-5.16-1.89-7.74-2.81c1.98,1.13,4.12,1.96,6.29,2.67c-1.43-0.12-2.85-0.2-4.25-0.13
		c1.87,0.29,3.81,0.43,5.73,0.61c0.3,0.09,0.61,0.19,0.91,0.28c-3.46-0.12-6.99-0.29-10.32-1.31c-0.95-0.27-1.96-0.54-2.7-1.22
		c2.35,2.57,9.71,2.69,13.12,2.85c0,0,0.66,0.01,1.11,0.01c0.68,0.18,1.36,0.35,2.05,0.5c-0.46-0.02-0.91-0.05-1.36-0.08
		c-2.82-0.14-5.62-0.52-8.44-0.68c2.52,0.66,5.15,0.77,7.74,0.95c-2.49,0.07-6.08,0.01-8.45,0.37c1.25,0.09,3.07,0.09,4.33,0.03
		l4.33-0.08c1.49-0.04,3.01-0.02,4.53-0.02c0.15,0.02,0.3,0.04,0.46,0.06c-0.95,0.07-1.92,0.13-2.82,0.17
		c-1.66,0.11-3.34,0.04-4.99,0.18c-0.09,0-0.29,0.02-0.43,0.03c0.02,0,0.04-0.01,0.05-0.01c-0.05,0-0.13-0.01-0.17,0.01
		c-0.01,0-0.01,0.02-0.01,0.03c0,0.01,0.02,0.02,0.02,0.02c0.12,0.05,0.42,0.07,0.54,0.1l0.72,0.08c2.84-0.01,5.74-0.16,8.57-0.39
		c0.1-0.02,0.2-0.04,0.3-0.06c-0.17,0.06-0.34,0.13-0.5,0.2c-3.02,0.2-6.04,0.49-9.08,0.53C8.07,20.79,4.03,20.61,0,20.31
		c3.97,0.87,8.08,0.72,12.12,0.68c2.53-0.08,5.06-0.18,7.58-0.42c-2.79,0.45-5.61,0.99-8.37,1.33C7.56,22.44,3.77,22.67,0,23.14
		c3.81,0.1,7.59-0.47,11.36-0.93c1.7-0.25,3.4-0.48,5.09-0.76c-0.6,0.17-1.2,0.33-1.8,0.5c-2.7,0.8-5.57,1.52-8.22,2.53
		c-0.65,0.15-1.29,0.3-1.91,0.44c0,0-2.73,0.75-2.73,0.75c3.68-0.48,7.44-1.54,11.04-2.42c1.55-0.42,3.15-0.81,4.74-1.24
		c-1.6,0.53-3.18,1.08-4.48,1.49c-2.89,0.99-7.28,2.3-10.05,3.5c2.96-0.69,7.23-2.26,10.15-3.2c1.13-0.39,2.49-0.82,3.9-1.28
		c-0.04,0.03-0.08,0.06-0.12,0.09c-1.5,0.56-2.95,1.11-4.18,1.55c-3.11,1.18-7.83,2.78-10.81,4.17c3.18-0.89,7.77-2.74,10.92-3.86
		c0.41-0.16,0.85-0.32,1.31-0.49c-0.43,0.2-0.85,0.4-1.24,0.58c-3,1.48-7.58,3.52-10.42,5.23c3.08-1.23,7.51-3.52,10.55-4.94
		c0.59-0.28,1.51-0.71,2.53-1.19c-0.65,0.53-1.29,1.08-1.92,1.63c-2.57,2.41-5.1,4.94-7,7.93c2.34-2.63,4.59-5.34,7.22-7.69
		c0.98-0.9,2-1.73,3.07-2.52c0.18-0.08,0.36-0.17,0.54-0.25c0.36-0.13,0.73-0.27,1.1-0.41c-0.69,0.48-1.37,0.98-2.03,1.51
		c-2.17,1.76-4.36,3.55-6.1,5.75c2.14-1.79,4.09-3.8,6.3-5.5c1.02-0.81,2.09-1.57,3.19-2.27c0.33-0.13,0.65-0.25,0.97-0.38
		c-0.97,0.71-1.89,1.5-2.81,2.27c-1.79,1.6-3.64,3.17-5.07,5.11l1.36-1.18c0.42-0.43,0.84-0.85,1.27-1.26
		c0.25-0.24,0.51-0.48,0.76-0.72c-0.28,0.33-0.56,0.66-0.83,1.01c0.37-0.27,0.72-0.55,1.08-0.81l0.98-0.92
		c0.22-0.22,0.45-0.43,0.68-0.64c-0.5,0.5-0.99,1-1.49,1.48c-1.86,1.94-4.79,4.71-6.41,6.82c1.03-0.88,2.43-2.25,3.36-3.26
		l3.28-3.34c1.48-1.49,3.11-3.1,4.64-4.58c0.24-0.2,0.48-0.41,0.72-0.62c0.04-0.02,0.09-0.04,0.13-0.06
		c-0.06,0.06-0.13,0.12-0.19,0.18c-0.98,0.93-1.93,1.89-2.87,2.86l-0.7,0.73c-0.19,0.28-0.39,0.56-0.57,0.85
		c0.28-0.2,0.54-0.42,0.81-0.63l0.7-0.73c0.78-0.86,1.63-1.65,2.46-2.45c-0.26,0.29-0.51,0.58-0.75,0.86
		c-0.58,0.67-1.2,1.44-1.74,2.14c-0.11,0.2-0.22,0.42-0.31,0.63c-0.02,0.07-0.08,0.15-0.05,0.22c0.01-0.09,0.22-0.26,0.29-0.34
		c0,0,0.33-0.32,0.33-0.32c0.93-1.21,1.92-2.38,2.94-3.51l0.62-0.67l0.17-0.24c0.03,0.01,0.06,0.01,0.09,0.02
		c0.07,7.63,0.16,21.59,0.02,37.33c-0.24,0.23-0.5,0.66-0.65,1.48c-0.25,1.41-0.5,4.6-0.49,7.97l-0.01,0.47
		c-0.05,2.18-0.15,6.24,1.35,6.46c0.08,0.01,0.15,0.02,0.22,0.02c0.57,0,0.89-0.4,1.26-1.58c0.38-1.2,0.48-5.3,0.25-10.2
		c-0.14-3-0.57-4.15-0.93-4.59c0.03-14.56-0.18-27.7-0.34-35.67l0.26,0.72l0.48,1.32l0.24,0.66c0.13,0.2,0.25,0.41,0.39,0.6
		c-0.02-0.24-0.06-0.48-0.09-0.71l-0.24-0.66l-0.48-1.32L24.7,21.7c0.18,0.3,0.37,0.59,0.54,0.88c0.56,0.79,1.05,1.7,1.91,2.19
		l-0.36-0.64c-0.16-0.18-0.3-0.37-0.45-0.56c-0.58-0.69-0.99-1.43-1.39-2.15c1.51,1.55,3.23,2.95,4.83,4.35
		c2.07,1.69,4.08,3.49,6.45,4.75c-2.04-1.72-4.22-3.25-6.24-5c-1.8-1.48-3.53-3.18-5.36-4.67c-0.05-0.08-0.1-0.16-0.15-0.24
		c0-0.05,0-0.1,0-0.15c0.12,0.05,0.23,0.11,0.35,0.16c0.09,0.1,0.18,0.2,0.27,0.3c1.3,1.19,2.72,2.32,4.16,3.34
		c1.96,1.33,3.91,2.73,6.15,3.55c-1.96-1.32-4.05-2.42-5.96-3.81c-1.05-0.74-2.08-1.54-3.07-2.38c2.13,1.47,4.38,2.83,6.51,4.21
		c2.74,1.68,6.75,4.36,9.6,5.77c-2.58-1.88-6.71-4.3-9.43-6.04c-0.45-0.29-0.92-0.58-1.38-0.88c0.59,0.32,1.19,0.64,1.78,0.95
		c3.37,1.67,6.81,3.33,10.49,4.15c-3.5-1.36-7.01-2.69-10.35-4.44c-1.47-0.73-2.88-1.54-4.28-2.39c0.12,0.06,0.23,0.12,0.35,0.17
		c2.08,0.94,4.14,2,6.38,2.52c-2-1.04-4.23-1.81-6.24-2.81c-0.74-0.34-1.46-0.71-2.18-1.1c0.17,0.06,0.34,0.11,0.51,0.17
		c1.65,0.76,3.33,1.46,5,2.18c3.26,1.32,6.5,2.77,9.93,3.61c-3.24-1.38-6.57-2.51-9.81-3.91c-0.83-0.34-1.66-0.7-2.48-1.07
		c1.17,0.34,2.36,0.65,3.53,0.97c3.55,0.86,7.11,1.79,10.76,2.09c-3.55-0.87-7.15-1.47-10.68-2.41c-2.05-0.5-4.06-1.12-6.07-1.77
		c-0.27-0.12-0.53-0.24-0.8-0.36c1.79,0.57,3.61,1.04,5.42,1.54c3.14,0.78,6.3,1.63,9.54,1.88c-3.13-0.81-6.33-1.33-9.45-2.19
		c-0.26-0.06-0.51-0.13-0.77-0.2c0.69,0.15,1.37,0.29,2.06,0.45c3.52,0.69,7.19,1.55,10.77,1.87l-2.66-0.63l-2.68-0.49
		c-2.03-0.36-4.04-0.77-6.05-1.21c1.94,0.34,3.89,0.63,5.86,0.62c-1.28-0.28-2.72-0.49-3.99-0.66c-1.12-0.15-2.24-0.34-3.35-0.55
		c2.05,0.15,4.12,0.26,6.15-0.06c-3.04-0.16-6.12-0.13-9.14-0.57c-0.1-0.02-0.21-0.05-0.31-0.07c2.05,0.12,4.11,0.18,6.17,0.2
		C38.74,21.19,42.6,21.29,46.25,20.87z M15.13,18.41c0,0-0.17,0-0.4,0c-0.16-0.04-0.32-0.09-0.48-0.13c0.4,0.04,0.81,0.09,1.21,0.14
		C15.35,18.42,15.24,18.42,15.13,18.41z M18.9,21.31c-2.05,0.56-4.18,1.12-6.15,1.63c-0.78,0.2-1.6,0.41-2.42,0.61
		c1.48-0.44,2.95-0.9,4.41-1.29c1.55-0.46,3.12-0.85,4.68-1.26C19.25,21.1,19.07,21.21,18.9,21.31z M23.24,19.24L23.24,19.24
		C23.23,19.24,23.23,19.24,23.24,19.24C23.23,19.24,23.23,19.24,23.24,19.24z M22.65,18.65c0.18,0.14,0.36,0.27,0.53,0.4l0.03,0.14
		c-0.09-0.02-0.18-0.03-0.28-0.05c-0.09-0.03-0.18-0.07-0.27-0.1c-0.03-0.14-0.06-0.28-0.09-0.42
		C22.61,18.63,22.63,18.64,22.65,18.65z M22.98,19.53c-0.07-0.01-0.13-0.01-0.2-0.02c0,0,0-0.01,0-0.01
		C22.84,19.51,22.91,19.52,22.98,19.53z M22.69,19.69c0.03,0,0.05,0.01,0.08,0.02c-0.11,0-0.21-0.01-0.32-0.01
		C22.53,19.69,22.61,19.69,22.69,19.69z M22.38,19.48c-0.07-0.02-0.14-0.04-0.22-0.07c0.2,0.03,0.39,0.06,0.59,0.09
		c0,0,0,0.01,0.01,0.01c-0.01,0-0.03,0-0.04,0C22.6,19.5,22.49,19.49,22.38,19.48z M19.07,19.32c-1.01-0.16-2.02-0.35-3.02-0.58
		c0.53,0,1.05-0.02,1.58-0.03c0.67,0.24,1.34,0.45,2.02,0.63C19.46,19.34,19.26,19.33,19.07,19.32z M20.49,19.38
		c-0.42-0.14-0.84-0.28-1.26-0.43c0.58,0.09,1.17,0.19,1.75,0.28c0.2,0.07,0.41,0.14,0.61,0.2C21.23,19.41,20.86,19.39,20.49,19.38z
		 M19.14,16.69c-0.22-0.17-0.44-0.34-0.66-0.51c0.24,0.16,0.48,0.32,0.71,0.48c1.03,0.63,2.03,1.35,3.13,1.85
		c0.06,0.16,0.13,0.31,0.2,0.47c-0.02-0.01-0.05-0.02-0.07-0.03C21.29,18.29,20.23,17.45,19.14,16.69z M21.42,20.64
		c-0.29,0.06-0.49,0.11-0.49,0.11c-0.29,0.08-0.59,0.16-0.89,0.24c0.16-0.09,0.31-0.19,0.47-0.27c0.53-0.14,1.06-0.28,1.59-0.43
		c0.04,0,0.07-0.01,0.11-0.01C21.95,20.38,21.68,20.51,21.42,20.64z M22.87,20.55c-0.02,0.01-0.05,0.01-0.07,0.02
		c0.08-0.06,0.17-0.12,0.26-0.17C22.99,20.45,22.93,20.5,22.87,20.55z M23.08,19.89c-0.37,0.06-0.75,0.12-1.12,0.19
		c-0.11,0.01-0.22,0.01-0.32,0.02c0.13-0.07,0.22-0.11,0.42-0.22c0.36,0,0.73-0.02,1.09-0.05C23.13,19.85,23.1,19.87,23.08,19.89z
		 M23.23,19.77c-0.19-0.01-0.38-0.02-0.58-0.03c0.04-0.01,0.08-0.02,0.12-0.03c0.15,0.02,0.31,0.04,0.46,0.05
		C23.24,19.76,23.24,19.77,23.23,19.77z M23.26,19.87c0.01-0.02,0.03-0.03,0.04-0.05c0.01,0,0.02,0,0.03,0c0,0.01,0,0.03,0,0.04
		C23.31,19.86,23.28,19.86,23.26,19.87z M23.35,19.67c-0.02,0.02-0.04,0.04-0.07,0.05c-0.08-0.02-0.17-0.04-0.25-0.06
		c0.11-0.01,0.22-0.01,0.32-0.02C23.35,19.66,23.35,19.67,23.35,19.67z M24.47,20.35c0-0.02,0-0.04,0-0.06
		c0.01,0,0.03,0.01,0.04,0.01c0.02,0.01,0.03,0.03,0.05,0.04c0,0.01,0.01,0.01,0.01,0.02C24.54,20.35,24.5,20.35,24.47,20.35z
		 M24.55,19.98C24.55,19.98,24.55,19.98,24.55,19.98c0.01,0,0.03,0.01,0.04,0.02C24.58,20,24.57,19.99,24.55,19.98z M24.58,19.39
		c-0.03,0.04-0.05,0.08-0.08,0.12c-0.02-0.03-0.04-0.05-0.06-0.08c0-0.02,0-0.04,0-0.06c0.05-0.02,0.08-0.03,0.15-0.06
		C24.59,19.34,24.59,19.37,24.58,19.39z"/>
</g>
</svg>
