<?xml version="1.0" encoding="utf-8"?>
<!-- Generator: Adobe Illustrator 26.3.1, SVG Export Plug-In . SVG Version: 6.00 Build 0)  -->
<svg version="1.1" id="Layer_1" xmlns="http://www.w3.org/2000/svg" xmlns:xlink="http://www.w3.org/1999/xlink" x="0px" y="0px"
	 viewBox="0 0 38.02 55.41" enable-background="new 0 0 38.02 55.41" xml:space="preserve">
<path fill="#FFFFFF" d="M34.34,23.81l2.35,0.66c-2.94-1.26-6.18-2.18-9.23-3.12c-2.09-0.6-4.19-1.24-6.32-1.71
	c0.75,0.1,1.49,0.22,2.23,0.38c2.08,0.39,4.15,1.13,6.22,1.6c-1.95-0.91-4.07-1.39-6.17-1.85c-0.19-0.04-0.38-0.07-0.58-0.11
	c1.28,0.09,2.56,0.19,3.8,0.36c1.54,0.18,3,0.55,4.49,0.98c1.49,0.4,3.03,0.65,4.57,0.65c-1.52-0.24-3.02-0.54-4.51-0.9
	c-1.48-0.43-2.98-0.81-4.52-0.99c-1-0.13-2.06-0.23-3.12-0.31c0.31,0.02,0.62,0.03,0.93,0.06c2.26,0.11,4.58,0.46,6.84,0.56
	c-2.23-0.56-4.54-0.64-6.83-0.81c-0.39-0.02-0.78-0.04-1.16-0.06c1.51-0.09,3.02-0.23,4.52-0.36c3.34-0.35,6.86-0.65,10.15-1.37
	c-3.36,0.27-6.83,0.82-10.18,1.11c-2.56,0.26-5.12,0.38-7.69,0.51c-0.41,0-0.82,0.01-1.23,0.03c-0.08-0.01-0.16-0.01-0.24-0.02
	c0,0-0.01,0-0.01,0l0.85-0.14l2.62-0.43l2.62-0.43l1.31-0.21c0.43-0.11,0.86-0.22,1.29-0.34c-0.45,0.02-0.89,0.06-1.33,0.09
	l-1.31,0.22l-2.62,0.43l-2.62,0.43l-1.03,0.17c0.07-0.01,0.13-0.03,0.2-0.04l0.96-0.18c3.15-0.75,6.36-1.24,9.56-1.69l1.93-0.25
	l1.92-0.36c-2.56,0.06-5.21,0.55-7.73,0.93c-0.82,0.15-1.65,0.28-2.47,0.43c1.74-0.43,3.49-0.84,5.26-1.17l1.84-0.36l1.82-0.46
	c-2.46,0.2-4.98,0.84-7.38,1.35c-0.87,0.21-1.74,0.41-2.6,0.62c1.58-0.5,3.17-0.98,4.76-1.3c3.02-0.49,6.21-1.12,9.13-2.07
	c-1.36,0.23-3.25,0.64-4.58,0.95c-1.53,0.34-3.04,0.64-4.59,0.87c-2.06,0.45-4.1,1.02-6.08,1.72c0.99-0.43,1.98-0.85,2.97-1.24
	c2.03-0.85,4.24-1.56,6.22-2.54c-2.14,0.55-4.26,1.51-6.32,2.3c-1.93,0.81-3.92,1.53-5.75,2.57c-0.01-0.02-0.02-0.04-0.03-0.05
	c0.33-0.22,0.7-0.5,1.03-0.71c1.55-1.03,3.34-1.59,4.95-2.51c-0.31,0.06-0.61,0.14-0.91,0.22l-0.86,0.36
	c-0.57,0.25-1.13,0.51-1.69,0.79c-0.18,0.09-0.35,0.18-0.53,0.28c1.78-1.14,3.78-1.9,5.69-2.82c-1.48,0.26-2.83,0.99-4.17,1.65
	c-1.24,0.69-2.55,1.38-3.48,2.46c-0.03,0.04-0.06,0.07-0.09,0.11c-0.01,0.01-0.02,0.03-0.04,0.04c0,0-0.01-0.01-0.01-0.01
	c0.9-1.03,1.56-2.25,2.31-3.39c0.41-0.66,1.48-2.38,1.86-3.02c0.17-0.36,0.34-0.71,0.5-1.08c-0.25,0.31-0.48,0.63-0.72,0.94
	l-0.61,1.01l-1.25,2.01c-0.19,0.31-0.39,0.62-0.58,0.92c0.58-1.03,1.11-2.09,1.67-3.12c1.04-2.06,2.24-4.17,3.03-6.33
	c-0.54,0.86-1.23,2.16-1.67,3.09c-1.49,3.01-3.11,5.96-4.78,8.87c0,0,0,0,0,0c0.1-0.4,0.35-0.77,0.52-1.13
	c0.43-0.83,1.28-2.51,1.69-3.35c0.29-0.56,0.55-1.13,0.71-1.74c-0.67,0.87-1.26,2.33-1.78,3.3l-0.85,1.67
	c-0.05,0.11-0.16,0.31-0.24,0.47c0.17-0.57,0.44-1.13,0.61-1.69c0.72-2.04,1.38-4.09,1.95-6.18c0.3-1.04,0.54-2.09,0.64-3.18
	c-0.67,2.05-1.13,4.16-1.8,6.21c-0.32,1.03-0.67,2.05-1.03,3.06c-0.27,0.74-0.63,1.55-0.63,2.36c0,0.04,0,0.08,0,0.12
	c-0.04-0.08-0.09-0.16-0.13-0.23c-0.05-0.24-0.07-0.49-0.09-0.74c0.15-0.37,0.3-0.74,0.44-1.11c0.98-3,1.63-6.23,2.27-9.33
	c0.15-0.78,0.35-1.56,0.44-2.37c0.17-1.61,0-3.23-0.45-4.78c0.2,1.57,0.33,3.17,0.19,4.75c-0.18,1.36-0.66,3.32-0.92,4.69
	c-0.49,2.34-1.04,4.67-1.77,6.95c-0.07,0.28-0.15,0.55-0.23,0.83c-0.02-0.17-0.05-0.34-0.07-0.51c0.51-1.59,0.91-3.24,1.34-4.82
	c0.57-2.32,1.3-4.73,1.61-7.1c-0.75,2.27-1.22,4.73-1.86,7.04c-0.36,1.39-0.78,2.89-1.19,4.31c-0.04-0.2-0.07-0.4-0.1-0.6
	c-0.38-2.16-1.02-5.21-1.48-7.38c-0.22-1.11-0.57-2.59-0.93-3.65c0.06,0.51,0.16,1.13,0.27,1.75c-0.25-1.23-0.53-2.42-0.84-3.37
	c0.13,1.12,0.42,2.73,0.67,3.85l0.76,3.83c0.41,2.06,0.74,4.12,1.11,6.18c-0.29-0.58-0.57-1.18-0.81-1.78l-0.29-0.71
	c-0.13-0.22-0.26-0.45-0.4-0.67c0.04,0.26,0.1,0.51,0.16,0.76l0.29,0.71c0.37,0.87,0.75,1.72,1.2,2.55c0,0.02-0.01,0.04-0.01,0.06
	c-0.05-0.1-0.11-0.2-0.16-0.31c-0.85-1.54-1.65-3.14-2.21-4.81c-0.82-3.06-0.72-6.36-1.07-9.49c-0.09,1.42-0.06,2.85,0.06,4.27
	c0.12,1.6,0.26,3.21,0.63,4.77c0.49,1.85,1.38,3.56,2.29,5.24c-0.18-0.17-0.37-0.35-0.55-0.52c-1.66-2.72-2.26-6.63-2.57-9.42
	c-0.05-0.34-0.1-0.68-0.16-1.01c0-0.03,0-0.05,0-0.08c0,0.01,0,0.02,0,0.03c-0.04-0.25-0.08-0.5-0.12-0.75
	c0,0.53,0.01,1.05,0.02,1.58c-0.02,0.2-0.04,0.41-0.07,0.61c0.02,2.44,0.27,4.96,1.16,7.25c0.02,0.04,0.04,0.09,0.05,0.13
	c-0.93-1.3-1.63-2.75-2.36-4.18c0.18,0.88,0.54,1.7,0.99,2.47c0.26,0.47,0.54,0.94,0.85,1.39c-0.57-0.52-1.16-1.04-1.75-1.57
	c-0.09-0.14-0.19-0.29-0.28-0.43c-1.64-2.57-3.35-5.09-5.36-7.38c0.72,1.14,1.81,2.67,2.6,3.74c0.8,1.13,1.6,2.27,2.33,3.44
	c-2.06-1.81-4.2-3.58-6.45-4.9c1.57,1.36,3.46,2.66,5.03,3.99c0.57,0.5,1.22,1.08,1.92,1.7c0.1,0.16,0.21,0.32,0.32,0.48
	c-1.48-1.23-2.96-2.47-4.68-3.34c1.81,1.37,3.6,2.78,5.35,4.24c0,0,0.01,0.01,0.01,0.01c-0.39-0.27-0.78-0.55-1.17-0.82
	c-2.33-1.56-4.73-3.28-7.24-4.54c2.27,1.66,4.8,3.14,7.09,4.76c0.66,0.45,1.31,0.91,1.96,1.38c0.18,0.21,0.37,0.42,0.55,0.62
	c-0.91-0.61-1.83-1.2-2.74-1.8c-2.22-1.39-4.52-2.9-6.91-4.04C2.89,9.82,2.38,9.25,1.84,8.7c0.77,1.12,1.63,2.18,2.55,3.18
	c-0.29-0.1-0.58-0.18-0.88-0.26c0.37,0.17,0.74,0.34,1.12,0.51c0.37,0.4,0.74,0.78,1.12,1.16L5.15,13c0.36,0.28,0.73,0.54,1.1,0.8
	c0.08,0.07,0.15,0.15,0.23,0.22c1.17,1.02,2.46,1.88,3.82,2.61c-1.64-0.8-3.21-1.75-4.86-2.55c1.67,1.32,3.62,2.22,5.53,3.15
	c0.18,0.08,0.36,0.16,0.54,0.24c-0.65-0.26-1.3-0.53-1.94-0.82c-2.49-1.13-4.94-2.42-7.6-3.12c1.09,0.53,2.66,1.18,3.77,1.64
	c1.26,0.53,2.47,1.16,3.73,1.72c1.94,0.82,3.95,1.74,6.05,2.08c0.1,0.03,0.21,0.05,0.32,0.07c-0.09,0.01-0.14,0.01-0.14,0.01
	c-0.02,0-0.04,0.01-0.07,0.01c-0.82-0.11-1.64-0.35-2.45-0.52c-2.47-0.64-4.81-1.65-7.12-2.71c-1.01-0.48-2.49-1.11-3.53-1.47
	c0.97,0.58,2.38,1.26,3.43,1.71c2.18,1,4.39,1.95,6.71,2.6c-1.51-0.38-3-0.87-4.46-1.41c-0.46-0.17-0.93-0.35-1.38-0.53l-1.42-0.45
	c1.72,1,3.65,1.57,5.54,2.18c0.54,0.15,1.08,0.31,1.62,0.45c-4.1-0.79-8.01-2.49-11.85-4.12c2.45,1.49,5.18,2.48,7.9,3.38
	c1.14,0.34,2.31,0.68,3.49,0.93c-1.23-0.13-2.46-0.36-3.65-0.71C5.67,17.59,2.87,16.85,0,16.68c1.4,0.31,2.8,0.6,4.2,0.88
	c1.4,0.3,2.78,0.65,4.15,1.06c1.31,0.36,2.66,0.63,4.02,0.77c-2.72,0.14-5.45-0.08-8.12-0.66c2.04,0.88,4.33,0.93,6.52,0.97
	c0.67-0.01,1.35-0.03,2.02-0.08c-2.27,0.27-4.55,0.44-6.82,0.57L4.1,20.3l-1.87,0.21c2.47,0.14,5.05-0.14,7.51-0.31
	c1.93-0.19,3.9-0.32,5.81-0.72l0,0c-0.22,0.11-0.44,0.22-0.65,0.33c-2.1,0.45-4.18,0.94-6.31,1.25l-1.44,0.22l-1.43,0.33
	c1.92-0.02,3.9-0.48,5.79-0.81c0.81-0.17,1.64-0.33,2.45-0.5c-0.23,0.12-0.45,0.24-0.67,0.37c-0.38,0.2-0.73,0.46-0.99,0.81
	c0.79-0.32,1.45-0.83,2.24-1.2c0.14-0.07,0.28-0.14,0.42-0.22c0.34-0.09,0.67-0.18,1-0.28c-0.01,0.01-0.02,0.02-0.03,0.03
	c-0.14,0.06-0.27,0.12-0.41,0.18c-1.04,0.59-2.19,1.25-3.22,1.83c-1.45,0.78-3.04,1.26-4.48,2.05c0.4-0.09,0.8-0.21,1.2-0.32
	l1.15-0.47c1.7-0.66,3.31-1.62,4.9-2.53c-0.24,0.2-0.48,0.4-0.73,0.58c-0.86,0.71-1.84,1.26-2.64,2.04c0.26-0.1,0.52-0.23,0.77-0.35
	l0.69-0.48c0.8-0.62,1.66-1.21,2.44-1.88c-0.86,0.82-1.78,1.67-2.64,2.45l-2.03,1.83l-1.02,0.91c-0.31,0.33-0.63,0.66-0.94,1
	c0.38-0.26,0.74-0.54,1.11-0.81c0.65-0.58,2.39-2.14,3.06-2.74c1.12-1.05,2.34-2.09,3.38-3.25c-0.9,2.42-3.94,10.38-7.93,20.89
	c-0.28,0.14-0.62,0.44-0.99,1.08c-0.68,1.17-1.93,3.91-3,6.88l-0.16,0.42c-0.75,1.91-2.14,5.47-0.88,6.14
	c0.07,0.04,0.13,0.06,0.19,0.09c0.51,0.19,0.91-0.06,1.62-0.99c0.72-0.94,2.13-4.53,3.5-8.93c0.83-2.66,0.83-3.82,0.66-4.34
	c3.85-10.55,6.72-18.59,7.56-21.1c0.03,0.3,0.05,0.59,0.09,0.89c-0.05,1.87-0.36,3.71-0.85,5.52c-0.1,0.37-0.2,0.73-0.31,1.09
	l-0.22,1.13c0.69-1.37,0.97-2.9,1.28-4.39c0.08-0.52,0.18-1.04,0.25-1.57c0.01,0.2,0.01,0.4,0.01,0.61
	c0.05,1.35-0.16,2.68-0.12,4.03c0.42-1.3,0.36-2.68,0.38-4.03c-0.02-0.53-0.03-1.07-0.07-1.61c0.09,0.49,0.17,1.02,0.23,1.51
	c0.07,0.18,0.12,0.37,0.2,0.55c0.03-0.2,0.04-0.39,0.06-0.58l-0.08-0.57c-0.03-0.17-0.05-0.35-0.08-0.52
	c0.07,0.21,0.14,0.43,0.2,0.63l0.46,1.49l0.22,0.75c0.11,0.24,0.22,0.48,0.34,0.71c-0.02-0.27-0.06-0.53-0.09-0.79l-0.22-0.75
	l-0.46-1.5c-0.16-0.52-0.34-1.07-0.52-1.6c0.42,0.89,0.86,1.77,1.23,2.68c0.66,1.45,1.13,2.98,1.88,4.32
	c-0.09-0.39-0.2-0.77-0.3-1.15l-0.43-1.1c-0.29-0.73-0.59-1.46-0.91-2.18c-0.37-0.81-0.71-1.65-1.11-2.45
	c0.04,0.06,0.08,0.11,0.12,0.17c0.17,0.32,0.33,0.61,0.43,0.81c0.55,1.03,1.05,2.08,1.51,3.15c0.68,1.55,1.35,3.28,1.95,4.87
	l0.72,1.6c-0.57-2.27-1.53-4.42-2.43-6.58c-0.34-0.79-0.71-1.58-1.1-2.36c0.5,0.72,0.99,1.45,1.43,2.26
	c0.18,0.32,0.37,0.64,0.54,0.96l0.63,0.91c-0.24-0.74-0.59-1.42-0.99-2.09c0.34,0.45,0.67,0.91,0.97,1.39
	c0.26,0.4,0.5,0.81,0.75,1.23l0.82,1.19c-0.53-1.35-1.32-2.58-2.16-3.76c-0.57-0.71-1.14-1.42-1.68-2.15
	c0.72,0.83,1.47,1.64,2.13,2.51c1.54,1.96,2.69,4.17,3.78,6.4c-0.66-2.42-2.09-4.56-3.57-6.56c-1.15-1.49-2.45-2.82-3.61-4.3
	c-0.07-0.08-0.14-0.16-0.22-0.24c-0.06-0.1-0.12-0.21-0.18-0.31c0.3,0.23,0.6,0.45,0.9,0.68c0.28,0.25,0.56,0.5,0.85,0.75
	c0.08,0.09,0.14,0.16,0.19,0.21c1.72,1.93,3.36,3.94,4.93,6c0.68,0.92,1.63,2.18,2.38,3.07c-1.23-2.21-3.01-4.31-4.59-6.28
	c-0.54-0.65-1.08-1.3-1.63-1.94c0.51,0.41,1.01,0.82,1.52,1.24c1.93,1.49,3.81,3.08,5.97,4.24c-1.87-1.52-3.95-2.92-5.81-4.44
	c-0.49-0.38-0.98-0.78-1.46-1.19c0.71,0.49,1.42,0.98,2.13,1.47c2.25,1.51,4.49,3.28,6.83,4.67c-2.07-1.77-4.47-3.31-6.68-4.88
	c-1.31-0.88-2.62-1.83-3.94-2.74c-0.11-0.12-0.22-0.25-0.33-0.37c0.14,0.08,0.27,0.16,0.41,0.25c1.57,1.13,3.3,2.28,4.59,3.2
	c2.07,1.39,5.08,3.6,7.23,4.8c-1.92-1.57-5.04-3.57-7.08-5.01c-0.29-0.2-0.69-0.47-1.14-0.79c0.05,0.03,0.11,0.06,0.16,0.1
	l3.08,1.96c0.89,0.6,2.2,1.4,3.13,1.88c-1.61-1.33-4.31-2.91-6.07-4.06c-1.16-0.7-2.3-1.45-3.48-2.14c1.44,0.71,2.87,1.43,4.27,2.22
	c2.35,1.28,4.68,2.82,7.05,4.07c-2.12-1.64-4.61-2.97-6.93-4.3c-0.88-0.47-1.75-0.95-2.63-1.42c1.22,0.57,2.46,1.16,3.58,1.77
	c2.62,1.38,5.04,3.07,7.55,4.63c-2.53-2.17-5.48-3.82-8.41-5.38c-1.13-0.57-2.69-1.29-4.01-1.91c1.86,0.82,3.74,1.63,5.53,2.51
	c2.93,1.39,5.75,2.99,8.65,4.45c-2.66-1.87-5.63-3.24-8.53-4.69c-2.48-1.16-4.96-2.36-7.53-3.3c1.13,0.39,2.26,0.78,3.36,1.23
	c1.66,0.62,3.32,1.48,5.01,2c-1.47-0.92-3.31-1.57-4.92-2.24c-0.75-0.28-1.51-0.59-2.27-0.87c0.07,0.02,0.14,0.03,0.21,0.05
	c0.01,0,0.01,0.01,0.02,0.01c2.21,0.74,4.45,1.59,6.6,2.48c2.91,1.17,5.72,2.58,8.6,3.81c-1.34-0.83-2.75-1.53-4.18-2.17
	c-2.6-1.19-5.25-2.29-7.93-3.29c0.56,0.17,1.11,0.36,1.66,0.56c2.5,0.85,4.87,2.01,7.33,2.97c-2.19-1.34-4.61-2.24-7.01-3.13
	c2.33,0.65,4.65,1.34,6.95,2.1L34.34,23.81z M12.44,9.28c0.32,2.17,0.91,4.93,1.97,6.99c-0.17-0.15-0.33-0.3-0.49-0.43
	C12.97,13.8,12.56,11.53,12.44,9.28z M14.81,17.46c-0.25-0.18-0.49-0.36-0.74-0.53c-0.18-0.18-0.36-0.37-0.53-0.56
	c0.28,0.21,0.55,0.41,0.83,0.62c0,0,0,0,0,0C14.5,17.15,14.65,17.31,14.81,17.46z M12.15,14.73c-0.04-0.03-0.09-0.07-0.13-0.11
	c-0.11-0.14-0.21-0.27-0.31-0.41c0.6,0.54,1.21,1.09,1.8,1.61c0.06,0.08,0.12,0.15,0.18,0.23C13.17,15.6,12.66,15.16,12.15,14.73z
	 M3.56,10.56c2.16,1.4,4.48,2.69,6.61,4.09c0.7,0.44,1.39,0.89,2.07,1.36c-0.59-0.36-1.17-0.71-1.7-1.03
	c-1.83-1.02-3.64-2.17-5.61-2.91C4.46,11.57,4.01,11.06,3.56,10.56z M7.73,14.69c0.15,0.09,0.26,0.15,0.26,0.15
	c2.1,1.16,4.24,2.41,6.47,3.35C12.09,17.31,9.75,16.21,7.73,14.69z M8.12,14.62c-0.49-0.28-0.97-0.56-1.46-0.85l-0.15-0.07
	c-0.42-0.4-0.83-0.82-1.23-1.24c3.18,1.54,6.26,3.37,9.22,5.29c0.12,0.12,0.24,0.24,0.36,0.35C12.56,17.05,10.3,15.9,8.12,14.62z
	 M14.86,17.49c-0.03-0.05-0.06-0.1-0.09-0.15c0.11,0.1,0.22,0.2,0.34,0.31c0.03,0.03,0.05,0.05,0.08,0.08
	C15.07,17.65,14.97,17.57,14.86,17.49z M18.04,18.91c-0.02,0.01-0.04,0.01-0.05,0.02c0,0-0.01,0-0.01,0
	C18,18.92,18.02,18.91,18.04,18.91z M17.94,18.93c0.01,0,0.01,0,0.02,0.01c-0.08,0.03-0.17,0.06-0.26,0.09
	c0.08-0.02,0.16-0.03,0.24-0.05c-0.1,0.02-0.19,0.05-0.29,0.07c-0.04-0.01-0.08-0.02-0.12-0.02C17.67,19,17.8,18.96,17.94,18.93z
	 M17.85,19.28c-0.04-0.02-0.09-0.03-0.13-0.04c0.01,0,0.01,0,0.02,0C17.77,19.25,17.81,19.27,17.85,19.28z M17.51,19.34
	c0.05,0.04,0.1,0.08,0.15,0.13c-0.06-0.03-0.11-0.06-0.17-0.09C17.5,19.37,17.5,19.36,17.51,19.34z M17.45,19.63
	c0,0,0,0.01,0.01,0.01l-0.02-0.02C17.44,19.62,17.45,19.63,17.45,19.63z M17.4,19.51c0,0,0,0.01,0.01,0.01
	C17.4,19.52,17.4,19.52,17.4,19.51C17.4,19.52,17.4,19.51,17.4,19.51z M17.34,18.48c-0.04,0.07-0.08,0.13-0.12,0.2l0,0
	c-0.01,0-0.02,0-0.03-0.01C17.23,18.61,17.29,18.55,17.34,18.48z M16.73,18.76c-0.01,0.01-0.02,0.02-0.03,0.03
	c-0.04-0.03-0.08-0.07-0.13-0.11c-0.01-0.02-0.02-0.04-0.04-0.06C16.6,18.67,16.67,18.71,16.73,18.76z M16.47,19.26
	c0.01-0.01,0.02-0.02,0.03-0.02c0.01,0,0.03-0.01,0.04-0.01c0,0.01,0,0.02,0,0.03C16.52,19.26,16.5,19.26,16.47,19.26z M16.54,19.31
	c-0.01,0.01-0.02,0.01-0.02,0.02c-0.03,0-0.05,0-0.08,0C16.47,19.33,16.5,19.32,16.54,19.31z M16.55,18.44
	c-0.06-0.05-0.12-0.1-0.18-0.16c0,0,0-0.01,0-0.01c0.04,0.03,0.08,0.07,0.12,0.1C16.52,18.39,16.53,18.42,16.55,18.44z M16.38,17.25
	c0.03,0.17,0.06,0.33,0.1,0.49c-0.01,0.02-0.01,0.03-0.02,0.05c-0.06-0.1-0.11-0.21-0.16-0.31C16.33,17.41,16.36,17.33,16.38,17.25z
	 M15.06,10.52c-0.17-0.81-0.35-1.78-0.55-2.79c0.04,0.17,0.07,0.33,0.11,0.48l0.77,3.68c0.25,1.23,0.49,2.46,0.71,3.69
	c0.08,0.36,0.14,0.74,0.19,1.12c-0.04,0.12-0.07,0.25-0.11,0.37c0,0-0.01,0.05-0.03,0.14c0-0.01-0.01-0.01-0.01-0.02
	C15.98,14.95,15.45,12.74,15.06,10.52z M16.28,18.02c-0.03-0.03-0.06-0.06-0.1-0.09c0-0.03,0-0.06,0-0.09c0,0,0,0.01,0.01,0.01
	C16.22,17.91,16.25,17.97,16.28,18.02z M15.92,19.59c0.08-0.04,0.17-0.08,0.25-0.12c0.06,0,0.11,0,0.17,0
	c-0.02,0.02-0.04,0.03-0.06,0.05C16.15,19.54,16.03,19.56,15.92,19.59z M16.08,20c0.12-0.12,0.23-0.24,0.35-0.36
	c0.02-0.01,0.03-0.02,0.05-0.04c0.04-0.01,0.08-0.03,0.12-0.04c0,0.01-0.01,0.02-0.01,0.04C16.4,19.74,16.21,19.9,16.08,20z
	 M17.48,20c-0.05-0.07-0.1-0.14-0.15-0.22c-0.01-0.02-0.02-0.05-0.03-0.07c0.03,0.02,0.05,0.04,0.08,0.07
	c0.05,0.09,0.1,0.18,0.15,0.27C17.51,20.04,17.49,20.02,17.48,20z M17.74,19.87c-0.01-0.02-0.02-0.03-0.03-0.05
	c0.03,0.03,0.06,0.06,0.08,0.08C17.78,19.89,17.76,19.88,17.74,19.87z M17.71,19.63c-0.07-0.06-0.14-0.11-0.21-0.17
	c-0.01-0.01-0.01-0.02-0.02-0.03c0.12,0.07,0.23,0.15,0.35,0.24C17.79,19.66,17.75,19.64,17.71,19.63z M18.65,19.98
	c-0.17-0.11-0.27-0.17-0.54-0.34c0.3,0.16,0.59,0.32,0.89,0.48C18.88,20.07,18.76,20.03,18.65,19.98z M18.92,19.86
	c-0.42-0.17-0.83-0.34-1.25-0.5c-0.06-0.03-0.09-0.06-0.14-0.09c0-0.02,0.01-0.03,0.01-0.05C18,19.44,18.45,19.65,18.92,19.86z"/>
</svg>
