<?xml version="1.0" encoding="utf-8"?>
<!-- Generator: Adobe Illustrator 26.3.1, SVG Export Plug-In . SVG Version: 6.00 Build 0)  -->
<svg version="1.1" id="Layer_1" xmlns="http://www.w3.org/2000/svg" xmlns:xlink="http://www.w3.org/1999/xlink" x="0px" y="0px"
	 viewBox="0 0 37.34 55.77" enable-background="new 0 0 37.34 55.77" xml:space="preserve">
<g>
	<path fill="#FFFFFF" d="M29.77,14.68c0.02-0.01,0.04-0.02,0.07-0.03C29.8,14.66,29.78,14.67,29.77,14.68z"/>
	<path fill="#FFFFFF" d="M29.77,14.68C29.74,14.69,29.74,14.69,29.77,14.68L29.77,14.68z"/>
	<path fill="#FFFFFF" d="M37.12,23.91c-2.49-0.83-6.35-1.65-8.93-2.3c-2.22-0.52-5.36-1.36-7.84-1.85
		c-0.08-0.06-0.16-0.12-0.24-0.18c2.5,0.55,5.79,1.02,8.09,1.44c2.63,0.42,6.53,1.2,9.14,1.42c-2.56-0.65-6.48-1.2-9.1-1.67
		c-2.37-0.38-5.78-1.05-8.35-1.34c-0.07-0.05-0.15-0.11-0.22-0.16c-0.01-0.01-0.03-0.02-0.04-0.03c0.14,0.02,0.27,0.03,0.41,0.05
		c1.25,0.22,2.52,0.35,3.76,0.58c1.57,0.23,3.16,0.65,4.66,0.71c-0.37-0.13-0.75-0.23-1.13-0.35l-1.16-0.21
		c-0.77-0.14-1.55-0.27-2.32-0.4c-0.15-0.02-0.3-0.04-0.45-0.07c1.12,0.07,2.24,0.13,3.33,0.23c1.8,0.14,3.78,0.34,5.58,0.54
		l1.87,0.09c-2.4-0.53-4.99-0.66-7.43-0.89c-1.94-0.14-3.88-0.33-5.82-0.35c-0.38-0.04-0.75-0.07-1.13-0.07
		c0.08,0,0.16-0.01,0.25-0.01c1.97,0.11,3.94,0.13,5.91,0.28c2.22,0.11,4.53,0.44,6.76,0.42c-2.18-0.44-4.53-0.51-6.74-0.68
		c-1.2-0.06-2.4-0.16-3.6-0.19c2.01-0.18,4.14-0.43,5.79-0.58c2.61-0.29,6.53-0.57,9.08-1.04c-2.61,0.04-6.48,0.55-9.11,0.78
		c-2.28,0.25-5.55,0.5-8.04,0.87c-0.12,0.01-0.24,0.02-0.35,0.03c0.13-0.06,0.27-0.13,0.4-0.19c0.02,0,0.11-0.01,0.11-0.01
		c1.19-0.17,2.5-0.33,3.69-0.47l2.47-0.27l1.23-0.12c0.41-0.08,0.82-0.16,1.22-0.25c-0.42-0.02-0.83-0.01-1.25-0.01l-1.24,0.13
		l-2.47,0.27c-0.08,0.01-0.16,0.02-0.24,0.03c0.65-0.11,1.3-0.22,1.96-0.31c2.23-0.36,4.59-0.53,6.8-1.01
		c-2.26,0.02-4.6,0.45-6.84,0.75c-1.29,0.21-2.58,0.39-3.87,0.63c1.96-0.53,3.96-0.9,5.98-1.14c0.51-0.06,1.01-0.12,1.52-0.17
		l1.52-0.27c-2.05-0.07-4.09,0.31-6.11,0.65c-0.02,0-0.04,0.01-0.06,0.01c0.49-0.13,0.99-0.26,1.48-0.37
		c2.24-0.57,4.62-0.9,6.86-1.45c-2.35,0.1-4.64,0.68-6.92,1.19c-1.35,0.34-2.72,0.68-4.05,1.11l1.74-1.06l2.17-1.32l1.09-0.66
		c0.34-0.26,0.68-0.51,1.02-0.77c-0.39,0.17-0.77,0.37-1.15,0.55l-1.08,0.66l-2.17,1.32l-2.17,1.32l-0.64,0.39
		c-0.1,0.04-0.2,0.08-0.3,0.12c-0.08,0.03-0.16,0.06-0.24,0.09c0.98-1.08,1.94-2.18,2.93-3.24l1.78-1.9l0.9-0.94
		c0.27-0.34,0.54-0.68,0.81-1.03c-0.34,0.27-0.66,0.56-1,0.85c-0.57,0.6-2.09,2.22-2.68,2.84c-1.01,1.16-2.18,2.22-3.01,3.53
		c-0.15,0.06-0.29,0.13-0.44,0.2c-0.01-0.01-0.01-0.01-0.02-0.02c1.42-1.58,2.75-3.23,4.22-4.77c1.43-1.58,3.09-3.09,4.44-4.74
		c-1.68,1.33-3.16,3.02-4.63,4.56c-1.4,1.56-2.92,3.06-4.01,4.87c0.54-1.46,1-2.94,1.68-4.35c0.7-1.58,1.62-3.05,2.33-4.63
		c-1.1,1.35-1.81,2.96-2.56,4.52c-0.63,1.44-1.3,2.91-1.55,4.47c-0.03-0.02-0.06-0.04-0.1-0.05c-0.02-0.01-0.03-0.01-0.05-0.01
		c0.35-1.75,0.24-3.61,0.24-5.38l-0.04-0.98c-0.06-0.32-0.12-0.65-0.2-0.97l-0.06,0.98c0.02,0.32,0.03,0.65,0.04,0.97
		c0.11,1.85-0.1,3.6-0.08,5.36c-0.03,0-0.07,0-0.1,0.01c-0.01-0.04-0.03-0.08-0.04-0.13c0.01-0.11,0.04-0.36,0.04-0.36
		c0.06-0.6,0.11-1.2,0.13-1.81c0.03-0.31-0.01-0.62-0.15-0.91c-0.19,0.8-0.12,1.63-0.21,2.44c-0.04-0.16-0.07-0.31-0.11-0.47
		c-0.06-0.2-0.12-0.42-0.18-0.62c0.13-1.43,0.21-2.88,0.47-4.32c0.05-0.34,0.11-0.68,0.17-1.02l0.06-1.04
		c-0.12,0.33-0.22,0.66-0.32,1c0,0-0.17,1.03-0.17,1.03c-0.14,1.17-0.34,2.37-0.44,3.57c-0.67-2.48-1.27-5.17-1.84-7.6
		c-0.08-0.24-0.29-0.88-0.38-1.11l-0.08-0.18c-0.03-0.05-0.05-0.13-0.11-0.16c0.07,0.05,0.08,0.28,0.11,0.36
		c0.05,0.23,0.16,0.9,0.2,1.15l0.35,1.51c0.28,1.21,0.65,2.78,1,4.2c-0.49-1.49-0.97-2.99-1.39-4.51c-0.91-3.1-1.57-6.39-2.43-9.51
		c0.42,3.25,1.32,6.42,2.18,9.58c0.72,2.41,1.4,4.84,2.33,7.18c0,0.01,0,0.01,0,0.02c-0.48-1.16-0.96-2.31-1.35-3.5
		c-0.63-1.71-1.07-3.57-1.79-5.25c0.28,1.79,0.98,3.61,1.55,5.33c0.26,0.75,0.53,1.49,0.82,2.22c-0.87-1.57-1.77-3.13-2.59-4.68
		c-1.03-1.91-2.13-4.02-3.12-5.97L10.64,3c1.08,2.75,2.63,5.44,4,8.04c1.01,1.83,2.02,3.75,3.11,5.59
		c-0.01-0.01-0.01-0.01-0.02-0.02c-0.8-0.97-1.56-1.98-2.26-3.02c-0.32-0.5-0.66-0.98-1.05-1.43c-0.86-1.51-1.67-3.04-2.47-4.58
		c-0.58-1.17-1.42-2.78-2.09-3.92c1.05,2.72,2.56,5.4,3.95,7.96c0.72,1.29,1.47,2.58,2.28,3.82c0.36,0.54,0.72,1.09,1.12,1.61
		c-0.35-0.33-0.7-0.67-1.02-1.04c-0.96-1-1.77-2.2-2.77-3.16c0.16,0.32,0.35,0.61,0.53,0.92l0.66,0.82c0.45,0.55,0.91,1.08,1.38,1.6
		c0.25,0.26,0.51,0.54,0.77,0.8c-0.14-0.07-0.28-0.13-0.42-0.2c-1.51-1.51-2.85-3.19-4.15-4.88c-1.95-2.51-3.73-5.31-5.66-7.86
		c1.56,2.83,3.52,5.42,5.45,8.01c0.98,1.28,1.99,2.55,3.08,3.75c0.05,0.06,0.1,0.11,0.15,0.17c-0.99-0.77-1.94-1.59-2.84-2.47
		c-0.33-0.31-0.66-0.63-0.97-0.96l-1.04-0.9c1.07,1.49,2.5,2.68,3.88,3.88c0.35,0.28,0.69,0.56,1.05,0.84
		c-0.19-0.07-0.37-0.13-0.56-0.19c-1.38-1.2-2.7-2.47-3.94-3.81c-2.07-2.18-3.89-4.58-5.86-6.84c1.61,2.54,3.65,4.79,5.67,7.02
		c1.01,1.06,2.04,2.13,3.13,3.12c-0.2-0.1-0.4-0.2-0.59-0.31c-0.7-0.34-1.42-0.7-2.14-1.05c-1.76-1.35-3.39-2.86-5.1-4.27
		c1.19,1.41,2.59,2.62,4.03,3.76c-1.05-0.49-2.11-0.94-3.19-1.28c1.34,0.74,2.78,1.38,4.19,2.04c0.21,0.16,0.41,0.31,0.62,0.47
		c-2.59-1.05-5.23-2.16-7.47-3.84c-0.65-0.47-1.34-0.95-1.72-1.67c1.08,2.6,6.62,4.73,9.17,5.79c0,0,0.5,0.19,0.84,0.31
		c0.47,0.32,0.94,0.64,1.42,0.95c-0.34-0.14-0.68-0.29-1.01-0.44c-2.1-0.89-4.12-1.95-6.22-2.84c1.73,1.2,3.7,2,5.62,2.86
		c-1.91-0.64-4.62-1.67-6.52-2.06C6.6,14.5,7.98,15,8.96,15.31l3.31,1.13c1.14,0.38,2.29,0.82,3.44,1.24
		c0.11,0.06,0.22,0.11,0.33,0.17c-0.74-0.21-1.49-0.43-2.19-0.65c-1.29-0.37-2.54-0.89-3.84-1.24c-0.07-0.02-0.23-0.06-0.33-0.1
		c0.02,0,0.03,0,0.04,0c-0.04-0.01-0.09-0.04-0.13-0.04c-0.01,0-0.02,0.01-0.02,0.02c0,0.01,0.01,0.02,0.01,0.02
		c0.08,0.07,0.29,0.17,0.38,0.22l0.52,0.26c2.16,0.77,4.4,1.46,6.62,2.07c0.08,0.01,0.17,0.03,0.25,0.04
		c-0.15,0-0.29,0.01-0.44,0.01c-2.35-0.68-4.72-1.3-7.04-2.1c-3.1-1.02-6.12-2.28-9.09-3.62c2.77,1.75,5.93,2.78,9.01,3.86
		c1.94,0.63,3.89,1.26,5.87,1.77c-2.24-0.43-4.53-0.8-6.72-1.3c-3-0.63-5.95-1.5-8.94-2.18c2.86,1.13,5.89,1.75,8.88,2.44
		c1.36,0.28,2.71,0.57,4.08,0.83c-0.5-0.04-1.01-0.08-1.51-0.12c-2.27-0.14-4.65-0.39-6.94-0.35c-0.53-0.06-1.06-0.13-1.57-0.2
		l-2.28-0.18c2.93,0.65,6.07,0.89,9.05,1.21c1.29,0.11,2.61,0.25,3.94,0.37c-1.37-0.04-2.71-0.06-3.81-0.1
		c-2.47-0.05-6.16-0.27-8.6-0.12c2.44,0.29,6.11,0.28,8.59,0.38c0.97,0.02,2.12,0.06,3.31,0.1c-0.04,0.01-0.08,0.02-0.12,0.04
		c-1.3,0.01-2.55,0.03-3.61,0.02c-2.69,0.04-6.71-0.06-9.36,0.18c2.66,0.21,6.66,0.07,9.35,0.08c0.35,0,0.73-0.01,1.13-0.01
		c-0.38,0.04-0.75,0.07-1.1,0.1c-2.69,0.29-6.73,0.58-9.35,1.09c2.68-0.08,6.67-0.6,9.38-0.84c0.52-0.05,1.34-0.12,2.25-0.21
		c-0.64,0.22-1.28,0.46-1.91,0.71c-2.62,1.12-5.24,2.34-7.5,4.08c2.5-1.35,4.96-2.78,7.6-3.84c0.99-0.41,2-0.76,3.02-1.06
		c0.16-0.01,0.32-0.03,0.48-0.04c0.31,0,0.63,0,0.94-0.01c-0.66,0.17-1.31,0.37-1.96,0.58c-2.13,0.74-4.29,1.49-6.22,2.68
		c2.12-0.77,4.15-1.75,6.3-2.43c1-0.33,2.02-0.62,3.05-0.84c0.29-0.01,0.57-0.01,0.84-0.02c-0.94,0.27-1.85,0.62-2.76,0.95
		c-1.8,0.72-3.64,1.4-5.26,2.48l1.36-0.52c0.44-0.21,0.88-0.41,1.32-0.61c0.26-0.12,0.52-0.22,0.77-0.33
		c-0.3,0.18-0.61,0.35-0.91,0.54c0.35-0.1,0.7-0.22,1.04-0.32l1-0.42c0.23-0.1,0.46-0.2,0.69-0.3c-0.52,0.24-1.03,0.48-1.54,0.72
		c-1.95,0.96-4.94,2.25-6.75,3.4c1.03-0.39,2.47-1.04,3.45-1.54l3.41-1.63c1.53-0.72,3.21-1.49,4.79-2.2
		c0.24-0.09,0.48-0.18,0.71-0.27c0.04,0,0.08,0,0.12-0.01c-0.07,0.03-0.13,0.06-0.2,0.09c-1,0.43-1.99,0.9-2.97,1.38l-0.73,0.36
		c-0.22,0.16-0.45,0.31-0.67,0.49c0.27-0.08,0.52-0.17,0.79-0.25l0.73-0.36c0.83-0.44,1.69-0.8,2.55-1.18
		c-0.28,0.15-0.55,0.3-0.81,0.45c-0.63,0.35-1.31,0.76-1.92,1.15c-0.14,0.12-0.28,0.26-0.41,0.39c-0.03,0.05-0.1,0.09-0.1,0.16
		c0.03-0.07,0.24-0.13,0.31-0.18l0.34-0.15c1.04-0.66,2.11-1.27,3.2-1.85l0.66-0.34l0.04-0.03c-0.83,2.23-4,10.55-8.2,21.63
		c-0.28,0.14-0.62,0.44-0.99,1.07c-0.68,1.17-1.93,3.91-3,6.88l-0.16,0.42c-0.75,1.91-2.14,5.47-0.88,6.14
		c0.07,0.04,0.13,0.06,0.19,0.09c0.51,0.19,0.91-0.06,1.62-0.99c0.72-0.94,2.13-4.53,3.5-8.93c0.83-2.66,0.83-3.83,0.66-4.34
		c3.64-9.97,6.43-17.76,7.52-20.94l0,0.98l0,1.13l0,0.57c0.04,0.19,0.08,0.38,0.13,0.57c0.05-0.19,0.09-0.38,0.13-0.57l0-0.57
		l0-1.14l0-0.86c0.05,0.28,0.11,0.55,0.17,0.82c0.2,0.75,0.32,1.58,0.84,2.19l-0.1-0.59c-0.07-0.18-0.13-0.36-0.19-0.55
		c-0.25-0.68-0.35-1.36-0.46-2.02c0.71,1.59,1.64,3.13,2.47,4.64c1.1,1.85,2.13,3.78,3.58,5.39c-1.08-1.87-2.31-3.63-3.36-5.52
		c-0.96-1.62-1.8-3.39-2.78-5.02c-0.03-0.14-0.05-0.28-0.09-0.42c0,0,0,0,0,0c0,0,0,0,0,0c0.1,0.1,0.2,0.2,0.29,0.29
		c0.04,0.1,0.08,0.2,0.12,0.3c0.66,1.27,1.42,2.51,2.24,3.68c1.12,1.55,2.22,3.15,3.68,4.39c-1.12-1.54-2.41-2.95-3.47-4.54
		c-0.59-0.85-1.16-1.74-1.67-2.65c1.21,1.7,2.54,3.36,3.78,4.99c1.62,2.04,3.92,5.18,5.69,7.03c-1.44-2.14-3.91-5.12-5.49-7.19
		c-0.27-0.34-0.54-0.69-0.81-1.05c0.36,0.41,0.73,0.81,1.09,1.22c2.09,2.2,4.25,4.41,6.82,6.05c-2.28-2-4.58-3.98-6.63-6.23
		c-0.91-0.96-1.76-1.97-2.59-2.99c0.07,0.08,0.15,0.15,0.22,0.23c1.32,1.29,2.59,2.67,4.15,3.68c-1.23-1.34-2.71-2.54-3.96-3.86
		c-0.47-0.46-0.91-0.94-1.35-1.44c0.11,0.09,0.22,0.18,0.34,0.27c1.04,1.03,2.12,2.03,3.19,3.04c2.11,1.9,4.17,3.9,6.54,5.49
		c-2.08-1.94-4.3-3.72-6.37-5.68c-0.53-0.48-1.06-0.99-1.59-1.5c0.8,0.58,1.61,1.15,2.41,1.71c2.46,1.63,4.9,3.32,7.59,4.56
		c-2.45-1.64-5.02-3.09-7.44-4.78c-1.42-0.95-2.77-1.97-4.12-3.02c-0.17-0.17-0.34-0.33-0.51-0.5c1.2,0.93,2.45,1.79,3.69,2.67
		c2.17,1.46,4.33,2.98,6.72,4.06c-2.16-1.48-4.44-2.76-6.57-4.27c-0.18-0.12-0.35-0.24-0.53-0.36c0.48,0.3,0.96,0.6,1.44,0.91
		c2.48,1.5,5.03,3.16,7.66,4.39l-1.85-1.21c0,0-1.9-1.12-1.9-1.12c-1.44-0.83-2.85-1.7-4.26-2.59c1.38,0.79,2.78,1.55,4.28,2.09
		c-0.89-0.56-1.93-1.12-2.85-1.6c-0.81-0.43-1.61-0.88-2.4-1.34c1.51,0.68,3.05,1.34,4.69,1.65c-2.26-0.96-4.61-1.79-6.78-2.95
		c-0.07-0.05-0.14-0.09-0.22-0.14c1.52,0.66,3.07,1.27,4.63,1.85c2.79,1.01,5.69,2.15,8.58,2.84l-2.1-0.83L31.5,24.4
		c-2.02-0.69-4.02-1.42-6.01-2.21c0.4,0.13,0.81,0.26,1.21,0.39L28.03,23c0.46,0.09,0.91,0.19,1.37,0.27l-1.3-0.52l-1.33-0.41
		c-1.56-0.48-3.1-1.02-4.62-1.62c0.4,0.1,0.79,0.2,1.17,0.33c1.53,0.44,3.05,0.89,4.56,1.34c2.2,0.66,4.61,1.42,6.81,2.14l2.3,0.62
		c-2.88-1.21-6.06-2.07-9.03-3.01c-1.52-0.46-3.04-0.91-4.57-1.35c-0.88-0.3-1.81-0.44-2.67-0.77c-0.01-0.01-0.02-0.02-0.04-0.02
		c2.37,0.67,5.33,1.32,7.44,1.85C30.71,22.45,34.54,23.5,37.12,23.91z M12.79,15.49c0,0-0.13-0.05-0.3-0.11
		c-0.11-0.08-0.22-0.15-0.33-0.23c0.3,0.15,0.59,0.29,0.88,0.44C12.96,15.55,12.87,15.52,12.79,15.49z M14.85,18.73
		c-1.71-0.14-3.48-0.3-5.12-0.46c-0.65-0.06-1.32-0.13-2-0.21c1.24,0.07,2.49,0.13,3.7,0.24c1.3,0.08,2.6,0.21,3.9,0.34
		C15.17,18.67,15.01,18.7,14.85,18.73z M18.39,17.7c0.02,0.01,0.03,0.03,0.05,0.04c0.1,0.15,0.2,0.3,0.29,0.45l-0.01,0.12
		c-0.07-0.04-0.13-0.08-0.2-0.11c-0.06-0.05-0.12-0.1-0.18-0.15C18.36,17.93,18.38,17.82,18.39,17.7z M18.72,18.36L18.72,18.36
		C18.71,18.36,18.71,18.36,18.72,18.36C18.71,18.36,18.71,18.36,18.72,18.36z M18.69,18.7c0,0.01-0.01,0.01-0.01,0.01
		c-0.02,0.01-0.04,0.02-0.07,0.02c-0.06-0.04-0.12-0.07-0.17-0.11C18.53,18.66,18.61,18.68,18.69,18.7z M18.29,18.43
		c0.05,0.03,0.1,0.05,0.15,0.08C18.39,18.48,18.34,18.46,18.29,18.43C18.29,18.43,18.29,18.43,18.29,18.43z M18.58,18.76
		c0,0-0.01,0-0.01,0c-0.14-0.06-0.28-0.12-0.43-0.19c0.03,0,0.07,0.01,0.1,0.01C18.35,18.65,18.47,18.7,18.58,18.76z M17.99,18.49
		c0.06,0.02,0.12,0.04,0.19,0.06c0.02,0.01,0.04,0.02,0.05,0.03C18.15,18.55,18.07,18.52,17.99,18.49z M18.28,18.43
		c-0.01,0-0.02-0.01-0.03-0.01c-0.08-0.04-0.17-0.08-0.25-0.12c-0.05-0.04-0.1-0.07-0.14-0.11c0.14,0.08,0.28,0.15,0.42,0.23
		C18.28,18.42,18.28,18.43,18.28,18.43z M16.31,15.29c-0.12-0.19-0.24-0.38-0.36-0.57c0.14,0.19,0.27,0.38,0.41,0.56
		c0.6,0.76,1.17,1.58,1.87,2.27c0,0.14,0.01,0.27,0.02,0.41c-0.02-0.01-0.03-0.03-0.05-0.04C17.5,17.1,16.93,16.17,16.31,15.29z
		 M15.53,17.27c-0.73-0.4-1.44-0.82-2.13-1.27c0.4,0.14,0.8,0.28,1.21,0.41c0.44,0.36,0.89,0.71,1.36,1.04
		C15.82,17.39,15.68,17.33,15.53,17.27z M16.6,17.7c-0.28-0.22-0.56-0.45-0.83-0.67c0.42,0.23,0.83,0.47,1.25,0.7
		c0.13,0.11,0.27,0.22,0.41,0.32C17.15,17.93,16.87,17.82,16.6,17.7z M16.95,18.92c-0.24-0.03-0.4-0.05-0.4-0.05
		c-0.24-0.02-0.49-0.04-0.74-0.06c0.14-0.03,0.29-0.05,0.43-0.08c0.44,0.04,0.89,0.08,1.33,0.11c0.03,0.01,0.06,0.01,0.09,0.02
		C17.42,18.87,17.19,18.89,16.95,18.92z M18.07,19.25c-0.02,0-0.04,0-0.06,0c0.08-0.02,0.16-0.04,0.24-0.06
		C18.2,19.21,18.13,19.23,18.07,19.25z M18.42,18.81c-0.3-0.06-0.6-0.11-0.9-0.16c-0.08-0.02-0.17-0.05-0.25-0.07
		c0.12-0.02,0.19-0.02,0.38-0.05c0.28,0.1,0.56,0.19,0.84,0.26C18.46,18.79,18.44,18.8,18.42,18.81z M18.56,18.84
		c0.01-0.01,0.03-0.02,0.04-0.02c0.01,0,0.02,0,0.03,0.01c0,0.01,0,0.02-0.01,0.03C18.6,18.85,18.58,18.85,18.56,18.84z
		 M19.24,19.49c0,0,0-0.01,0.01-0.02c0.02-0.01,0.05-0.01,0.07-0.02c0.03,0.02,0.05,0.04,0.08,0.06c0.01,0.01,0.02,0.03,0.03,0.04
		c0,0.01,0,0.01,0.01,0.02C19.36,19.55,19.3,19.52,19.24,19.49z M19.51,19.29C19.51,19.29,19.51,19.29,19.51,19.29
		c0.01,0.01,0.02,0.02,0.03,0.02C19.53,19.3,19.52,19.3,19.51,19.29z M19.57,18.8c0.08,0,0.08,0,0.16-0.01
		c-0.01,0.02-0.02,0.04-0.03,0.06c-0.03,0.02-0.06,0.05-0.09,0.07C19.6,18.88,19.59,18.84,19.57,18.8z"/>
</g>
</svg>
