<?xml version="1.0" encoding="utf-8"?>
<!-- Generator: Adobe Illustrator 26.3.1, SVG Export Plug-In . SVG Version: 6.00 Build 0)  -->
<svg version="1.1" id="Layer_1" xmlns="http://www.w3.org/2000/svg" xmlns:xlink="http://www.w3.org/1999/xlink" x="0px" y="0px"
	 viewBox="0 0 28.6 40.37" enable-background="new 0 0 28.6 40.37" xml:space="preserve">
<path fill="#FFFFFF" d="M26.68,15.87l1.85,0.19c-2.37-0.56-4.92-0.82-7.33-1.12c-1.64-0.17-3.3-0.38-4.96-0.45
	c0.57-0.02,1.15-0.03,1.73-0.01c1.61,0.02,3.26,0.3,4.87,0.38c-1.58-0.42-3.24-0.5-4.87-0.57c-0.15,0-0.3,0-0.45,0
	c0.97-0.1,1.94-0.2,2.9-0.23c1.18-0.07,2.32,0.02,3.49,0.14c1.17,0.1,2.36,0.09,3.52-0.12c-1.17,0.02-2.33-0.01-3.5-0.08
	c-1.17-0.13-2.34-0.21-3.52-0.14c-0.77,0.03-1.57,0.1-2.38,0.18c0.24-0.03,0.47-0.06,0.71-0.08c1.71-0.22,3.5-0.26,5.2-0.49
	c-1.75-0.12-3.49,0.12-5.23,0.29c-0.29,0.04-0.59,0.07-0.88,0.11c1.12-0.27,2.23-0.57,3.34-0.87c2.46-0.7,5.06-1.39,7.43-2.37
	c-2.48,0.65-5.01,1.52-7.48,2.18c-1.88,0.53-3.79,0.96-5.69,1.4c-0.31,0.05-0.61,0.12-0.92,0.19c-0.06,0.01-0.12,0.01-0.18,0.02
	c0,0-0.01,0-0.01,0l0.62-0.22l1.91-0.67l1.91-0.67l0.95-0.33c0.31-0.14,0.62-0.28,0.92-0.43c-0.33,0.07-0.66,0.16-0.99,0.24
	l-0.95,0.33l-1.9,0.67L14.88,14l-0.75,0.26c0.05-0.02,0.1-0.04,0.14-0.06l0.69-0.26c2.26-0.98,4.6-1.77,6.95-2.53l1.41-0.44
	l1.39-0.52c-1.91,0.39-3.83,1.1-5.67,1.72c-0.6,0.22-1.2,0.43-1.8,0.65c1.25-0.55,2.51-1.09,3.79-1.57l1.33-0.51l1.3-0.59
	c-1.82,0.47-3.62,1.28-5.36,1.99c-0.62,0.27-1.25,0.53-1.87,0.81c1.12-0.58,2.25-1.15,3.4-1.6c2.2-0.77,4.51-1.66,6.57-2.76
	c-0.99,0.35-2.35,0.91-3.31,1.32c-1.1,0.45-2.2,0.88-3.33,1.26c-1.48,0.61-2.94,1.31-4.33,2.09c0.69-0.45,1.37-0.9,2.06-1.32
	c1.41-0.91,2.97-1.73,4.33-2.73c-1.53,0.69-3,1.69-4.43,2.56c-1.34,0.86-2.74,1.66-3.97,2.68c-0.01-0.01-0.02-0.02-0.03-0.04
	c0.22-0.21,0.46-0.47,0.68-0.67c1.02-0.98,2.3-1.63,3.38-2.54c-0.22,0.08-0.44,0.19-0.65,0.29l-0.59,0.39
	c-0.39,0.26-0.78,0.53-1.16,0.82c-0.12,0.09-0.24,0.18-0.36,0.28c1.19-1.09,2.59-1.92,3.89-2.86c-1.08,0.39-1.99,1.12-2.91,1.79
	c-0.84,0.68-1.73,1.37-2.29,2.31c-0.02,0.03-0.04,0.06-0.06,0.09c-0.01,0.01-0.01,0.02-0.02,0.03c0,0-0.01,0-0.01-0.01
	c0.54-0.89,0.87-1.89,1.29-2.84c0.22-0.54,0.79-1.98,1-2.51c0.08-0.29,0.16-0.58,0.23-0.88c-0.15,0.27-0.28,0.54-0.42,0.8
	l-0.33,0.84l-0.67,1.67c-0.1,0.26-0.21,0.51-0.32,0.77c0.3-0.85,0.55-1.71,0.84-2.56c0.51-1.68,1.13-3.42,1.44-5.15
	C16.05,5.18,15.7,6.25,15.5,7c-0.72,2.46-1.54,4.88-2.41,7.28c0,0,0,0,0,0c0.02-0.31,0.16-0.63,0.24-0.92
	c0.21-0.68,0.62-2.05,0.82-2.74c0.15-0.46,0.26-0.92,0.3-1.4c-0.39,0.74-0.64,1.91-0.9,2.71l-0.42,1.36
	c-0.03,0.09-0.08,0.25-0.12,0.38c0.06-0.45,0.18-0.9,0.23-1.35c0.27-1.62,0.49-3.25,0.64-4.89c0.09-0.82,0.13-1.64,0.06-2.47
	c-0.23,1.62-0.3,3.26-0.53,4.89c-0.11,0.81-0.23,1.62-0.37,2.43c-0.1,0.59-0.26,1.25-0.16,1.85c0,0.03,0.01,0.06,0.01,0.09
	c-0.04-0.05-0.09-0.1-0.13-0.16c-0.07-0.18-0.12-0.36-0.16-0.55c0.06-0.3,0.13-0.59,0.18-0.89c0.34-2.38,0.4-4.88,0.47-7.29
	c0.01-0.61,0.05-1.21,0.01-1.83C13.2,2.3,12.85,1.1,12.31,0c0.35,1.15,0.67,2.33,0.77,3.54c0.05,1.04-0.05,2.57-0.07,3.64
	c-0.06,1.82-0.16,3.64-0.41,5.44c-0.02,0.22-0.04,0.43-0.07,0.65c-0.04-0.13-0.08-0.25-0.12-0.37c0.17-1.26,0.25-2.55,0.37-3.79
	c0.12-1.81,0.35-3.71,0.26-5.54c-0.26,1.8-0.29,3.71-0.46,5.52c-0.09,1.09-0.2,2.27-0.32,3.39c-0.05-0.14-0.11-0.29-0.16-0.43
	c-0.57-1.57-1.45-3.77-2.08-5.34C9.72,5.9,9.26,4.84,8.85,4.1c0.11,0.38,0.27,0.82,0.43,1.27C8.93,4.49,8.57,3.63,8.21,2.96
	c0.24,0.83,0.67,1.99,1.01,2.8l1.07,2.77c0.58,1.49,1.1,2.99,1.65,4.49c-0.29-0.4-0.58-0.81-0.84-1.23l-0.31-0.49
	c-0.13-0.15-0.25-0.3-0.39-0.45c0.06,0.19,0.14,0.37,0.22,0.55l0.31,0.49c0.39,0.6,0.79,1.19,1.23,1.76c0,0.02,0,0.03,0,0.05
	c-0.05-0.07-0.11-0.14-0.16-0.21c-0.84-1.04-1.65-2.13-2.29-3.32C8.69,7.99,8.33,5.5,7.65,3.19c0.12,1.08,0.33,2.14,0.61,3.19
	c0.3,1.18,0.62,2.37,1.1,3.5c0.61,1.32,1.51,2.49,2.41,3.62c-0.16-0.11-0.32-0.21-0.48-0.32c-1.61-1.82-2.57-4.67-3.17-6.72
	C8.03,6.22,7.95,5.98,7.87,5.73c0-0.02-0.01-0.04-0.01-0.06c0,0.01,0,0.01,0,0.02C7.79,5.51,7.73,5.33,7.67,5.15
	c0.07,0.39,0.15,0.79,0.23,1.18C7.9,6.48,7.91,6.64,7.92,6.79c0.34,1.83,0.86,3.68,1.83,5.28c0.02,0.03,0.04,0.06,0.06,0.09
	c-0.87-0.85-1.59-1.85-2.32-2.82c0.25,0.63,0.63,1.2,1.07,1.72C8.81,11.39,9.08,11.7,9.37,12c-0.5-0.31-1-0.63-1.52-0.94
	c-0.09-0.1-0.18-0.19-0.27-0.29C6.02,9.05,4.4,7.39,2.59,5.94C3.28,6.7,4.3,7.7,5.03,8.4c0.75,0.74,1.5,1.49,2.2,2.27
	C5.45,9.58,3.61,8.55,1.75,7.85c1.36,0.81,2.94,1.54,4.3,2.33c0.49,0.3,1.06,0.65,1.66,1.02c0.1,0.11,0.2,0.21,0.3,0.31
	c-1.27-0.73-2.55-1.46-3.95-1.88c1.54,0.79,3.07,1.61,4.57,2.47c0,0,0.01,0.01,0.01,0.01c-0.33-0.15-0.66-0.31-0.98-0.46
	C5.71,10.79,3.68,9.82,1.63,9.2c1.92,0.94,4.01,1.72,5.94,2.63c0.55,0.25,1.1,0.51,1.65,0.77c0.16,0.13,0.33,0.26,0.5,0.39
	c-0.76-0.34-1.53-0.66-2.29-0.98c-1.85-0.74-3.77-1.58-5.71-2.11C1.26,9.54,0.8,9.18,0.33,8.84c0.73,0.74,1.51,1.41,2.33,2.05
	c-0.23-0.03-0.46-0.06-0.7-0.08c0.3,0.07,0.6,0.16,0.9,0.24c0.33,0.25,0.66,0.49,1,0.72l-0.49-0.15c0.31,0.16,0.62,0.31,0.93,0.45
	c0.07,0.05,0.13,0.09,0.2,0.14c1.01,0.61,2.09,1.08,3.21,1.45c-1.34-0.38-2.64-0.88-3.98-1.27c1.43,0.77,3.01,1.19,4.56,1.63
	c0.14,0.04,0.29,0.07,0.43,0.11c-0.52-0.11-1.05-0.23-1.56-0.36c-2.01-0.52-4.03-1.16-6.11-1.33c0.89,0.25,2.15,0.53,3.04,0.73
	c1.01,0.23,2.01,0.55,3.02,0.79c1.56,0.36,3.19,0.78,4.81,0.76c0.08,0.01,0.16,0.01,0.25,0.01c-0.07,0.02-0.11,0.03-0.11,0.03
	c-0.02,0.01-0.03,0.01-0.05,0.02c-0.63,0.03-1.27-0.04-1.9-0.07c-1.94-0.15-3.82-0.6-5.7-1.09c-0.82-0.23-2.01-0.51-2.84-0.64
	c0.8,0.3,1.95,0.63,2.79,0.83c1.76,0.46,3.55,0.88,5.37,1.06c-1.18-0.08-2.36-0.26-3.53-0.46c-0.37-0.07-0.74-0.14-1.11-0.22
	l-1.12-0.15c1.42,0.52,2.94,0.7,4.44,0.9c0.42,0.04,0.85,0.09,1.27,0.12c-3.18-0.05-6.33-0.81-9.43-1.52
	c2.04,0.79,4.21,1.17,6.36,1.49c0.9,0.11,1.82,0.21,2.74,0.24c-0.94,0.06-1.89,0.06-2.83-0.05C4.37,15,2.17,14.81,0,15.06
	c1.09,0.05,2.17,0.08,3.26,0.11c1.09,0.04,2.17,0.12,3.25,0.24c1.03,0.1,2.08,0.12,3.12,0.05c-2.02,0.46-4.1,0.66-6.17,0.58
	c1.65,0.39,3.37,0.12,5.02-0.13c0.5-0.1,1.01-0.2,1.51-0.32c-1.66,0.5-3.35,0.93-5.04,1.33l-1.39,0.32l-1.38,0.4
	c1.87-0.22,3.77-0.77,5.59-1.23c1.42-0.4,2.88-0.75,4.26-1.31l0,0c-0.15,0.11-0.3,0.22-0.45,0.33c-1.51,0.62-3.01,1.26-4.56,1.77
	l-1.05,0.36L4.94,18c1.43-0.27,2.86-0.88,4.23-1.37c0.59-0.24,1.18-0.46,1.77-0.7c-0.15,0.12-0.31,0.24-0.46,0.37
	c-0.26,0.2-0.49,0.44-0.64,0.74c0.55-0.35,0.98-0.81,1.52-1.2c0.09-0.07,0.19-0.15,0.29-0.22c0.24-0.11,0.48-0.22,0.71-0.34
	c-0.01,0.01-0.01,0.02-0.02,0.02c-0.09,0.06-0.19,0.13-0.28,0.19c-0.7,0.58-1.47,1.23-2.17,1.8c-0.98,0.77-2.11,1.34-3.09,2.13
	c0.29-0.12,0.57-0.26,0.86-0.4l0.8-0.5c1.19-0.72,2.27-1.65,3.34-2.55c-0.15,0.18-0.31,0.36-0.47,0.53
	c-0.55,0.65-1.22,1.19-1.71,1.88c0.18-0.11,0.36-0.24,0.53-0.37l0.45-0.45c0.52-0.57,1.09-1.12,1.58-1.73
	c-0.54,0.73-1.12,1.49-1.65,2.19l-1.28,1.64l-0.65,0.82c-0.19,0.29-0.39,0.58-0.57,0.88c0.25-0.24,0.49-0.5,0.73-0.75
	c0.41-0.52,1.51-1.92,1.93-2.46c0.72-0.97,1.54-1.93,2.16-2.98c-0.33,1.77-1.41,7.16-2.71,13.92c-0.14,0.16-0.28,0.41-0.42,0.81
	c-0.33,0.95-0.87,3.14-1.28,5.47L8.36,35.7c-0.3,1.51-0.86,4.31,0.04,4.62c0.05,0.02,0.09,0.03,0.14,0.04
	c0.35,0.06,0.6-0.18,0.97-0.96c0.38-0.79,0.94-3.62,1.4-7.05c0.25-1.82,0.18-2.7,0.05-3.12c1.15-6.5,2-11.67,2.33-13.74
	c0.04,0.15,0.08,0.3,0.13,0.45c0.21,1.4,0.22,2.83,0.09,4.25c-0.02,0.29-0.05,0.57-0.09,0.86l-0.01,0.87
	c0.34-1.12,0.34-2.3,0.38-3.46c0-0.4,0-0.81-0.02-1.21c0.03,0.15,0.06,0.3,0.09,0.45c0.21,1,0.23,2.03,0.44,3.03
	c0.14-1.03-0.08-2.06-0.25-3.07c-0.08-0.4-0.17-0.8-0.27-1.2c0.13,0.36,0.26,0.74,0.38,1.1c0.07,0.13,0.14,0.26,0.22,0.39
	c0-0.15-0.02-0.3-0.03-0.45l-0.14-0.41c-0.04-0.13-0.09-0.25-0.13-0.38c0.08,0.15,0.16,0.3,0.23,0.45l0.54,1.06l0.26,0.53
	c0.12,0.16,0.23,0.33,0.35,0.49c-0.05-0.2-0.11-0.39-0.17-0.58l-0.27-0.53l-0.54-1.06c-0.19-0.37-0.4-0.76-0.6-1.13
	c0.43,0.61,0.88,1.21,1.28,1.85c0.68,1,1.24,2.08,1.98,2.99c-0.12-0.28-0.25-0.55-0.38-0.82l-0.47-0.76
	c-0.32-0.51-0.64-1.01-0.97-1.51c-0.39-0.56-0.75-1.14-1.16-1.69c0.04,0.04,0.08,0.07,0.11,0.11c0.17,0.22,0.33,0.42,0.43,0.55
	c0.55,0.7,1.06,1.42,1.55,2.16c0.71,1.07,1.45,2.28,2.11,3.39l0.75,1.11c-0.73-1.63-1.73-3.11-2.69-4.61
	c-0.36-0.54-0.74-1.09-1.14-1.63c0.47,0.47,0.93,0.96,1.37,1.5c0.18,0.21,0.36,0.43,0.53,0.65l0.59,0.6
	c-0.28-0.52-0.63-0.99-1.02-1.44c0.32,0.29,0.62,0.59,0.91,0.91c0.25,0.27,0.49,0.54,0.72,0.82l0.77,0.78
	c-0.57-0.94-1.33-1.76-2.12-2.53c-0.52-0.46-1.04-0.91-1.54-1.39c0.65,0.53,1.32,1.04,1.93,1.6c1.41,1.27,2.57,2.77,3.68,4.3
	c-0.82-1.73-2.17-3.15-3.54-4.45c-1.06-0.96-2.21-1.79-3.27-2.74c-0.06-0.05-0.13-0.1-0.19-0.15c-0.06-0.07-0.12-0.14-0.17-0.21
	c0.25,0.13,0.51,0.26,0.76,0.39c0.24,0.15,0.49,0.3,0.73,0.45c0.07,0.05,0.13,0.1,0.17,0.14c1.54,1.22,3.04,2.51,4.48,3.85
	c0.63,0.6,1.51,1.42,2.19,1.99c-1.21-1.49-2.83-2.83-4.27-4.1c-0.49-0.42-0.98-0.83-1.48-1.24c0.43,0.24,0.87,0.48,1.3,0.73
	c1.64,0.86,3.27,1.8,5.03,2.39c-1.6-0.9-3.35-1.67-4.94-2.56c-0.42-0.22-0.84-0.46-1.25-0.7c0.6,0.27,1.19,0.54,1.79,0.82
	c1.89,0.84,3.8,1.87,5.73,2.6c-1.78-1.05-3.79-1.89-5.65-2.78c-1.1-0.48-2.21-1.02-3.32-1.54c-0.1-0.08-0.2-0.15-0.3-0.23
	c0.11,0.04,0.23,0.09,0.34,0.13c1.32,0.64,2.77,1.27,3.87,1.79c1.73,0.77,4.28,2.03,6.05,2.64c-1.64-0.92-4.25-2.01-5.97-2.82
	c-0.24-0.11-0.58-0.27-0.96-0.44c0.04,0.02,0.09,0.03,0.13,0.05l2.57,1.06c0.74,0.33,1.83,0.76,2.6,1
	c-1.38-0.78-3.61-1.61-5.09-2.24c-0.96-0.37-1.92-0.78-2.89-1.14c1.17,0.34,2.34,0.69,3.49,1.1c1.93,0.65,3.88,1.49,5.82,2.12
	c-1.81-0.95-3.85-1.62-5.76-2.31c-0.72-0.24-1.44-0.48-2.16-0.71c0.99,0.27,1.99,0.54,2.92,0.85c2.14,0.69,4.19,1.63,6.27,2.47
	c-2.18-1.29-4.61-2.14-7.02-2.92c-0.92-0.27-2.19-0.61-3.26-0.9c1.5,0.37,3.02,0.73,4.48,1.15c2.38,0.65,4.71,1.48,7.07,2.2
	c-2.24-1.05-4.65-1.69-7.02-2.39c-2.01-0.54-4.03-1.11-6.08-1.48c0.9,0.14,1.79,0.28,2.68,0.48c1.33,0.25,2.68,0.67,4.02,0.83
	c-1.22-0.49-2.69-0.74-3.98-1.03c-0.6-0.11-1.21-0.24-1.82-0.35c0.05,0,0.11,0.01,0.16,0.01c0.01,0,0.01,0,0.02,0
	c1.76,0.26,3.55,0.6,5.28,0.98c2.34,0.49,4.63,1.18,6.95,1.72c-1.11-0.45-2.26-0.78-3.42-1.07c-2.11-0.55-4.24-1.02-6.38-1.42
	c0.44,0.06,0.88,0.12,1.32,0.2c1.98,0.31,3.92,0.86,5.88,1.26c-1.82-0.71-3.75-1.07-5.67-1.42c1.83,0.18,3.67,0.39,5.49,0.66
	L26.68,15.87z M10.81,13.39c0.12,0.11,0.26,0.2,0.4,0.29c-0.21-0.1-0.42-0.2-0.63-0.3c-0.16-0.11-0.32-0.23-0.47-0.35
	C10.34,13.16,10.57,13.27,10.81,13.39C10.81,13.39,10.81,13.39,10.81,13.39z M8.34,7.87c0.53,1.59,1.33,3.57,2.4,4.98
	c-0.15-0.09-0.29-0.18-0.42-0.26C9.34,11.19,8.73,9.55,8.34,7.87z M8.85,11.99c-0.04-0.02-0.07-0.04-0.11-0.06
	c-0.1-0.09-0.19-0.18-0.29-0.27c0.52,0.32,1.05,0.65,1.56,0.97c0.05,0.05,0.11,0.1,0.16,0.15C9.73,12.51,9.29,12.25,8.85,11.99z
	 M1.86,10c1.8,0.77,3.71,1.42,5.5,2.19c0.58,0.24,1.16,0.49,1.73,0.74c-0.49-0.19-0.97-0.38-1.41-0.54
	c-1.51-0.52-3.02-1.14-4.59-1.44C2.67,10.64,2.26,10.32,1.86,10z M5.53,12.55c0.13,0.05,0.22,0.08,0.22,0.08
	c1.73,0.59,3.5,1.25,5.3,1.65C9.15,13.94,7.25,13.42,5.53,12.55z M5.81,12.44c-0.4-0.15-0.8-0.29-1.2-0.45l-0.12-0.04
	c-0.37-0.25-0.73-0.5-1.09-0.77c2.59,0.74,5.13,1.7,7.61,2.74c0.1,0.07,0.21,0.14,0.32,0.21C9.47,13.68,7.62,13.12,5.81,12.44z
	 M11.25,13.71c-0.03-0.03-0.06-0.06-0.09-0.1c0.1,0.06,0.19,0.12,0.29,0.19c0.02,0.02,0.05,0.03,0.07,0.05
	C11.43,13.8,11.34,13.75,11.25,13.71z M12.19,13.22c0,0,0,0.04-0.01,0.11c0,0-0.01-0.01-0.01-0.01c-0.42-1.66-1.11-3.25-1.7-4.87
	c-0.23-0.59-0.5-1.29-0.78-2.02c0.05,0.12,0.1,0.24,0.15,0.35l1.06,2.66c0.35,0.89,0.69,1.78,1.02,2.67
	c0.11,0.26,0.2,0.54,0.29,0.81C12.21,13.03,12.2,13.13,12.19,13.22z M13.82,14.35c-0.01,0.01-0.03,0.01-0.04,0.02c0,0-0.01,0-0.01,0
	C13.79,14.36,13.8,14.35,13.82,14.35z M13.75,14.38c0,0,0.01,0,0.01,0c-0.06,0.03-0.12,0.07-0.18,0.1c0.06-0.02,0.12-0.05,0.17-0.07
	c-0.07,0.03-0.14,0.06-0.21,0.09c-0.03,0-0.06,0-0.09,0C13.55,14.46,13.65,14.42,13.75,14.38z M13.73,14.65
	c-0.03-0.01-0.07-0.01-0.1-0.02c0,0,0.01,0,0.01,0C13.66,14.64,13.69,14.65,13.73,14.65z M13.48,14.74
	c0.04,0.02,0.09,0.05,0.13,0.07c-0.05-0.01-0.09-0.03-0.14-0.04C13.47,14.76,13.48,14.75,13.48,14.74z M13.47,14.97
	c0,0,0,0.01,0.01,0.01L13.47,14.97C13.46,14.96,13.47,14.96,13.47,14.97z M13.42,14.88C13.42,14.89,13.42,14.89,13.42,14.88
	C13.42,14.89,13.42,14.89,13.42,14.88C13.41,14.89,13.42,14.89,13.42,14.88z M13.23,14.12c-0.02,0.06-0.04,0.11-0.07,0.17l0,0
	c-0.01,0-0.02,0-0.02,0C13.17,14.23,13.21,14.18,13.23,14.12z M12.82,14.41c-0.01,0.01-0.01,0.02-0.02,0.03
	c-0.04-0.02-0.07-0.04-0.11-0.06c-0.01-0.01-0.02-0.03-0.04-0.04C12.71,14.36,12.76,14.38,12.82,14.41z M12.69,14.82
	c0.01-0.01,0.01-0.01,0.02-0.02c0.01,0,0.02-0.01,0.03-0.01c0,0.01,0,0.02,0.01,0.02C12.73,14.81,12.71,14.82,12.69,14.82z
	 M12.75,14.85c-0.01,0.01-0.01,0.01-0.02,0.02c-0.02,0-0.04,0.01-0.06,0.01C12.69,14.87,12.72,14.86,12.75,14.85z M12.59,14.15
	c0.01,0.01,0.03,0.03,0.04,0.04c-0.05-0.03-0.1-0.06-0.15-0.09c0,0,0,0,0-0.01C12.52,14.11,12.56,14.13,12.59,14.15z M12.36,13.32
	c0.04,0.12,0.09,0.24,0.14,0.36c0,0.01,0,0.03,0,0.04c-0.06-0.07-0.11-0.14-0.16-0.21C12.34,13.45,12.35,13.39,12.36,13.32z
	 M12.28,13.79C12.28,13.79,12.29,13.8,12.28,13.79c0.04,0.05,0.07,0.09,0.1,0.13c-0.03-0.02-0.06-0.04-0.08-0.06
	C12.29,13.84,12.29,13.81,12.28,13.79z M12.31,15.14c0.06-0.04,0.12-0.08,0.17-0.12c0.04-0.01,0.08-0.01,0.12-0.02
	c-0.01,0.01-0.03,0.03-0.04,0.04C12.48,15.07,12.4,15.1,12.31,15.14z M12.71,15.11c0.01-0.01,0.02-0.02,0.03-0.03
	c0.04-0.02,0.08-0.05,0.13-0.08c-0.13,0.14-0.28,0.32-0.37,0.42C12.57,15.32,12.64,15.21,12.71,15.11z M13.54,15.24
	c-0.05-0.05-0.09-0.1-0.14-0.14c-0.01-0.02-0.02-0.03-0.03-0.05c0.02,0.01,0.05,0.03,0.07,0.04c0.05,0.06,0.1,0.12,0.15,0.19
	C13.57,15.27,13.56,15.25,13.54,15.24z M13.49,14.83c-0.01-0.01-0.01-0.01-0.02-0.02c0.1,0.04,0.2,0.08,0.29,0.13
	c-0.03-0.01-0.06-0.01-0.09-0.01C13.61,14.9,13.55,14.87,13.49,14.83z M13.72,15.1c-0.01-0.01-0.02-0.02-0.03-0.03
	c0.02,0.02,0.05,0.03,0.07,0.05C13.75,15.12,13.74,15.11,13.72,15.1z M14.42,15.07c-0.14-0.06-0.23-0.09-0.45-0.19
	c0.24,0.08,0.49,0.16,0.73,0.24C14.6,15.11,14.51,15.09,14.42,15.07z M14.6,14.95c-0.33-0.07-0.67-0.14-1-0.21
	c-0.05-0.02-0.08-0.03-0.12-0.05c0-0.01,0-0.03,0-0.04C13.85,14.75,14.23,14.85,14.6,14.95z"/>
</svg>
