<?xml version="1.0" encoding="utf-8"?>
<!-- Generator: Adobe Illustrator 26.3.1, SVG Export Plug-In . SVG Version: 6.00 Build 0)  -->
<svg version="1.1" id="Layer_1" xmlns="http://www.w3.org/2000/svg" xmlns:xlink="http://www.w3.org/1999/xlink" x="0px" y="0px"
	 viewBox="0 0 47.7 70.44" enable-background="new 0 0 47.7 70.44" xml:space="preserve">
<path fill="#FFFFFF" d="M30.72,19.05c5.89-0.9,11.62-2.92,16.81-5.89c-3.69,1.45-7.24,3.27-11.07,4.31
	c-1.69,0.47-3.4,0.85-5.13,1.14c0.32-0.14,0.63-0.3,0.94-0.46c5.54-1.21,11.05-2.93,15.42-6.68c-0.46,0.29-0.92,0.58-1.38,0.87
	c-2.04,0.65-4.16,1.51-6.24,2.17c1.97-1.01,3.92-2.08,5.74-3.25c-2.53,1.11-4.98,2.48-7.47,3.77c-0.06,0.02-0.12,0.04-0.18,0.06
	c0.49-0.33,0.97-0.67,1.43-1.05c1.05-0.8,2.04-1.66,2.97-2.59c0.02-0.01,0.04-0.02,0.06-0.03c-0.01,0-0.03,0.01-0.04,0.02
	c0.34-0.34,0.68-0.69,1-1.05c-0.55,0.43-1.08,0.87-1.62,1.31c-0.7,0.29-1.4,0.6-2.1,0.93c0.7-0.49,1.39-1,2.05-1.55
	c-1.48,0.82-2.94,1.75-4.41,2.65c-1.04,0.49-2.08,0.98-3.11,1.44c0.62-0.35,1.25-0.7,1.87-1.06c3.63-2.07,7.54-4.03,10.84-6.61
	c-1.64,0.9-3.88,2.27-5.47,3.22c-0.71,0.4-1.57,0.88-2.45,1.37c0.05-0.04,0.1-0.08,0.15-0.11c1.98-1.68,3.68-3.73,4.98-6
	c0.88-0.56,1.75-1.12,2.58-1.7c-0.69,0.34-1.5,0.77-2.32,1.23c0.23-0.43,0.45-0.86,0.66-1.3c-0.32,0.5-0.65,0.99-0.98,1.48
	c-0.67,0.38-1.33,0.77-1.95,1.14c0.58-0.75,1.11-1.54,1.56-2.38c-0.76,0.99-1.56,1.96-2.39,2.89c-0.13,0.08-0.26,0.16-0.37,0.23
	c-1.89,1.18-3.78,2.35-5.59,3.67c-1.78,1.35-3.48,2.81-5.17,4.26c-0.03,0.03-0.07,0.06-0.1,0.08c-0.18,0.11-0.37,0.21-0.55,0.32
	c0.48-0.42,0.94-0.85,1.4-1.3c1.4-1.2,2.75-2.47,4.08-3.74c1.57-1.58,3.14-3.18,4.63-4.84c0.65-0.53,1.27-1.05,1.77-1.5
	c-0.36,0.23-0.72,0.46-1.07,0.7c1.26-1.45,2.47-2.95,3.57-4.54c-1.61,1.78-3.18,3.59-4.78,5.37c-0.49,0.35-0.98,0.71-1.46,1.07
	c1.28-1.41,2.51-2.87,3.62-4.43C39.69,4.53,38,6.45,36.27,8.32c-0.06,0.05-0.12,0.09-0.18,0.14c1.08-1.73,1.99-3.57,2.68-5.49
	c-1.11,2.1-2.24,4.2-3.55,6.17c-0.88,0.69-1.75,1.38-2.62,2.06c-0.23,0.19-0.46,0.39-0.7,0.58l0.37-0.37l1.21-1.22
	c0.36-0.45,0.74-0.89,1.09-1.34c-0.45,0.36-0.88,0.74-1.32,1.11l-1.21,1.23l-2.42,2.45c-0.18,0.18-0.35,0.36-0.53,0.54
	c-0.08,0.07-0.17,0.15-0.26,0.22c0.75-1.65,1.25-3.42,1.63-5.18c0.28-1.29,0.43-2.6,0.45-3.92c-0.31,1.28-0.53,2.56-0.77,3.85
	c-0.03,0.14-0.07,0.28-0.1,0.42c0.23-1.02,0.38-2.05,0.37-3.09c-0.45,1.78-0.78,3.59-1.35,5.32c0.12-0.54,0.22-1.09,0.3-1.63
	c0.52-3.2,1.17-6.55,1.33-9.79c-0.9,3.98-1.22,8.17-2.14,12.14c-0.22,0.87-0.53,1.72-0.92,2.54c-0.16,0.28-0.32,0.55-0.5,0.81
	c-0.28,0.23-0.54,0.48-0.79,0.74c0.22-0.7,0.33-1.46,0.44-2.2c0.26-0.56,0.51-1.12,0.73-1.7l0.43-1.05
	c0.09-0.37,0.19-0.74,0.27-1.12c-0.21,0.33-0.39,0.66-0.58,0.99c-0.16,0.4-0.45,1.12-0.67,1.67c0.25-1.73,0.72-4.03,0.75-5.68
	c-0.16,0.48-0.28,0.97-0.42,1.46l-0.24,1.49c0,0-0.1,0.67-0.21,1.38c0.18-2.12,0.71-4.16,1.14-6.24c-1.02,2.12-1.32,4.52-1.51,6.84
	c-0.08,0.87-0.16,1.74-0.34,2.58c-0.1,0.2-0.2,0.4-0.3,0.6l0.04-0.12c0.18-0.59,0.29-1.19,0.39-1.79l0.14-0.9
	c-0.01-0.31-0.02-0.62-0.06-0.92c-0.42,1.13-0.41,2.37-0.79,3.52c-0.1,0.37-0.25,0.79-0.39,1.23c-0.02-0.74-0.04-1.37-0.05-1.88
	c0.15-1.05,0.44-2.07,0.46-3.13c-0.14,0.27-0.25,0.56-0.37,0.84c0,0-0.18,0.89-0.18,0.89c0,0.02-0.01,0.03-0.01,0.05l-0.29,0.01
	c-0.03-0.55-0.06-1.09-0.09-1.64l-0.09-1.19c-0.09-0.39-0.17-0.78-0.28-1.17c-0.08,0.8-0.04,1.58,0.04,2.38
	c0.03,0.36,0.05,0.71,0.07,1.07c-0.09-0.67-0.2-1.35-0.3-2.01c-0.55-2.67-0.64-5.41-1.18-8.08c-0.01,0.69,0.01,1.37,0.03,2.05
	l0.23,2.03c0.16,1.35,0.34,2.71,0.61,4.05c0.4,2.19,0.55,4.4,0.68,6.62c0,0.25,0.01,0.49,0.02,0.74c-0.08-0.34-0.15-0.68-0.21-1.02
	c-0.43-1.79-0.76-3.63-1.22-5.4c-0.53-2.4-0.43-4.89-0.66-7.33c-0.35,2.46-0.11,4.97,0.34,7.4c0.29,1.21,0.58,2.39,0.81,3.6
	c0.14,0.78,0.34,1.55,0.6,2.3c-1.03-1.41-1.47-3.1-1.83-4.8l-0.24-1.08c-0.13-0.35-0.25-0.7-0.39-1.05
	c0.01,0.38,0.04,0.74,0.06,1.12l0.24,1.08c0.21,1.01,0.46,2.02,0.84,2.97c-0.08-0.11-0.17-0.22-0.25-0.32
	c-0.47-0.96-0.86-1.97-1.22-2.95c-0.43-1.1-0.89-2.19-1.36-3.28l-0.71-1.62c-0.29-0.52-0.57-1.04-0.88-1.54
	c0.7,2.22,1.84,4.39,2.65,6.57c0.24,0.58,0.46,1.2,0.71,1.82c-1.01-1.25-1.82-2.66-2.84-3.9c0.15,0.39,0.3,0.82,0.51,1.18
	c0.83,1.36,1.84,2.59,2.82,3.84c0.11,0.24,0.24,0.48,0.36,0.71c-0.11-0.12-0.23-0.23-0.34-0.35c-3.53-4.61-6.14-9.86-8.24-15.28
	c0.36,1.75,1.01,3.41,1.76,5.02c1.24,2.72,2.71,5.34,4.36,7.83c-0.14-0.18-0.29-0.36-0.43-0.54c-1.55-2-2.66-4.29-3.81-6.54
	c0.29,1.25,0.83,2.43,1.46,3.54c1.23,2.22,2.79,4.25,4.54,6.08c-0.44-0.28-0.9-0.52-1.35-0.73c-1.72-1.42-3.42-2.87-5.03-4.42
	C12.72,7.75,10.6,3.77,8.3,0c1.46,3.33,3.35,6.45,5.47,9.39c-0.23-0.23-0.45-0.47-0.68-0.7c-0.3-0.45-0.6-0.89-0.91-1.34
	c0.11,0.26,0.24,0.52,0.36,0.77c-0.64-0.65-1.28-1.31-1.92-1.97c-0.19-0.44-0.37-0.89-0.53-1.35c0.07,0.36,0.15,0.71,0.25,1.06
	c-0.01-0.01-0.02-0.02-0.03-0.04C9.93,4.77,9.6,3.69,9.27,2.62C9.4,3.55,9.6,4.47,9.86,5.37c-0.3-0.31-0.59-0.63-0.89-0.94
	C8.84,3.65,8.73,2.87,8.65,2.08C8.64,2.77,8.66,3.46,8.7,4.15c-0.16-0.17-0.31-0.33-0.47-0.5C7.53,2.81,6.65,2.14,5.79,1.49
	c0.77,0.76,1.58,1.49,2.19,2.37C8.23,4.15,8.48,4.43,8.74,4.7C8.87,6.07,9.1,7.43,9.45,8.75c0.18,0.66,0.38,1.33,0.63,1.98
	C8.65,9.79,7.34,8.68,6.02,7.56C5.14,6.95,4.25,6.39,3.33,5.87C5.05,7.11,6.6,8.53,8.26,9.84c0.3,0.24,0.6,0.46,0.91,0.67
	C8,9.82,6.78,9.11,5.59,8.43C5.31,8.22,5.02,8,4.73,7.79C4.86,7.92,5,8.04,5.13,8.17C3.81,7.43,2.55,6.74,1.44,6.21
	C2.78,7.12,4.46,8.15,6.2,9.17c1.48,1.34,3.05,2.57,4.7,3.69C8.36,11.3,5.82,9.75,3.06,8.63c2.49,1.55,5.36,2.99,7.8,4.6
	c0.5,0.31,1,0.62,1.5,0.93c0.28,0.32,0.57,0.64,0.87,0.95c-0.22-0.1-0.44-0.2-0.66-0.3C8.66,13.02,4.34,11.47,0,11.99
	c4.32,0.07,8.53,1.25,12.43,3.12c0.41,0.18,0.81,0.37,1.21,0.56c-0.45,0.26-0.89,0.58-1.33,0.97c-2.8-1.35-5.64-2.89-8.53-3.95
	c1.41,0.83,3.51,1.88,5,2.57c0.98,0.46,1.94,0.97,2.91,1.45c-1.64-0.21-3.21-0.67-4.77-1.19c-1.24-0.87-2.46-1.78-3.73-2.58
	c0.86,0.77,1.75,1.52,2.67,2.22c-1-0.35-2-0.7-3.01-1.01c1.27,0.64,2.58,1.21,3.92,1.68c0.48,0.34,0.96,0.66,1.46,0.97
	C6.49,16.08,4.71,15.38,3,14.82c1.61,0.83,3.41,1.59,5.18,2.32c-2.19-0.32-4.4-0.5-6.61-0.26c1.94,0.14,3.87,0.26,5.79,0.47
	c0.71,0.09,1.42,0.21,2.13,0.33c0.17,0.07,0.33,0.14,0.5,0.21c-0.97,0.08-1.94,0.23-2.89,0.45c-0.24-0.01-0.47-0.02-0.69-0.02
	c0.12,0.03,0.26,0.06,0.39,0.08c-0.45,0.11-0.9,0.23-1.35,0.38c0.65-0.09,1.31-0.17,1.96-0.25c1.17,0.21,2.51,0.4,3.55,0.5
	c0.61,0.08,1.21,0.15,1.81,0.23c0.6,0.36,1.18,0.73,1.79,1.07c-0.43,0.01-0.87,0.01-1.3,0c-3.89,0.1-7.83,0.36-11.57,1.47
	c3.84-0.53,7.69-1.13,11.58-1.14c0.63,0,1.26-0.01,1.89-0.02c0.1,0.05,0.21,0.1,0.31,0.15c-0.28,0.04-0.57,0.09-0.85,0.13
	c-0.95,0.14-5.58,0.72-6.42,0.92c-1.28,0.31-2.47,0.75-3.73,1.13c1.72-0.19,3.36-0.77,5.07-1.02l5.13-0.7
	c0.46-0.07,0.92-0.15,1.38-0.22c0.21,0.08,0.41,0.15,0.63,0.21c0.02,0,0.03,0.01,0.05,0.01c-2.27,0.54-4.54,1.01-6.7,1.54
	c-1.44,0.31-3.5,0.83-4.88,1.3c2.85-0.37,7.02-1.49,9.86-2.12c0.79-0.21,1.6-0.39,2.41-0.57c0.86,0.16,1.74,0.19,2.59,0.08
	c-3.66,1.45-7.55,2.1-11.38,2.91c2.87-0.05,5.68-0.81,8.44-1.57c1.66-0.55,3.41-1.06,4.98-1.87c-1.01,0.7-2.05,1.36-3.13,1.95
	c-0.96,0.57-1.98,1.07-2.99,1.58c-1.19,0.11-2.51,0.11-3.98,0.05c-0.71,0.02-1.41,0-2.12-0.02c0.69,0.16,1.4,0.26,2.11,0.35
	c1.06,0.04,2.15,0.06,3.23,0c-0.88,0.45-1.76,0.9-2.59,1.4c0.58-0.18,1.14-0.39,1.7-0.6l1.62-0.79c0.05-0.03,0.11-0.06,0.16-0.08
	c1.48-0.15,2.94-0.48,4.28-1.16c1.15-0.64,2.2-1.5,3.03-2.54c-1.4,2.68-2.14,6.4-1.82,8.94c0.04,0.26,0.08,0.52,0.12,0.77
	c0.05-0.52,0.04-1.04,0.11-1.55c-0.04-3.12,0.9-6.08,2.26-8.83c-0.27,0.78-0.51,1.57-0.71,2.36l-0.17,0.65
	c-0.01,0.23-0.01,0.46,0.01,0.69c0.47-0.78,0.53-1.7,0.83-2.55c0.15-0.59,0.39-1.15,0.57-1.73c0.07,7.02,0.14,19.24,0.01,34.19
	c-0.24,0.22-0.5,0.65-0.65,1.48c-0.25,1.41-0.5,4.6-0.49,7.97l-0.01,0.47c-0.05,2.18-0.15,6.24,1.35,6.46
	c0.08,0.01,0.15,0.02,0.22,0.02c0.57,0,0.89-0.4,1.26-1.58c0.38-1.2,0.48-5.3,0.25-10.2c-0.14-3-0.57-4.15-0.93-4.59
	c0.03-14.72-0.18-26.81-0.35-33.94c0.38,0.67,0.8,1.31,1.13,2.01c0.45,1.02,0.98,2.14,1.48,3.13l0.52,1.03
	c0.22,0.32,0.43,0.64,0.67,0.95c-0.42-1.44-1.26-2.75-1.9-4.2c-0.32-0.73-0.67-1.48-1.08-2.18c1.03,1.44,1.58,3.18,2.67,4.58
	c-0.08-0.32-0.18-0.63-0.28-0.95l-0.44-0.86c-0.46-0.85-0.89-1.75-1.41-2.58c1.02,0.96,1.98,1.97,2.9,3.03
	c0.49,0.59,0.98,1.15,1.57,1.65c-0.71-1.37-1.83-2.43-2.86-3.55c-0.68-0.67-1.33-1.38-2.06-2c1.6,0.95,3.49,1.4,5.3,1.76
	c2.41,0.37,4.89,0.66,7.3,0.2c-4.19-0.15-8.59-0.17-12.39-2.19c-0.36-0.13-0.7-0.31-1.04-0.5c0.11,0.03,0.21,0.05,0.32,0.08
	c0.77,0.46,1.6,0.8,2.48,1.03c1.72,0.49,3.52,0.53,5.29,0.47c1.19,0.02,2.3-0.54,3.13-1.39c0.57-0.08,1.13-0.17,1.69-0.28
	c1.49-0.28,2.98-0.7,4.31-1.47c-1.85,0.61-3.74,1.06-5.65,1.36c0.15-0.19,0.29-0.39,0.42-0.6c1.46-0.28,2.91-0.56,4.38-0.75
	c1.65-0.23,4.02-0.66,5.62-1.04c-3.24,0.24-6.57,0.83-9.8,1.41c0.04-0.08,0.08-0.16,0.11-0.24c-0.07,0.09-0.14,0.17-0.21,0.26
	c-0.47,0.09-0.95,0.17-1.42,0.25c-1.86,0.39-3.74,0.65-5.64,0.7c-0.26,0-0.51,0-0.77,0c0.07-0.02,0.14-0.04,0.21-0.06
	C30.12,19.14,30.42,19.1,30.72,19.05z M22.71,17.27c0.12,0.13,0.24,0.26,0.36,0.39c-0.36-0.3-0.72-0.59-1.08-0.89
	C22.24,16.93,22.48,17.1,22.71,17.27z M23.2,18.02c-0.24-0.15-0.48-0.29-0.73-0.44c-0.02-0.01-0.04-0.02-0.06-0.03
	c-0.09-0.07-0.18-0.15-0.27-0.22c-0.51-0.41-1.01-0.82-1.51-1.24C21.46,16.76,22.32,17.4,23.2,18.02z M23.22,18.69
	c-0.13-0.03-0.25-0.07-0.38-0.1c-0.09-0.04-0.18-0.09-0.26-0.13c0.11,0.05,0.23,0.09,0.34,0.14c0.07,0.02,0.13,0.04,0.2,0.06
	C23.15,18.66,23.18,18.68,23.22,18.69z M15.02,18.23c0.1,0.01,0.21,0.02,0.31,0.04c0.07,0.02,0.13,0.04,0.2,0.07
	c-0.41-0.05-0.83-0.1-1.24-0.16C14.54,18.19,14.78,18.21,15.02,18.23z M14.33,17.56c0.98,0.23,1.97,0.46,2.96,0.67
	c-0.64-0.11-1.28-0.2-1.93-0.29C15.02,17.82,14.68,17.69,14.33,17.56z M17.24,18.84c1.12,0.29,2.27,0.49,3.41,0.54
	c-1.58,0.07-3.16-0.04-4.69-0.44c-1.19-0.29-2.41-0.46-3.61-0.74c0.25,0.04,0.49,0.09,0.74,0.13
	C14.47,18.54,15.86,18.71,17.24,18.84z M14.84,16.23c1.16,0.54,2.32,1.08,3.5,1.58c0.38,0.15,0.77,0.31,1.17,0.46
	c-0.13-0.02-0.25-0.03-0.38-0.05c-0.57-0.09-1.13-0.19-1.69-0.31C16.49,17.5,15.63,16.91,14.84,16.23z M14.42,15.67
	c0.09-0.04,0.18-0.07,0.27-0.11c2.2,1.26,4.49,2.37,6.92,3c-0.09-0.01-0.19-0.02-0.28-0.03C18.93,17.84,16.68,16.73,14.42,15.67z
	 M14.56,12.46c0.83,0.83,1.73,1.59,2.66,2.3c-0.16,0-0.32,0-0.49,0c-0.06-0.04-0.11-0.07-0.17-0.11
	C15.84,13.98,15.19,13.23,14.56,12.46z M15.6,14.44c-0.13-0.08-0.25-0.16-0.38-0.24c0.12,0.08,0.24,0.15,0.36,0.23
	C15.59,14.43,15.59,14.43,15.6,14.44z M17.22,15.86c0.17,0.14,0.35,0.27,0.53,0.41c-0.75-0.3-1.49-0.63-2.21-1
	c0.19-0.05,0.37-0.09,0.56-0.13C16.47,15.39,16.84,15.63,17.22,15.86z M18.79,17.02c0.06,0.04,0.12,0.08,0.18,0.12
	c0.3,0.2,0.61,0.38,0.93,0.55c-1.27-0.45-2.5-0.98-3.68-1.67c-0.14-0.08-0.28-0.15-0.42-0.23C16.77,16.25,17.77,16.65,18.79,17.02z
	 M21.52,17.61c-1.47-0.79-2.89-1.66-4.31-2.55c0.16,0.01,0.32,0.02,0.47,0.04c0.89,0.65,1.8,1.23,2.7,1.75
	c0.4,0.27,0.81,0.53,1.23,0.79C21.59,17.63,21.55,17.62,21.52,17.61z M19.4,15.49c0.53,0.45,1.06,0.89,1.59,1.32
	c-0.12-0.07-0.25-0.13-0.37-0.2c-0.61-0.41-1.21-0.84-1.79-1.29C19.02,15.37,19.21,15.43,19.4,15.49z M14.76,10.89
	c0.16,0.16,0.33,0.31,0.49,0.47c1.07,1.32,2.27,2.5,3.54,3.62c-0.18-0.04-0.36-0.08-0.54-0.11c-0.27-0.23-0.54-0.45-0.8-0.69
	c-1.22-1.13-2.24-2.44-3.21-3.8C14.42,10.54,14.59,10.72,14.76,10.89z M13.09,9.17c1.05,1.84,2.4,3.5,3.89,4.99
	c-2.45-1.95-4.55-4.33-5.96-7.14C11.72,7.73,12.41,8.45,13.09,9.17z M13.52,11.36c0.27,0.49,0.57,0.97,0.9,1.42
	c-0.42-0.46-0.84-0.92-1.24-1.39c-0.9-1.17-1.6-2.46-2.18-3.82C11.62,8.92,12.49,10.19,13.52,11.36z M7.68,10.04
	c0.96,0.56,1.92,1.11,2.83,1.63c0.15,0.3,0.32,0.59,0.51,0.87C9.88,11.74,8.78,10.89,7.68,10.04z M10.58,11.05
	C9.79,9.28,9.42,7.31,9.13,5.4C9.11,5.28,9.09,5.16,9.07,5.04c0.33,0.34,0.66,0.67,0.99,1c0.65,2,1.6,3.89,2.86,5.55
	c0.52,0.61,1.06,1.2,1.61,1.78c-1.14-0.71-2.29-1.4-3.47-2.04C10.9,11.24,10.74,11.14,10.58,11.05z M11.94,13.18
	c-0.2-0.24-0.4-0.48-0.6-0.72c-0.1-0.15-0.18-0.31-0.27-0.46c0.65,0.38,1.27,0.74,1.84,1.08c0.92,0.59,1.85,1.2,2.77,1.81
	c-0.21,0.04-0.41,0.09-0.62,0.16c-0.33-0.17-0.65-0.35-0.97-0.54C13.36,14.09,12.64,13.65,11.94,13.18z M13.33,14.76
	c0.32,0.19,0.64,0.39,0.97,0.57c-0.09,0.04-0.19,0.09-0.28,0.13C13.78,15.24,13.55,15,13.33,14.76z M13.97,15.87
	c0.69,0.67,1.42,1.28,2.22,1.77c-1.12-0.25-2.24-0.53-3.36-0.76c-0.13-0.06-0.27-0.13-0.4-0.19C12.93,16.41,13.45,16.12,13.97,15.87
	z M7.95,16.21c0.95,0.29,1.9,0.53,2.88,0.71c0.63,0.06,1.23,0.15,1.83,0.27c0.39,0.19,0.78,0.37,1.18,0.53
	c0.11,0.04,0.21,0.08,0.32,0.12c-0.71-0.04-1.43-0.05-2.14-0.05c-0.64-0.12-1.29-0.23-1.93-0.35C9.35,17.09,8.64,16.67,7.95,16.21z
	 M11.01,18.69c-0.77-0.11-1.73-0.21-2.66-0.28c0.78-0.09,1.57-0.17,2.36-0.22c0.2,0.08,0.4,0.17,0.59,0.25
	c0.25,0.11,0.5,0.24,0.74,0.37C11.69,18.78,11.35,18.74,11.01,18.69z M12.1,18.48c1.26,0.3,2.54,0.48,3.79,0.78
	c0.3,0.08,0.61,0.14,0.92,0.2c-0.03,0-0.07,0-0.1,0c-1.26-0.2-2.54-0.37-3.82-0.53C12.63,18.78,12.37,18.62,12.1,18.48z M15.25,20.3
	c-0.56-0.28-1.11-0.61-1.65-0.95c1.03,0.14,2.06,0.28,3.09,0.44c1.37,0.06,2.76,0.06,4.14-0.05C18.98,20.07,17.12,20.25,15.25,20.3z
	 M16.09,20.68c-0.06-0.02-0.11-0.05-0.17-0.07c0.27-0.01,0.55-0.02,0.82-0.04C16.53,20.61,16.31,20.64,16.09,20.68z M16.77,20.91
	c1.01-0.17,2.02-0.35,3.02-0.55c0.5-0.1,1.01-0.21,1.51-0.33c-1.26,0.39-2.55,0.73-3.85,1.05C17.22,21.02,17,20.97,16.77,20.91z
	 M16.93,24.36c0.73-0.38,1.46-0.77,2.18-1.17c1.71-1.01,3.51-1.99,4.95-3.39C21.91,22.69,19.75,23.92,16.93,24.36z M22.73,20.24
	c-0.2,0.1-0.4,0.2-0.61,0.3c-1.18,0.52-2.49,0.75-3.78,0.65c1.95-0.46,3.88-0.99,5.62-1.96c0,0,0.01,0,0.01,0
	c0.05,0.02,0.1,0.03,0.15,0.05C23.69,19.65,23.23,19.97,22.73,20.24z M23.77,18.56c0.14,0.07,0.29,0.15,0.43,0.23c0,0,0,0.01,0,0.01
	c-0.01,0-0.02,0-0.03,0c-0.05-0.03-0.11-0.06-0.16-0.08C23.92,18.66,23.85,18.61,23.77,18.56z M24.18,19.22
	c-0.02-0.01-0.05-0.02-0.08-0.03c0.03-0.01,0.07-0.02,0.1-0.03c0,0.01,0.01,0.02,0.01,0.03C24.2,19.2,24.19,19.21,24.18,19.22z
	 M24.25,18.64c-0.01-0.01-0.03-0.02-0.04-0.03c-0.05-0.05-0.1-0.11-0.15-0.16c0.07,0.06,0.13,0.11,0.2,0.17
	C24.26,18.62,24.26,18.63,24.25,18.64z M25.31,19.33c0,0,0.01-0.01,0.01-0.01c0.01,0,0.01,0,0.02,0c0.01,0.01,0.02,0.01,0.03,0.02
	C25.35,19.34,25.33,19.33,25.31,19.33z M25.35,18.62c0.01-0.01,0.01-0.01,0.02-0.02c0.05-0.03,0.1-0.05,0.15-0.08
	c-0.05,0.04-0.1,0.09-0.15,0.13C25.36,18.64,25.35,18.63,25.35,18.62z M25.67,18.99c-0.08,0.01-0.16,0.02-0.24,0.03c0,0,0,0,0,0
	c0.09-0.01,0.19-0.03,0.28-0.04C25.7,18.98,25.68,18.99,25.67,18.99z M25.5,18.33c-0.06,0.04-0.12,0.07-0.18,0.11
	c0.09-0.09,0.18-0.18,0.25-0.28c0.1-0.09,0.2-0.19,0.3-0.29C25.75,18.02,25.63,18.18,25.5,18.33z M25.86,17.06
	c-0.05,0.08-0.09,0.17-0.13,0.25c0.12-0.28,0.24-0.57,0.34-0.87C26.01,16.65,25.94,16.86,25.86,17.06z M32.34,17.75
	c-0.29,0.09-0.59,0.17-0.88,0.24c-0.92,0.2-1.85,0.39-2.78,0.56c-0.15,0.02-0.3,0.05-0.45,0.07c2.35-0.58,4.64-1.41,6.93-2.19
	c-0.9,0.45-1.82,0.87-2.73,1.28C32.39,17.72,32.36,17.74,32.34,17.75z M38.39,15.38c2.49-0.78,4.97-1.55,7.33-2.68
	c-2.87,1.7-5.89,3.14-9.1,4.03c-0.68,0.19-1.36,0.36-2.04,0.54c0.43-0.19,0.85-0.39,1.27-0.61C36.68,16.23,37.53,15.81,38.39,15.38z
	 M37.7,14.01c1.27-0.59,2.52-1.21,3.72-1.89c-0.67,0.55-1.34,1.11-2.02,1.65c-0.79,0.64-1.63,1.2-2.5,1.71
	c-1.9,0.62-3.79,1.32-5.69,1.92c0.9-0.38,1.79-0.79,2.67-1.23C35.17,15.48,36.45,14.77,37.7,14.01z M34.63,15.41
	c-0.3,0.16-0.6,0.32-0.9,0.47c-1.05,0.54-2.13,1.02-3.22,1.45c0.07-0.04,0.15-0.08,0.22-0.12c0.28-0.15,0.56-0.31,0.83-0.46
	c0.76-0.33,1.52-0.66,2.28-0.98C34.1,15.64,34.37,15.53,34.63,15.41z M31.56,16.39C31.56,16.39,31.56,16.39,31.56,16.39
	C31.56,16.39,31.56,16.39,31.56,16.39C31.56,16.39,31.56,16.39,31.56,16.39z M35.72,11.51c1.53-1.12,3.2-2.18,4.89-3.22
	c-0.93,0.96-1.92,1.85-3.01,2.63c-1.82,1.26-3.69,2.47-5.59,3.62C33.22,13.49,34.44,12.45,35.72,11.51z M30.48,15.83
	c1.62-0.95,3.22-1.93,4.79-2.95c2.34-1.44,4.59-3.16,6.4-5.25c0.74-0.46,1.49-0.92,2.22-1.38c-1.38,2-2.9,3.91-4.75,5.46
	c-3.2,2.44-6.94,4.04-10.6,5.67C29.21,16.88,29.85,16.36,30.48,15.83z M31.08,14.17c-0.58,0.49-1.17,0.98-1.77,1.45
	c1.18-1.02,2.32-2.11,3.44-3.21C32.21,13.01,31.65,13.6,31.08,14.17z M36.48,8.59c0.25-0.19,0.49-0.38,0.74-0.56
	c0.28-0.21,0.6-0.44,0.92-0.69c-1.03,1.12-2.09,2.22-3.19,3.29c-0.48,0.47-0.96,0.94-1.45,1.39c0.47-0.56,0.91-1.13,1.34-1.71
	C35.39,9.73,35.94,9.16,36.48,8.59z M27.97,15.14c0.32-0.57,0.61-1.16,0.86-1.76c0.41-1.06,0.8-2.14,1.09-3.25
	c-0.4,1.62-0.92,3.27-1.68,4.78C28.17,14.97,28.07,15.05,27.97,15.14C27.97,15.14,27.97,15.14,27.97,15.14z M27.66,16.56
	c0.25-0.37,0.47-0.76,0.68-1.15c0.32-0.32,0.64-0.65,0.95-0.97c1.74-1.51,3.51-2.97,5.31-4.39c-0.04,0.06-0.09,0.13-0.13,0.19
	c-0.31,0.32-0.63,0.64-0.95,0.96c-1.86,1.9-3.84,3.67-5.87,5.38C27.65,16.57,27.66,16.56,27.66,16.56z M27.19,16.54
	c0.08-0.07,0.16-0.15,0.23-0.22c-0.27,0.41-0.56,0.8-0.88,1.17c-0.08,0.06-0.15,0.13-0.23,0.19C26.64,17.32,26.93,16.94,27.19,16.54
	z M26.31,19.42c-0.01,0-0.01,0-0.02-0.01c0.04,0,0.07,0.01,0.11,0.01C26.37,19.42,26.34,19.42,26.31,19.42z M26.45,18.04
	c0.02-0.02,0.04-0.04,0.06-0.07c0.02-0.01,0.04-0.02,0.05-0.03C26.53,17.98,26.49,18.01,26.45,18.04z M28.25,17.1
	c0.17-0.1,0.34-0.19,0.51-0.29c-0.52,0.41-1.06,0.8-1.62,1.12C27.52,17.67,27.88,17.39,28.25,17.1z M28.26,18.08
	c-0.09,0.04-0.19,0.08-0.28,0.12c-0.12,0.04-0.25,0.07-0.37,0.11C27.83,18.23,28.04,18.16,28.26,18.08z M33.42,20.7
	c-1.8,0.08-3.62-0.02-5.35-0.5c1.72,0.27,3.66,0.19,5.35-0.24c0.87-0.05,1.73-0.13,2.59-0.24C35.26,20.31,34.41,20.72,33.42,20.7z
	 M28.64,19.94c0.58,0.04,1.17,0.06,1.76,0.07c-0.05,0-0.11,0.01-0.16,0.01C29.7,20.03,29.17,20,28.64,19.94z M30.38,19.57
	c2.26-0.06,4.47-0.46,6.68-0.87c-0.19,0.21-0.39,0.42-0.6,0.62c-0.57,0.08-1.15,0.15-1.73,0.21c0.39-0.16,0.75-0.34,1.08-0.55
	c-0.85,0.23-1.7,0.47-2.56,0.66c-1.84,0.1-3.69,0.07-5.52-0.09C28.62,19.59,29.5,19.6,30.38,19.57z M27.76,19.06
	c0.3-0.06,0.61-0.12,0.91-0.17c0.68-0.09,1.36-0.21,2.03-0.36c-0.31,0.12-0.62,0.23-0.94,0.33C29.1,18.93,28.43,19,27.76,19.06z"/>
</svg>
