<?xml version="1.0" encoding="utf-8"?>
<!-- Generator: Adobe Illustrator 26.3.1, SVG Export Plug-In . SVG Version: 6.00 Build 0)  -->
<svg version="1.1" id="Layer_1" xmlns="http://www.w3.org/2000/svg" xmlns:xlink="http://www.w3.org/1999/xlink" x="0px" y="0px"
	 viewBox="0 0 28.13 39.17" enable-background="new 0 0 28.13 39.17" xml:space="preserve">
<path fill="#FFFFFF" d="M27.5,13.89c-2.14,0.15-4.27,0.5-6.42,0.38c-1-0.04-2-0.13-3-0.23c0.68,0.02,1.34,0.04,1.9,0.07
	c0.86,0.02,1.72,0,2.58-0.01l1.29-0.03c0.43-0.04,0.86-0.08,1.28-0.14c-1.69-0.12-3.46,0.03-5.15-0.02
	c-0.22-0.01-0.46-0.01-0.71-0.02c0.49-0.08,0.98-0.19,1.44-0.36c0.01,0,0.03-0.01,0.04-0.02c0.27-0.03,0.54-0.07,0.81-0.1
	c2.23-0.36,4.47-0.83,6.57-1.69c-2.17,0.52-4.31,1.16-6.53,1.48c0.78-0.28,1.55-0.58,2.31-0.9c0.95-0.22,1.89-0.49,2.79-0.85
	c-0.61,0.13-1.21,0.27-1.81,0.41c0.37-0.18,0.74-0.36,1.1-0.56l-1.35,0.48c-0.25,0.1-0.5,0.21-0.75,0.31
	c-1.04,0.24-2.09,0.47-3.14,0.65c-0.72,0.14-1.46,0.25-2.19,0.35c0.65-0.19,1.29-0.4,1.93-0.61c1.87-0.67,3.77-1.31,5.49-2.31
	c-1.86,0.68-3.67,1.5-5.55,2.12c-0.98,0.34-1.98,0.63-2.98,0.88c0.23-0.11,0.46-0.22,0.68-0.33c0.99-0.55,2.03-1.09,2.81-1.92
	c-1.46,0.88-2.87,1.86-4.46,2.46c-0.19,0.03-0.38,0.06-0.57,0.09c0.07-0.05,0.15-0.09,0.22-0.14c3.32-1.4,7.66-4.37,9.7-7.06
	c-1.62,1.57-3.31,3.09-5.2,4.34c-1.08,0.75-2.22,1.38-3.38,1.98c0.69-0.48,1.37-0.97,2.04-1.48c1.57-1.23,3.26-2.48,4.65-3.92
	c-1.62,1.18-3.16,2.58-4.77,3.77c-0.99,0.78-2.04,1.49-3.09,2.18c0.51-0.37,0.99-0.8,1.44-1.2c0.64-0.58,1.24-1.21,1.81-1.86
	c0.62-0.47,1.24-0.94,1.8-1.46c-0.3,0.17-0.59,0.35-0.89,0.53c0,0-0.14,0.1-0.3,0.22c0.22-0.27,0.43-0.53,0.64-0.81
	c0.53-0.69,1.01-1.42,1.37-2.21c-0.88,1.2-1.73,2.43-2.71,3.55c-0.72,0.56-1.46,1.13-2.16,1.72c0.36-0.38,0.71-0.77,1.07-1.14
	c0.9-1,2.33-2.42,3.08-3.52c-0.52,0.46-1.18,1.14-1.64,1.67L18,10.34c-0.83,0.9-1.7,1.76-2.54,2.64c0.33-0.44,0.82-1.07,1.04-1.35
	l0.87-1.11l0.44-0.55c0.12-0.2,0.25-0.4,0.36-0.61c-0.18,0.16-0.35,0.33-0.52,0.49l-0.44,0.55l-0.87,1.11l-0.11,0.15
	c0.26-0.42,0.53-0.84,0.82-1.25c0.36-0.53,0.73-1.05,1.1-1.57c0.34-0.45,0.8-1.11,1.04-1.61c-0.21,0.24-0.43,0.48-0.64,0.72
	c-0.55,0.75-1.15,1.58-1.66,2.35c-0.25,0.38-0.5,0.75-0.75,1.13c0.02-0.05,0.05-0.1,0.07-0.15l1.17-2.36
	c0.66-1.36,1.74-3.36,2.25-4.77c-0.81,1.27-1.74,3.32-2.43,4.68l-1.17,2.36c-0.12,0.24-0.24,0.47-0.36,0.71
	c0.15-0.37,0.59-1.42,0.59-1.42c0.22-0.55,0.81-2,1.01-2.53c0.08-0.3,0.16-0.59,0.22-0.89l-0.4,0.82c-0.2,0.54-0.78,1.98-1.01,2.53
	l-0.69,1.68l-0.25,0.6c0.23-1.02,0.43-2.06,0.79-3.03c0.55-1.39,1.2-2.86,1.52-4.33c-0.29,0.6-0.65,1.49-0.86,2.13
	c-0.17,0.46-0.35,0.91-0.53,1.36c0.12-0.38,0.26-0.76,0.41-1.14c0.08-0.3,0.19-0.59,0.3-0.88c-0.73,1.02-0.99,2.28-1.34,3.46
	c-0.11,0.41-0.22,0.82-0.35,1.23c0.1-1.28,0.31-3.68,0.4-4.68c0.21-2.26,0.41-4.59-0.17-6.81c0.1,1.13,0.16,2.26,0.18,3.4
	c0.01,1.13-0.12,2.26-0.21,3.4c-0.1,1.11-0.36,4.03-0.44,5.1c0,0.09,0,0.2,0,0.3c-0.08,0.22-0.14,0.45-0.18,0.69
	c-0.03-0.11-0.07-0.23-0.11-0.36c0.09-0.7,0.3-2.5,0.38-3.2c0.12-1.24,0.41-3.08,0.34-4.32c-0.13,0.63-0.25,1.5-0.3,2.14l-0.23,2.15
	l-0.25,2.15c-0.03,0.19-0.05,0.39-0.08,0.6c-0.1-0.34-0.2-0.66-0.25-0.85l-0.4-1.37l-0.2-0.68c-0.1-0.22-0.19-0.44-0.29-0.66
	c0.03,0.24,0.07,0.47,0.1,0.71l0.2,0.68l0.4,1.37l0.39,1.32c-0.01,0.13-0.02,0.26-0.03,0.39c-0.43-1.58-0.94-3.68-1.33-5.2
	c-0.48-1.85-1.01-3.72-1.92-5.41c0.58,1.82,1.3,3.59,1.73,5.46c0.22,0.77,0.42,1.71,0.66,2.65c-0.81-2.29-1.21-4.73-2.17-6.97
	c0.14,0.74,0.42,1.78,0.65,2.5c0.5,1.65,0.87,3.34,1.48,4.95l0.44,1.21c0.15,0.32,0.3,0.64,0.45,0.95c0,0.01,0,0.03,0,0.04
	c-0.53-1.2-1.23-2.33-1.88-3.47c-0.8-1.3-1.53-2.66-2.56-3.8c0.73,1.32,1.64,2.59,2.39,3.9c0.55,0.9,1.03,1.83,1.55,2.75
	c-0.11-0.15-0.22-0.29-0.34-0.44l-0.11-0.21l-0.6-1.11l-0.3-0.55c-0.13-0.17-0.25-0.34-0.39-0.5c0.06,0.21,0.14,0.4,0.22,0.6
	l0.3,0.55l0.01,0.02c-0.05-0.07-0.1-0.13-0.14-0.2c-0.75-1.06-1.36-2.27-2.14-3.32c0.12,0.31,0.26,0.61,0.4,0.91l0.51,0.85
	c0.34,0.56,0.7,1.12,1.07,1.67c0.35,0.49,0.69,0.99,1.06,1.47l0.12,0.21c-0.13-0.14-0.27-0.28-0.41-0.42
	c-0.22-0.27-0.43-0.55-0.64-0.83c-0.69-0.96-1.21-2.04-1.82-3.07c-1.2-2.01-2.45-4.15-3.89-6.01c1.13,2.02,2.57,4.1,3.72,6.11
	c0.5,0.87,0.98,1.79,1.54,2.65c-0.08-0.08-0.16-0.17-0.23-0.25c-0.64-0.9-1.25-1.82-1.82-2.77C9.72,7.56,9.51,7.22,9.31,6.88
	L8.63,5.89c0.55,1.3,1.34,2.47,2.11,3.65C9.65,8.27,8.6,6.85,7.4,5.68C7.85,6.35,8.52,7.2,9.05,7.82c0.58,0.69,1.14,1.39,1.73,2.07
	c0.26,0.3,0.52,0.58,0.79,0.87c0.19,0.28,0.38,0.55,0.58,0.82c-0.74-0.68-1.37-1.46-2.11-2.15c0.52,0.95,1.34,1.68,2.11,2.42
	c-0.26-0.18-0.53-0.36-0.79-0.54c-0.85-0.71-1.68-1.39-2.36-1.97C7.4,8.01,5.07,5.94,3.39,4.74C4.87,6.2,7.3,8.13,8.89,9.49
	c0.21,0.18,0.44,0.37,0.67,0.56c-0.24-0.17-0.47-0.33-0.7-0.5c-2.04-1.44-4.2-2.9-6.68-3.44c2.35,0.87,4.54,2.11,6.56,3.6
	c0.1,0.07,0.19,0.14,0.29,0.2C7.3,8.8,5.55,7.63,3.56,7.06c1.96,0.93,3.85,2,5.66,3.21c0.71,0.47,1.4,0.96,2.09,1.47
	c-0.61-0.4-1.19-0.78-1.53-1C8.18,9.7,6.51,8.67,4.67,8.12c1.7,0.87,3.42,1.69,5,2.78c0.24,0.16,0.61,0.4,1.02,0.66
	c-0.05-0.03-0.1-0.06-0.15-0.08C8.15,10.1,5.65,8.76,3.05,7.84C4.98,8.88,7.09,9.75,9,10.83c0.4,0.23,0.81,0.46,1.21,0.7
	c-0.23-0.11-0.45-0.22-0.68-0.34c-1.84-0.89-3.74-1.91-5.67-2.62c1.78,1.02,3.76,1.86,5.58,2.79c0.49,0.24,0.98,0.49,1.46,0.74
	c-0.68-0.2-1.41-0.42-2.12-0.63C7.5,10.97,6.24,10.43,5,9.82L4.26,9.44C3.55,9.01,2.77,8.67,2.16,8.1C2.87,8.96,3.94,9.49,4.91,10
	c0.6,0.3,1.21,0.57,1.82,0.84c-0.36-0.11-0.69-0.22-1-0.33c-1.82-0.67-3.4-1.83-4.88-3.06c0.98,1.13,2.2,2,3.52,2.67
	C3.83,9.93,3.28,9.76,2.73,9.64c1.2,0.62,2.65,1.02,3.93,1.47c1.04,0.33,2.08,0.71,3.15,0.95c0.83,0.3,1.66,0.6,2.5,0.88
	c-0.3-0.09-0.6-0.17-0.87-0.25c-2.29-0.63-4.62-1.08-6.97-1.4c-1.17-0.17-2.36-0.28-3.54-0.26c3.51,0.46,7.04,0.88,10.46,1.86
	c0.43,0.11,1.28,0.37,1.7,0.51c0.25,0.06,0.49,0.13,0.73,0.2c0,0,0.01,0.01,0.01,0.01c-1.33-0.36-2.72-0.5-4.07-0.71
	c-1.66-0.2-3.4-0.49-5.08-0.48c1.64,0.33,3.4,0.43,5.05,0.67c1.35,0.16,2.7,0.42,4.04,0.64c-0.12,0-0.24,0.01-0.34,0.01
	c-2.81-0.52-5.69-0.74-8.54-0.88c-0.02,0-0.04-0.01-0.05-0.01l-1.66-0.29l-1.68-0.21c0.61,0.17,1.24,0.31,1.87,0.44
	c-0.91-0.03-1.97-0.04-2.75,0.01l1.76,0.15l1.76,0.07c0.22,0.01,0.44,0.02,0.66,0.03c1.04,0.17,2.08,0.32,3.1,0.48
	c-0.3-0.02-0.52-0.04-0.52-0.04c-0.73-0.07-1.75-0.13-2.47-0.1c1.38,0.29,3.5,0.36,4.92,0.48c0.27,0.02,0.53,0.04,0.8,0.06
	c-1.38,0.11-2.78,0.19-4.13,0.15c-2.06-0.05-4.44-0.2-6.49-0.11c1.71,0.19,3.83,0.21,5.56,0.27c0.79,0.04,1.59,0.05,2.38,0.02
	c-1.05,0.07-2.1,0.11-3.12,0.24c1.63,0.14,3.34-0.05,4.96-0.2c0.17-0.02,0.35-0.04,0.52-0.06c-0.16,0.03-0.32,0.07-0.48,0.1
	c-0.08,0.02-0.16,0.04-0.24,0.06c-0.34,0.03-0.68,0.06-1.02,0.08c-0.61,0.02-1.47,0.1-2.06,0.21c0.35,0.03,0.69,0.04,1.04,0.05
	c0.31-0.02,0.62-0.04,0.94-0.06C7.63,14.91,6.8,15.16,6,15.5c-1.25,0.15-2.49,0.27-3.74,0.44c1.04,0.04,2.09-0.03,3.12-0.15
	c-0.05,0.03-0.11,0.05-0.16,0.08c0.11-0.03,0.22-0.07,0.33-0.1c1.01-0.12,2.01-0.28,3.01-0.43c1.71-0.3,3.42-0.59,5.09-1.07
	c-0.56,0.23-1.11,0.47-1.69,0.65c-0.93,0.34-1.92,0.51-2.83,0.91c0.25-0.02,0.5-0.06,0.75-0.09l0.72-0.2
	c0.39-0.11,0.77-0.23,1.16-0.35c-0.46,0.18-0.91,0.37-1.33,0.63c0.21-0.03,0.4-0.08,0.61-0.12l0.57-0.23
	c0.39-0.16,0.77-0.33,1.16-0.5c-0.56,0.35-1.16,0.65-1.74,0.98L9.06,17c-0.62,0.32-1.34,0.74-1.9,1.14
	c0.65-0.25,1.39-0.63,1.99-0.97l1.95-1.06c0.99-0.53,2.01-1.08,2.91-1.76c0.08-0.04,0.16-0.09,0.24-0.14c0.01,0,0.02,0,0.03,0
	c-1.16,0.69-2.13,1.66-3.13,2.57c-0.52,0.49-1.03,0.99-1.54,1.5l-0.75,0.77c-0.23,0.28-0.45,0.56-0.67,0.85
	c1.08-0.91,2.05-2.02,3.09-2.97c0.74-0.72,1.54-1.38,2.32-2.06c-0.52,0.5-1.03,1.02-1.55,1.49c-0.88,0.84-1.85,1.58-2.6,2.45
	c0.25-0.16,0.5-0.34,0.74-0.51l0.67-0.59c0.89-0.79,1.77-1.6,2.62-2.44c0.15-0.14,0.3-0.29,0.44-0.45
	c-0.39,0.67-0.73,1.36-1.04,2.07l-0.23,0.55c-0.04,0.2-0.09,0.39-0.12,0.59c0.43-0.67,0.66-1.43,1.03-2.13
	c0.15-0.33,0.33-0.64,0.52-0.95c-0.24,0.49-0.46,0.99-0.66,1.5l-0.18,0.46c-0.03,0.17-0.06,0.33-0.08,0.5
	c0.38-0.54,0.53-1.2,0.82-1.79c0.11-0.28,0.25-0.54,0.39-0.8c-0.4,2.1-1.38,7.01-2.55,13.06c-0.14,0.16-0.29,0.41-0.42,0.81
	c-0.33,0.95-0.87,3.14-1.28,5.47l-0.06,0.33c-0.3,1.51-0.86,4.31,0.04,4.62c0.05,0.02,0.09,0.03,0.14,0.04
	c0.35,0.06,0.6-0.18,0.97-0.96c0.38-0.79,0.94-3.62,1.4-7.05c0.25-1.81,0.18-2.69,0.05-3.12c1.01-5.76,1.8-10.45,2.17-12.76
	c0.11,1.32,0.44,3.12,1.48,3.79c-0.77-1.03-1.14-2.29-1.27-3.56c0.1,0.38,0.2,0.77,0.32,1.15c0.1,0.34,0.23,0.67,0.48,0.93
	c-0.26-0.93-0.57-1.85-0.77-2.81c0.09,0.24,0.2,0.47,0.3,0.68c0.48,0.99,1.08,1.93,1.77,2.79c0.34,0.44,0.72,0.85,1.17,1.16
	c-0.65-0.88-1.4-1.68-1.97-2.61c-0.26-0.4-0.49-0.81-0.71-1.24c0.55,0.84,1.21,1.6,1.84,2.37c1.01,1.24,1.8,2.71,2.73,4.01
	c-0.81-1.86-2.04-3.53-3.35-5.07c-0.64-0.78-1.19-1.63-1.75-2.48c1.37,1.57,2.77,3.13,4.05,4.78c0.41,0.55,1.04,1.3,1.52,1.78
	c-0.79-1.32-1.88-2.52-2.84-3.71c-0.51-0.58-0.99-1.19-1.51-1.77c0.43,0.42,0.85,0.84,1.25,1.28c0.97,1,1.86,2.17,2.88,3.12
	c-0.73-1.15-1.82-2.24-2.74-3.26c-0.59-0.6-1.16-1.24-1.79-1.81c0.43,0.37,0.85,0.74,1.26,1.14c0.87,0.8,1.63,1.71,2.55,2.46
	c-0.17-0.25-0.35-0.48-0.53-0.71l-0.62-0.64c-0.41-0.42-0.83-0.84-1.26-1.25c-0.17-0.15-0.34-0.31-0.5-0.47
	c0.96,0.82,1.91,1.64,2.82,2.52c1.44,1.34,2.8,2.87,4.26,4.2c-1.22-1.59-2.69-2.95-4.12-4.34c-0.62-0.57-1.23-1.15-1.86-1.71
	c0.53,0.41,1.05,0.84,1.55,1.29l0.68,0.5c-0.61-0.82-1.43-1.43-2.24-2.04c0.5,0.29,0.96,0.57,1.25,0.73
	c0.73,0.43,1.45,0.86,2.19,1.26c0.71,0.38,1.43,0.78,2.22,0.95c0.85,0.39,1.73,0.72,2.65,0.95c-1.03-0.45-2.07-0.89-3.08-1.38
	c-1.16-1.09-2.55-1.89-3.92-2.69c-0.36-0.19-0.73-0.39-1.09-0.58c0.66,0.23,1.33,0.45,1.99,0.68c1.7,0.54,3.46,1.19,5.22,1.52
	l-1.27-0.48c-1.26-0.38-2.64-0.81-3.88-1.22c-0.83-0.26-1.64-0.56-2.46-0.86c0.69,0.16,1.37,0.31,2.04,0.47
	c1.66,0.33,3.33,0.72,5.03,0.71c-1.66-0.33-3.34-0.52-4.99-0.9c-1.14-0.23-2.29-0.55-3.44-0.82c0.49,0.07,0.97,0.13,1.46,0.18
	C21.05,14.59,24.34,14.64,27.5,13.89z M12.87,12.14c0.09,0.11,0.18,0.21,0.27,0.32c-0.06-0.05-0.12-0.09-0.17-0.14
	c-0.09-0.11-0.18-0.23-0.26-0.34L12.87,12.14z M13.01,12.66c0.04,0.05,0.08,0.1,0.12,0.14c-0.01,0-0.02-0.01-0.03-0.01
	c-0.1-0.09-0.21-0.18-0.32-0.28C12.86,12.57,12.94,12.61,13.01,12.66z M12.96,13.15c0.08,0.02,0.15,0.04,0.23,0.06
	c0.02,0.01,0.04,0.03,0.06,0.04C13.15,13.21,13.06,13.18,12.96,13.15z M13.74,13.2c0.01,0,0.01,0,0.02,0.01c0,0,0.01,0.01,0.01,0.01
	C13.76,13.21,13.75,13.21,13.74,13.2z M6.72,13.16c1.95,0.13,3.91,0.32,5.84,0.62c-0.18,0.01-0.36,0.03-0.54,0.04
	c-0.31-0.02-0.63-0.04-0.94-0.06C9.63,13.58,8.17,13.38,6.72,13.16z M8.54,15.14c-0.6,0.1-1.19,0.19-1.79,0.27
	c0.96-0.29,1.93-0.58,2.91-0.81c0.33-0.03,0.66-0.06,0.98-0.1c0.81-0.1,1.63-0.18,2.43-0.33c0.09,0.01,0.19,0.01,0.28,0.02
	C11.75,14.52,10.16,14.9,8.54,15.14z M13.83,14.09c-0.01,0-0.03,0-0.04,0c0.03,0,0.06,0,0.09,0C13.86,14.08,13.84,14.09,13.83,14.09
	z M13.86,13.45c0.06,0.02,0.12,0.05,0.19,0.07l0.02,0.04c-0.06-0.03-0.1-0.04-0.1-0.04c-0.01,0-0.02-0.01-0.03-0.01
	C13.91,13.5,13.88,13.48,13.86,13.45z M13.94,13.84c-0.02,0-0.04-0.01-0.06-0.01c0.08-0.01,0.15-0.02,0.22-0.03
	c0.01,0.01,0.01,0.01,0.02,0.02C14.06,13.82,14,13.83,13.94,13.84z M14.21,13.8C14.21,13.8,14.21,13.8,14.21,13.8
	C14.21,13.8,14.22,13.8,14.21,13.8C14.22,13.8,14.22,13.8,14.21,13.8z M14.24,13.89C14.24,13.89,14.24,13.89,14.24,13.89
	C14.24,13.89,14.24,13.89,14.24,13.89C14.24,13.89,14.24,13.89,14.24,13.89z M14.12,13.22c-0.03-0.04-0.03-0.04-0.06-0.07
	l-0.04-0.07c0.07,0.08,0.14,0.15,0.21,0.23C14.2,13.28,14.16,13.25,14.12,13.22z M17.91,11.18c0.16-0.14,0.33-0.27,0.5-0.41
	c-0.78,0.81-1.63,1.59-2.52,2.26c-0.21,0.2-0.44,0.38-0.66,0.56c-0.03,0-0.05,0.01-0.08,0.01C16.09,12.82,16.96,11.92,17.91,11.18z
	 M15.19,13.92c0.01,0.01,0.03,0.02,0.04,0.04c-0.02-0.01-0.03-0.02-0.05-0.03C15.19,13.92,15.19,13.92,15.19,13.92z M15.14,13.45
	c0.03-0.03,0.07-0.05,0.1-0.08c-0.04,0.05-0.09,0.1-0.13,0.15C15.12,13.5,15.13,13.47,15.14,13.45z M14.97,12.45
	c0.01-0.02,0.01-0.05,0.02-0.07c-0.02,0.1-0.03,0.21-0.05,0.31C14.95,12.61,14.96,12.53,14.97,12.45z M14.83,12.95
	c0,0.15,0.01,0.29,0.02,0.42c0,0.02-0.01,0.05-0.01,0.07c-0.01,0-0.02,0-0.03,0c-0.01-0.06-0.02-0.12-0.03-0.18
	C14.79,13.16,14.81,13.05,14.83,12.95z M14.47,12.94l0.12,0.37c0.02,0.04,0.04,0.08,0.06,0.12c0,0.01,0,0.03,0.01,0.04
	c-0.03,0.01-0.05,0.02-0.07,0.04c-0.05-0.07-0.1-0.13-0.15-0.2c-0.01-0.03-0.01-0.05-0.02-0.08C14.42,13.13,14.45,13.03,14.47,12.94
	z M14.39,13.26c0.01,0.01,0.01,0.02,0.02,0.04c-0.01-0.01-0.01-0.02-0.02-0.03C14.39,13.27,14.39,13.26,14.39,13.26z M14.31,13.63
	c0.04,0.02,0.08,0.03,0.13,0.05c0,0.01-0.01,0.02-0.01,0.03c-0.01,0-0.03,0-0.04,0c-0.02-0.01-0.04-0.02-0.05-0.02
	C14.32,13.66,14.32,13.64,14.31,13.63z M14.41,13.77c-0.01,0-0.03-0.01-0.04-0.01c0.01,0,0.01,0,0.02,0
	C14.39,13.76,14.4,13.76,14.41,13.77C14.41,13.77,14.41,13.77,14.41,13.77C14.41,13.77,14.41,13.77,14.41,13.77z M14.41,13.87
	c0,0-0.01-0.01-0.01-0.01c0-0.01,0-0.01-0.01-0.02c0,0,0.01,0,0.01,0C14.4,13.85,14.4,13.86,14.41,13.87z M14.41,13.9
	c0,0,0,0.01,0,0.01C14.41,13.9,14.41,13.9,14.41,13.9C14.41,13.9,14.41,13.9,14.41,13.9z M14.36,14.15
	c0.03-0.02,0.06-0.04,0.09-0.06c0,0,0,0,0,0c-0.01,0.02-0.03,0.03-0.04,0.05c-0.01,0-0.02,0.01-0.03,0.02
	C14.38,14.15,14.37,14.15,14.36,14.15z M15.07,13.57c-0.01-0.01-0.03-0.03-0.04-0.04c0,0,0,0,0,0c0.02-0.02,0.04-0.03,0.06-0.05
	C15.09,13.51,15.08,13.54,15.07,13.57C15.08,13.57,15.07,13.57,15.07,13.57z M15.08,14.07C15.08,14.07,15.08,14.07,15.08,14.07
	c0.08,0.04,0.15,0.09,0.22,0.14c0.1,0.09,0.2,0.17,0.3,0.26C15.43,14.34,15.26,14.2,15.08,14.07z M19.13,15.71
	c1.39,0.75,2.65,1.71,4.01,2.51c-0.88-0.43-1.75-0.9-2.57-1.44c-0.68-0.44-1.35-0.93-2.04-1.4C18.73,15.49,18.93,15.6,19.13,15.71z
	 M16.86,14.57c1.24,0.73,2.4,1.57,3.6,2.38c0.25,0.16,0.5,0.31,0.76,0.46c-1.77-0.98-3.52-2.07-5.22-3.04
	c-0.12-0.06-0.24-0.12-0.36-0.18c-0.14-0.09-0.29-0.19-0.43-0.27c0.05-0.01,0.1-0.01,0.15-0.02c0.11,0.04,0.22,0.08,0.33,0.11
	C16.07,14.2,16.47,14.39,16.86,14.57z M16.91,13.53c1.3-0.15,2.58-0.38,3.87-0.59c0.66-0.12,1.32-0.25,1.98-0.38
	c-0.69,0.28-1.39,0.54-2.06,0.77c-1.38,0.16-2.76,0.26-4.15,0.27C16.68,13.58,16.79,13.55,16.91,13.53z M16.81,13.78
	c0.91,0,1.83-0.05,2.74-0.14C18.65,13.82,17.73,13.83,16.81,13.78z"/>
</svg>
