<?xml version="1.0" encoding="utf-8"?>
<!-- Generator: Adobe Illustrator 26.3.1, SVG Export Plug-In . SVG Version: 6.00 Build 0)  -->
<svg version="1.1" id="Layer_1" xmlns="http://www.w3.org/2000/svg" xmlns:xlink="http://www.w3.org/1999/xlink" x="0px" y="0px"
	 viewBox="0 0 48.24 71.01" enable-background="new 0 0 48.24 71.01" xml:space="preserve">
<path fill="#FFFFFF" d="M29.86,18.22c0.71,0.12,1.42,0.24,2.12,0.36c3.2,0.45,6.41,0.94,9.65,0.85c-1.42-0.23-3.4-0.43-4.81-0.56
	c-3.03-0.3-6.05-0.75-9.02-1.41c2.5,0.38,5.05,0.57,7.56,0.83c4.28,0.31,8.59,0.68,12.88,0.26c-4.29-0.15-8.58-0.19-12.85-0.58
	c-1.94-0.17-3.88-0.37-5.82-0.62c1.94,0.07,3.87,0.06,5.81-0.03c4.2-0.29,8.67-0.84,12.25-3.22c-3.81,1.86-8.06,2.68-12.27,2.9
	c-2.48,0.11-4.98,0.11-7.46-0.06c0.74,0.01,1.47,0,2.2,0.01c2.43-0.08,4.89-0.05,7.27-0.59c-2.4-0.03-4.88,0.27-7.27,0.27
	c-1.06,0.03-2.11,0-3.16-0.04c1.83,0.02,3.68-0.04,5.48-0.2c3.24-0.35,6.56-0.75,9.56-2.09c-3.16,0.79-6.34,1.5-9.58,1.77
	c-1.67,0.15-3.38,0.21-5.08,0.2c0.16-0.01,0.31-0.02,0.45-0.03c3.41-0.24,6.8-0.83,10.12-1.64c1.67-0.4,3.31-0.89,4.87-1.59
	c-4.62,1.22-9.26,2.43-14.03,2.84c1.91-0.3,3.82-0.68,5.71-1.09c3.83-0.95,7.67-1.96,11.31-3.51c-3.76,0.99-7.59,2.34-11.38,3.2
	c-2.25,0.52-4.53,0.88-6.81,1.24c0.87-0.19,1.73-0.42,2.57-0.69c1.2-0.43,2.36-0.94,3.52-1.44l1.73-0.77
	c0.55-0.31,1.11-0.61,1.65-0.94c-2.36,0.78-4.67,2.04-7.01,2.86c-0.69,0.24-1.39,0.43-2.11,0.58c0.33-0.12,0.67-0.24,0.67-0.24
	c1.95-0.72,3.86-1.53,5.75-2.38c3.76-1.74,7.55-3.49,11-5.79c-5.56,2.76-11.02,5.74-16.87,7.87c-0.91,0.33-1.85,0.68-2.8,0.95
	c-0.14,0.02-0.27,0.04-0.41,0.07c0.82-0.27,1.62-0.6,2.41-0.93c1.18-0.49,2.35-1.02,3.51-1.56c1.82-0.64,3.62-1.34,5.37-2.16
	c1.51-0.7,3.05-1.44,4.25-2.61c-2.02,1.25-4.15,2.27-6.33,3.17c2.45-1.22,4.94-2.5,7.16-4.03c-3.12,1.46-6.21,3.28-9.33,4.74
	c-0.43,0.2-0.86,0.4-1.29,0.6c-0.38,0.13-0.75,0.27-1.13,0.4c1.02-0.49,2.03-0.99,3.04-1.5c3.27-1.77,6.68-3.48,9.41-6.05
	c-3.09,2.07-6.23,4.08-9.56,5.76c-2.01,1.05-4.09,1.99-6.17,2.91c-0.62,0.21-1.25,0.43-1.87,0.65c-0.02,0.01-0.04,0.02-0.06,0.03
	c0.94-0.5,1.89-1,2.88-1.42c1.74-0.82,3.61-1.44,5.15-2.37c-0.46,0.12-0.91,0.26-1.37,0.39l-1.31,0.55
	c-1.74,0.75-3.48,1.48-5.17,2.37c-0.18,0.1-0.36,0.2-0.54,0.3c0.23-0.19,0.45-0.37,0.68-0.56c0.18-0.13,0.36-0.26,0.54-0.4
	c0.51-0.27,1.03-0.53,1.52-0.84c0.71-0.41,1.74-0.96,2.42-1.41c2.36-1.51,4.56-3.24,6.73-4.99c1.31-1.04,3.03-2.51,4.17-3.71
	c-3.7,2.75-7.17,5.97-11.08,8.43c-0.59,0.37-1.22,0.74-1.86,1.1c0.49-0.37,0.98-0.74,1.47-1.11c2.02-1.69,4.03-3.44,5.59-5.58
	c-1.96,1.74-3.72,3.7-5.79,5.33c-0.23,0.18-0.46,0.35-0.69,0.53c3.33-2.99,6.46-6.24,9.02-9.92c-2.33,2.41-4.46,5.2-6.87,7.52
	c-1.58,1.48-3.36,3.04-5.03,4.51c-0.35,0.2-0.68,0.43-0.99,0.68c0.04-0.04,0.07-0.08,0.11-0.11c1.61-1.82,3.75-3.51,5.49-5.2
	c2.36-2.4,4.52-5.12,5.81-8.25c-1.78,2.84-3.62,5.67-6.04,8.02c-1.48,1.44-3.27,2.89-4.76,4.43c0.54-0.67,1.09-1.33,1.66-1.97
	c1.34-1.59,2.88-3.03,4.01-4.63c-0.4,0.32-0.78,0.67-1.17,1.01L28.21,9c-0.69,0.75-1.37,1.52-2.05,2.29
	c-1.09,1.31-2.31,2.57-3.18,4.05c0-0.02,0-0.03,0-0.05c0.15-0.29,0.29-0.57,0.46-0.85c1.02-2.01,2.46-3.8,4.19-5.24
	c2.26-1.92,4.76-4.23,5.21-7.32c-0.99,2.86-3.09,5.18-5.41,7.07c-1.77,1.47-3.23,3.3-4.27,5.34c-0.06,0.15-0.12,0.31-0.18,0.47
	c0-0.09,0-0.17-0.01-0.26c0.1-0.4,0.22-0.79,0.42-1.16c0.43-0.96,1.15-1.77,1.5-2.76c-0.21,0.18-0.39,0.37-0.58,0.56l-0.43,0.67
	c-0.34,0.55-0.68,1.14-0.94,1.75c0-0.01,0-0.02,0-0.02c0.37-1.5,1.05-2.92,1.74-4.3c1.13-2.25,2.63-4.26,3.98-6.37
	c-1.8,1.77-3.06,4.02-4.26,6.23c-0.53,1.08-1.1,2.21-1.49,3.38c-0.02-0.7-0.03-1.2-0.04-1.48c0.34-2.05,0.94-4.07,1.33-6.1
	c-0.9,1.77-1.2,3.76-1.58,5.69c-0.02,0.12-0.04,0.25-0.06,0.37l-0.26,0.01c0,0.19,0.01,0.82,0.03,1.81c0,0.07-0.02,0.14-0.02,0.21
	c-0.09-0.4-0.2-0.8-0.31-1.19c-0.15-1.25-0.25-2.51-0.29-3.76C21.55,5.38,21.71,2.64,21.52,0c-0.37,2.62-0.21,5.4-0.13,8.03
	c0.03,0.75,0.08,1.5,0.14,2.25c-0.47-1.38-1.04-2.73-1.69-4.03c-1.4-2.32-3.53-4.2-5.91-5.47c2.31,1.92,4.97,3.77,6.12,6.65
	c0.64,1.43,1.19,2.89,1.63,4.39c0.03,0.28,0.06,0.57,0.1,0.85c-0.22-0.41-0.47-0.81-0.74-1.19c-0.99-1.41-1.96-2.92-3.43-3.87
	c1.53,1.98,3.51,3.92,4.36,6.31c0.01,0.03,0.01,0.07,0.02,0.1c0.06,0.23,0.15,0.5,0.24,0.78c0.02,0.1,0.05,0.2,0.07,0.31
	c0.03,0.08,0.04,0.17,0.07,0.25c0,0.08,0,0.15,0,0.23c-0.33-0.71-0.67-1.42-1.18-2.03c-0.92-1.16-1.89-2.31-2.87-3.43
	c-0.05-0.11-0.1-0.22-0.15-0.33c-1.15-2.46-2.22-4.99-3.8-7.21c0.97,2.26,2.22,4.48,3.23,6.73c-1.81-2-3.61-4.17-5.67-5.92
	c0.74,0.97,1.91,2.3,2.77,3.19c1.13,1.23,2.25,2.47,3.35,3.73c0.15,0.34,0.31,0.7,0.48,1.08c-0.5-0.63-0.98-1.28-1.45-1.95
	c-1.88-2.33-3.92-4.54-6.29-6.38c0.87,1,2.16,2.32,3.08,3.24c1.93,1.9,3.49,4.12,5.17,6.23c0.44,0.93,0.96,1.84,1.61,2.54
	c-1.46-0.84-2.86-1.87-3.86-3.24c-0.65-0.98-1.39-1.94-2.14-2.85l-1.13-1.38c-0.42-0.42-0.84-0.85-1.27-1.25
	c1.31,1.98,2.98,3.68,4.28,5.67c0.6,0.78,1.31,1.49,2.09,2.1c-1.53-0.72-3.07-1.41-4.58-2.17c-2.82-1.4-5.57-3.18-8.37-4.62
	c2.54,1.95,5.41,3.41,8.23,4.9c1.34,0.69,2.72,1.32,4.1,1.93c-1.37-0.55-2.74-1.13-4.09-1.72c-2.95-1.25-5.78-2.75-8.78-3.89
	c2.7,1.63,5.78,2.87,8.65,4.18c1.47,0.64,2.94,1.27,4.43,1.86c0.34,0.14,0.68,0.27,1.03,0.4c-1.78-0.57-3.66-1.11-5.11-1.57
	l-4.2-1.31c-1.26-0.42-2.96-0.91-4.25-1.16c1.21,0.53,2.88,1.1,4.15,1.47l4.2,1.31c1.21,0.36,2.71,0.84,4.21,1.3
	c-3.75-0.97-7.48-2.05-11.19-3.18l-2.58-0.79l-2.62-0.66c3.29,1.34,6.9,2.27,10.29,3.29c1.82,0.5,3.64,1.05,5.48,1.52
	c-1.38-0.19-2.76-0.39-4.1-0.67c-2.95-0.52-5.99-1.34-8.96-1.72c1.31,0.44,3.06,0.86,4.43,1.13c2.34,0.47,4.69,0.98,7.06,1.37
	c-1.15-0.15-2.3-0.3-3.42-0.49c-3.36-0.47-6.81-1.26-10.18-1.7c3.25,1,6.79,1.47,10.13,2.02c0.66,0.09,1.31,0.19,1.97,0.29
	c-0.27-0.02-0.53-0.04-0.78-0.06c-2.58-0.16-6.43-0.58-8.98-0.5c2.52,0.46,6.37,0.6,8.95,0.82c0.27,0.02,0.55,0.03,0.84,0.05
	c-0.43-0.01-0.87-0.02-1.3-0.03c-1.51,0-3.01,0.09-4.51,0.18l-2.25,0.16c-0.74,0.11-1.49,0.21-2.23,0.34
	c2.95,0.05,6.04-0.38,8.98-0.36c1.5,0.01,3.1,0.09,4.67,0.19l-2.66,0.04c-1.2,0-2.39,0.03-3.58,0.06l-1.79,0.05
	c-0.59,0.07-1.19,0.14-1.78,0.23c2.34,0.2,4.8-0.05,7.15-0.02c0.73-0.01,2.21-0.03,3.5-0.06c-3.17,0.27-6.35,0.55-9.53,0.64
	l-2.24,0.08l-2.23,0.22c2.94,0.21,6.02-0.08,8.96-0.22c1.13-0.09,2.26-0.15,3.39-0.24c-1.76,0.33-3.56,0.62-5.25,0.8
	c-3.67,0.41-7.43,0.83-10.84,2.37c1.79-0.45,3.58-0.93,5.38-1.31c3.63-0.64,7.37-0.82,10.99-1.59l0.5-0.1
	c-1.68,0.39-3.4,0.77-5.01,1.11L8.1,19.38c-1.42,0.27-3.43,0.73-4.78,1.15c2.79-0.3,6.88-1.29,9.66-1.85
	c1.85-0.42,3.78-0.8,5.67-1.26c-3.4,1.03-6.86,1.91-10.36,2.5C5.42,20.44,2.18,20.84,0,22.96c0.77-0.63,1.69-1,2.61-1.33
	c1.83-0.73,3.78-1.08,5.72-1.39c1.97-0.33,3.92-0.76,5.85-1.25c-0.17,0.06-0.33,0.12-0.5,0.17c-2.43,0.91-6.12,2.1-8.41,3.25
	c1.26-0.33,3.05-0.94,4.28-1.42c0,0,2.51-0.91,3.51-1.27c-0.25,0.1-0.49,0.2-0.74,0.3c-3.27,1.4-6.76,2.74-9.89,4.45
	c3.36-1.19,6.72-2.82,10.02-4.15c1.89-0.81,3.81-1.55,5.73-2.29c-1.56,0.83-3.11,1.67-4.64,2.44c-2.52,1.33-6.37,3.14-8.75,4.63
	c2.64-1.01,6.34-3.07,8.9-4.35c0.68-0.37,1.38-0.73,2.08-1.09c-0.92,0.56-1.82,1.14-2.73,1.72c-0.76,0.48-1.52,0.95-2.29,1.42
	c-2.33,1.44-3.99,3.9-4.57,6.57c0.66-1.66,1.55-3.24,2.71-4.59c1.17-1.39,2.84-2.15,4.32-3.13c2.28-1.44,4.54-2.92,6.99-4.06
	c0.36-0.2,0.73-0.38,1.1-0.56c-1.31,0.88-2.57,1.83-3.95,2.61c-1.8,1.06-3.85,1.99-5.1,3.74c2.9-2.48,6.6-3.87,9.48-6.36
	c-0.1,0.13-0.2,0.25-0.3,0.38c-0.89,0.61-1.81,1.27-2.54,1.8c-1.33,0.96-2.69,1.86-4.07,2.77c-2.67,1.92-5.23,4.04-7.36,6.56
	c2.52-2.1,4.84-4.44,7.55-6.29c2.02-1.35,4.08-2.69,5.99-4.19c-0.05,0.09-0.1,0.18-0.15,0.27c-0.68,0.73-1.41,1.41-2.13,2.12
	c-1.24,1.41-2.32,3.03-2.78,4.86c0.96-1.57,1.73-3.29,3.01-4.65c0.45-0.45,0.92-0.9,1.38-1.35c-0.33,0.72-0.6,1.47-0.82,2.22
	c-0.28,1.56-0.77,3.07-1.19,4.59c0.89-1.34,1.19-2.96,1.51-4.51c0.29-1.1,0.75-2.15,1.32-3.13c0.22-0.24,0.43-0.48,0.64-0.72
	c-0.38,1.07-0.63,2.2-0.93,3.29c-0.41,1.65-1.33,3.09-2.14,4.57c2.28-2.1,2.52-5.39,3.5-8.17c0,0,0.05-0.22,0.1-0.48
	c0,0,0-0.01,0.01-0.01c0.01-0.01,0.02-0.01,0.02-0.02c0,0,0,0,0.01,0c0,0.04,0,0.08,0,0.12c-0.23,0.98-0.21,2.02-0.21,3.03
	c0.05,0.85,0.08,1.72,0.25,2.56c0.06,8.05,0.09,19.5-0.02,32c-0.23,0.24-0.46,0.67-0.59,1.43c-0.25,1.41-0.51,4.6-0.49,7.97
	l-0.01,0.47c-0.05,2.18-0.15,6.24,1.35,6.46c0.08,0.01,0.15,0.02,0.22,0.02c0.57,0,0.89-0.4,1.26-1.58c0.38-1.2,0.48-5.3,0.25-10.2
	c-0.15-3.15-0.62-4.26-0.99-4.65c0.03-15.3-0.2-29.14-0.37-37.01c0.55,1.13,1.34,2.16,2.34,2.92c0.88,1.53,1.65,3.13,2.36,4.74
	c0.23,0.52,0.46,1.05,0.67,1.58l0.78,1.54c-0.54-2.25-1.62-4.31-2.64-6.37c-0.2-0.36-0.39-0.73-0.59-1.09
	c0.27,0.17,0.55,0.32,0.85,0.44c0.68,0.28,1.34,0.61,2,0.95c0.46,0.24,0.92,0.49,1.38,0.75c2.4,2.14,4.61,4.47,7.03,6.59
	c-1.72-2.12-3.73-3.98-5.74-5.83c1.67,1,3.34,2.06,5.04,2.94c-0.58-0.46-1.19-0.9-1.79-1.34l-1.9-1.17
	c-0.81-0.49-1.63-0.97-2.45-1.44c-0.05-0.04-0.1-0.09-0.14-0.13c-2.27-2-4.6-4.18-7.11-5.91c0.02-0.02,0.03-0.05,0.04-0.07
	c1.35,1.15,2.91,2.12,4.34,3.22c1.62,1.19,3.14,2.66,5.07,3.37c-2.48-1.75-4.86-3.65-7.34-5.42l-0.02-0.02
	c1.84,1.1,5.74,3.46,7.31,4.42c2.94,1.77,7.25,4.57,10.26,6.12c-2.74-2.02-7.17-4.57-10.09-6.4c-1.37-0.82-3.04-1.86-4.75-2.89
	c1.56,0.82,3.11,1.64,4.62,2.46c2.85,1.52,7.03,3.96,9.93,5.27c-2.66-1.8-6.95-3.98-9.78-5.56c-0.1-0.05-0.2-0.11-0.3-0.16
	c2.25,1.08,4.97,2.42,6.99,3.14c-2.26-1.37-5.9-2.94-8.31-4.11c-1.06-0.49-2.34-1.11-3.65-1.74c0.15,0.06,0.3,0.11,0.45,0.16
	c3.57,1.29,7.22,2.37,10.9,3.3c1.84,0.48,3.7,0.88,5.59,1.09c-5.4-1.41-10.85-2.67-16.1-4.59c1.4,0.39,2.82,0.73,4.24,1.06
	c3.38,0.69,6.8,1.44,10.26,1.34c-3.37-0.46-6.74-0.88-10.06-1.63c0.83,0.14,1.65,0.26,2.48,0.38c4.22,0.51,8.49,0.95,12.74,0.59
	c-4.24-0.21-8.49-0.33-12.7-0.91C33.42,18.94,31.63,18.61,29.86,18.22z M20.15,13.9c0.57,0.66,1.16,1.3,1.78,1.91
	c-0.12-0.07-0.24-0.14-0.37-0.2C21.02,15.14,20.56,14.55,20.15,13.9z M21.62,16.28c-0.06,0.01-0.11,0.02-0.17,0.02
	c-0.12-0.02-0.25-0.04-0.37-0.05C21.26,16.26,21.44,16.27,21.62,16.28z M21.88,16.68c-0.52,0.16-1.02,0.34-1.53,0.54
	c0.02-0.01,0.03-0.02,0.05-0.03c0.54-0.2,1.07-0.41,1.6-0.63c0,0.01,0.01,0.03,0.01,0.04C21.97,16.62,21.93,16.65,21.88,16.68z
	 M21.97,16.34c0,0,0.01,0,0.01,0c0,0,0,0,0,0C21.97,16.34,21.97,16.34,21.97,16.34z M22.12,16.97c-0.03,0.02-0.05,0.03-0.08,0.05
	c0.04-0.07,0.08-0.14,0.11-0.21c0.01,0.01,0.02,0.01,0.02,0.02C22.16,16.88,22.14,16.93,22.12,16.97z M22.21,15.89
	c-0.75-0.96-1.68-2.08-2.4-2.89c-0.16-0.18-0.31-0.37-0.46-0.56c-0.21-0.43-0.4-0.86-0.59-1.28c0.73,0.86,1.46,1.72,2.16,2.61
	c0.5,0.66,0.94,1.36,1.41,2.04C22.29,15.83,22.25,15.86,22.21,15.89z M23.22,15.34c-0.08,0.12-0.15,0.24-0.23,0.36
	c0-0.02,0-0.05,0-0.08C23.06,15.52,23.14,15.43,23.22,15.34z M29.16,22.11c-0.07-0.04-0.14-0.08-0.21-0.11
	c-1.09-0.62-2.33-0.98-3.34-1.72c-0.58-1.04-1.21-2.05-1.98-2.95C25.44,18.94,27.36,20.5,29.16,22.11z M23.59,17.73
	c0.43,0.59,0.84,1.2,1.23,1.83c-0.69-0.71-1.28-1.53-1.79-2.38c0-0.11,0-0.22-0.01-0.33C23.22,17.13,23.41,17.42,23.59,17.73z
	 M22.99,15.89c0,0,0-0.01,0-0.01c0.07-0.05,0.15-0.11,0.22-0.16c0,0,0,0,0,0C23.14,15.78,23.07,15.83,22.99,15.89z M23.26,16.37
	c-0.01,0-0.02-0.01-0.04-0.01c0-0.01,0-0.01,0-0.02c0.02,0.01,0.04,0.02,0.06,0.03C23.27,16.37,23.27,16.37,23.26,16.37z
	 M23.49,16.33c-0.01,0-0.03-0.01-0.04-0.01c0.02,0,0.04,0.01,0.07,0.01C23.5,16.33,23.49,16.33,23.49,16.33z M23.92,16.47
	c-0.04-0.01-0.08-0.02-0.12-0.04c-0.02-0.01-0.05-0.01-0.07-0.02c0.09-0.01,0.17-0.01,0.26-0.01c0.26,0.04,0.53,0.07,0.79,0.1
	C24.49,16.48,24.2,16.47,23.92,16.47z M23.19,16.13c-0.01,0-0.01,0-0.02,0c0,0,0,0,0-0.01c1.26-0.41,2.5-0.88,3.73-1.4
	c0.32-0.11,0.64-0.22,0.96-0.33C26.33,15.06,24.78,15.65,23.19,16.13z"/>
</svg>
