<?xml version="1.0" encoding="utf-8"?>
<!-- Generator: Adobe Illustrator 26.3.1, SVG Export Plug-In . SVG Version: 6.00 Build 0)  -->
<svg version="1.1" id="Layer_1" xmlns="http://www.w3.org/2000/svg" xmlns:xlink="http://www.w3.org/1999/xlink" x="0px" y="0px"
	 viewBox="0 0 47.21 76.89" enable-background="new 0 0 47.21 76.89" xml:space="preserve">
<path fill="#FFFFFF" d="M25.8,22.67c2.89-0.07,5.85-0.04,8.73,0.08c3.88,0.12,7.74,0.59,11.62,0.79c-1.91-0.4-3.84-0.62-5.79-0.76
	c-3.53-0.28-7.07-0.44-10.62-0.47c0.72-0.04,1.44-0.06,2.17-0.06c3.27-0.06,6.52,0.27,9.78,0.35c-3.12-0.63-6.31-0.65-9.48-0.67
	c2.99-0.24,5.98-0.41,8.98-0.5l3.01-0.09l3.01-0.22c-3.96-0.22-8.11,0.08-12.06,0.28c-2.68,0.19-5.4,0.33-8.07,0.69
	c0.92-0.19,1.83-0.37,2.76-0.5c2.58-0.42,5.31-0.44,7.91-0.78c-2.66-0.23-5.32,0.11-7.96,0.46c-0.24,0.04-0.48,0.08-0.72,0.12
	c1.53-0.44,3.05-0.86,4.57-1.19c1.86-0.45,3.72-0.63,5.63-0.76c1.9-0.17,3.8-0.52,5.6-1.18c-1.87,0.37-3.74,0.65-5.63,0.86
	c-1.91,0.13-3.81,0.32-5.67,0.77c-1.22,0.27-2.49,0.6-3.76,0.95c0.37-0.11,0.74-0.22,1.11-0.33c2.67-0.83,5.52-1.41,8.2-2.25
	c-2.83,0.3-5.56,1.18-8.29,1.94c-0.46,0.14-0.92,0.28-1.38,0.42c1.72-0.75,3.41-1.55,5.11-2.33c3.74-1.82,7.71-3.66,11.23-5.89
	c-3.8,1.74-7.59,3.85-11.37,5.6c-2.87,1.38-5.79,2.61-8.72,3.84c-0.48,0.17-0.95,0.36-1.41,0.56c-0.1,0.03-0.19,0.05-0.29,0.08
	c-0.01,0-0.01,0-0.02,0l0.93-0.52l2.86-1.61l2.86-1.61l1.43-0.8c0.45-0.31,0.91-0.62,1.35-0.95c-0.51,0.21-1.01,0.44-1.51,0.66
	l-1.43,0.8l-2.86,1.61l-2.86,1.61l-1.13,0.64c0.07-0.04,0.14-0.09,0.21-0.13l1.04-0.61c3.35-2.2,6.87-4.14,10.41-6.02l2.14-1.11
	l2.08-1.23c-2.95,1.16-5.82,2.85-8.6,4.36c-0.89,0.52-1.8,1.02-2.69,1.55c1.84-1.24,3.71-2.46,5.62-3.59l1.99-1.19l1.92-1.31
	c-2.78,1.27-5.44,3.08-8.02,4.69c-0.92,0.61-1.85,1.21-2.77,1.82c1.63-1.25,3.27-2.48,4.99-3.52c3.31-1.85,6.75-3.93,9.74-6.28
	c-1.49,0.84-3.52,2.12-4.93,3.05c-1.63,1.04-3.27,2.03-4.98,2.96c-2.2,1.4-4.33,2.92-6.35,4.58c0.97-0.91,1.94-1.83,2.93-2.69
	c2-1.85,4.27-3.61,6.16-5.59c-2.26,1.55-4.32,3.56-6.38,5.35c-1.91,1.76-3.92,3.44-5.6,5.42c-0.01-0.01-0.02-0.01-0.03-0.02
	c0-0.03,0-0.05,0-0.07c0.29-0.39,0.58-0.85,0.87-1.22c1.36-1.86,3.22-3.26,4.69-5.02c-0.33,0.2-0.65,0.43-0.97,0.64l-0.84,0.79
	c-0.56,0.53-1.1,1.08-1.63,1.63c-0.17,0.18-0.33,0.36-0.5,0.55c1.59-2.08,3.6-3.81,5.42-5.69c-1.62,0.93-2.88,2.35-4.16,3.68
	c-1.09,1.26-2.24,2.55-2.89,4.1c0-0.07,0-0.14,0-0.2c0.45-1.39,0.69-2.84,1.04-4.25c0.2-0.93,0.71-3.39,0.89-4.3
	c0.04-0.49,0.1-0.98,0.12-1.47c-0.16,0.47-0.29,0.94-0.44,1.4l-0.29,1.43l-0.6,2.86c-0.09,0.44-0.19,0.88-0.29,1.32
	c0.24-1.44,0.4-2.9,0.62-4.33c0.34-2.83,0.84-5.79,0.85-8.65c-0.26,1.23-0.51,3.03-0.63,4.3c-0.35,3.19-0.81,6.36-1.33,9.53
	c-0.01-0.52-0.03-0.96-0.04-1.32c0.09-0.77,0.18-1.51,0.23-2.02c0.1-0.77,0.16-1.54,0.09-2.33c-0.3,0.95-0.42,2.25-0.53,3.41
	l-0.38,0.02c0,0.25,0.02,1.25,0.04,2.84l-0.08,0.63c-0.02,0.15-0.06,0.43-0.09,0.65c-0.04-0.74,0.03-1.5-0.01-2.23
	c-0.02-2.67-0.13-5.35-0.35-8.01c-0.09-1.34-0.25-2.67-0.6-3.97c0.09,2.67,0.45,5.31,0.53,7.98c0.06,1.33,0.09,2.66,0.1,4
	c0,0.98-0.07,2.07,0.27,3.01c0.01,0.05,0.03,0.09,0.05,0.14c-0.08-0.07-0.17-0.14-0.25-0.22c-0.16-0.26-0.29-0.54-0.42-0.83
	c0.02-0.49,0.03-0.99,0.04-1.48c-0.13-3.91-0.74-7.94-1.31-11.81c-0.16-0.98-0.25-1.96-0.49-2.94C18.77,3.43,17.87,1.61,16.7,0
	c0.89,1.75,1.73,3.55,2.23,5.45c0.37,1.66,0.64,4.14,0.92,5.84c0.42,2.93,0.77,5.88,0.88,8.84c0.03,0.35,0.06,0.71,0.08,1.06
	c-0.1-0.19-0.2-0.38-0.3-0.56c-0.08-2.07-0.32-4.16-0.48-6.17c-0.32-2.94-0.49-6.05-1.14-8.94c0.09,2.96,0.58,6.02,0.82,8.97
	c0.17,1.77,0.32,3.69,0.45,5.52c-0.13-0.22-0.25-0.43-0.37-0.65c-1.36-2.35-3.39-5.62-4.84-7.96c-0.72-1.2-1.76-2.77-2.62-3.85
	c0.29,0.57,0.66,1.25,1.05,1.92c-0.81-1.32-1.64-2.59-2.4-3.57c0.62,1.25,1.64,3,2.4,4.2l2.5,4.13c1.35,2.22,2.6,4.48,3.91,6.72
	c-0.59-0.56-1.16-1.13-1.7-1.73l-0.64-0.7c-0.25-0.2-0.49-0.41-0.75-0.6c0.16,0.28,0.34,0.55,0.51,0.82l0.64,0.7
	c0.79,0.85,1.6,1.68,2.47,2.46c0,0.03,0.01,0.05,0.01,0.08c-0.1-0.1-0.21-0.19-0.31-0.29c-1.65-1.43-3.25-2.95-4.61-4.66
	c-2.25-3.21-3.53-7.09-5.27-10.59c0.49,1.7,1.14,3.34,1.88,4.94c0.82,1.8,1.66,3.62,2.75,5.29c1.35,1.94,3.12,3.56,4.88,5.12
	c-0.29-0.13-0.58-0.25-0.86-0.37c-3.09-2.46-5.44-6.76-6.98-9.87c-0.21-0.37-0.41-0.74-0.61-1.11c-0.01-0.03-0.03-0.06-0.04-0.09
	c0,0.01,0.01,0.02,0.01,0.03c-0.15-0.27-0.3-0.55-0.46-0.82c0.22,0.61,0.46,1.22,0.69,1.83c0.06,0.25,0.12,0.49,0.18,0.74
	c1.05,2.83,2.42,5.65,4.42,7.94c0.04,0.04,0.08,0.09,0.12,0.13c-1.64-1.12-3.06-2.51-4.52-3.86c0.58,0.95,1.35,1.75,2.19,2.46
	c0.51,0.44,1.03,0.86,1.57,1.26c-0.89-0.36-1.79-0.72-2.69-1.09c-0.17-0.13-0.34-0.25-0.51-0.39c-2.99-2.29-6.06-4.5-9.36-6.32
	c1.32,1.02,3.23,2.34,4.61,3.26c1.41,0.97,2.82,1.96,4.17,3.01c-3.16-1.24-6.41-2.38-9.58-2.97c2.4,0.91,5.15,1.63,7.55,2.52
	c0.87,0.34,1.88,0.74,2.95,1.16c0.19,0.14,0.38,0.28,0.57,0.42c-2.24-0.81-4.49-1.62-6.85-1.9c2.68,0.83,5.36,1.71,8.02,2.67
	c0.01,0,0.01,0.01,0.02,0.01c-0.57-0.15-1.14-0.31-1.71-0.46c-3.37-0.83-6.89-1.81-10.34-2.22c3.35,0.96,6.91,1.62,10.26,2.53
	c0.96,0.24,1.91,0.5,2.86,0.77c0.3,0.17,0.6,0.33,0.9,0.49c-1.31-0.32-2.63-0.62-3.95-0.93c-3.17-0.67-6.49-1.46-9.74-1.77
	C1.69,18.4,0.85,17.95,0,17.54c1.37,0.97,2.82,1.84,4.31,2.62c-0.38,0.01-0.76,0.03-1.14,0.07c0.51,0.03,1.01,0.08,1.52,0.13
	c0.59,0.31,1.19,0.6,1.8,0.88l-0.82-0.1c0.54,0.17,1.08,0.31,1.62,0.46c0.12,0.05,0.24,0.11,0.36,0.16
	c1.79,0.69,3.66,1.14,5.55,1.42c-2.25-0.24-4.48-0.67-6.73-0.91c2.5,0.83,5.16,1.05,7.77,1.32c0.24,0.02,0.48,0.03,0.73,0.05
	c-0.87-0.02-1.74-0.07-2.6-0.13c-3.37-0.26-6.77-0.72-10.16-0.41c1.49,0.15,3.59,0.25,5.07,0.31c1.69,0.09,3.37,0.31,5.07,0.42
	c2.61,0.13,5.33,0.35,7.91-0.14c0.13-0.01,0.26-0.03,0.4-0.05c-0.1,0.05-0.16,0.08-0.16,0.08c-0.02,0.01-0.05,0.03-0.07,0.04
	c-1.01,0.22-2.05,0.29-3.07,0.43c-3.14,0.31-6.29,0.12-9.43-0.13c-1.38-0.13-3.37-0.24-4.73-0.22c1.37,0.26,3.31,0.46,4.71,0.54
	c2.96,0.24,5.94,0.41,8.9,0.18c-1.92,0.2-3.86,0.25-5.79,0.25c-0.61,0-1.22-0.01-1.83-0.03l-1.84,0.07
	c2.43,0.43,4.91,0.28,7.36,0.19c0.69-0.05,1.38-0.1,2.07-0.16C11.65,25.7,6.39,25.36,1.23,25.1c3.49,0.69,7.07,0.69,10.61,0.58
	c1.47-0.08,2.97-0.18,4.45-0.4c-1.49,0.37-3.01,0.62-4.55,0.72c-3.53,0.26-7.11,0.58-10.52,1.6c1.76-0.23,3.51-0.49,5.26-0.75
	c1.75-0.24,3.51-0.42,5.28-0.53c1.68-0.13,3.36-0.39,5-0.81c-3.11,1.31-6.38,2.21-9.73,2.67c2.75,0.16,5.43-0.75,8-1.63
	c0.78-0.3,1.56-0.61,2.32-0.95c-2.52,1.27-5.1,2.43-7.69,3.56l-2.14,0.91l-2.09,1.03c2.93-0.88,5.82-2.3,8.6-3.54
	c2.17-1.04,4.4-2.02,6.45-3.3c0,0,0,0,0,0c-0.21,0.22-0.41,0.44-0.62,0.66c-2.25,1.41-4.47,2.87-6.81,4.12l-1.58,0.87l-1.52,0.99
	c2.22-0.84,4.34-2.21,6.39-3.39c0.88-0.54,1.77-1.07,2.64-1.63c-0.21,0.24-0.42,0.47-0.63,0.72c-0.36,0.4-0.66,0.85-0.81,1.37
	c0.79-0.71,1.34-1.58,2.09-2.35c0.13-0.14,0.26-0.29,0.4-0.43c0.35-0.24,0.7-0.49,1.04-0.75c-0.01,0.02-0.02,0.03-0.03,0.05
	c-0.13,0.13-0.27,0.26-0.4,0.39c-0.96,1.12-2.01,2.38-2.97,3.49c-1.35,1.52-3.01,2.75-4.34,4.29c0.43-0.28,0.84-0.58,1.26-0.88
	c0,0,1.14-1.03,1.14-1.03c1.7-1.49,3.16-3.29,4.63-5.02c-0.19,0.33-0.39,0.67-0.6,0.99c-0.7,1.19-1.61,2.25-2.21,3.5
	c0.26-0.23,0.5-0.49,0.75-0.74c0,0,0.6-0.85,0.6-0.85c0.67-1.06,1.43-2.11,2.05-3.22c-0.66,1.31-1.37,2.7-2.03,3.97l-1.59,2.99
	l-0.81,1.49c-0.22,0.52-0.46,1.04-0.67,1.56c0.33-0.46,0.64-0.94,0.95-1.41c0.52-0.95,1.87-3.5,2.4-4.49
	c0.91-1.8,1.98-3.64,2.69-5.55c0.07,7.56,0.15,21.07,0.02,36.52c-0.24,0.23-0.5,0.66-0.65,1.48c-0.25,1.41-0.5,4.6-0.49,7.97
	l-0.01,0.47c-0.05,2.18-0.15,6.24,1.35,6.46c0.08,0.01,0.15,0.02,0.22,0.02c0.57,0,0.89-0.4,1.26-1.58c0.38-1.2,0.48-5.3,0.25-10.2
	c-0.14-3-0.57-4.15-0.93-4.59c0.03-15.1-0.19-28.43-0.36-36.15c0.13,0.28,0.27,0.57,0.41,0.85c0.73,2.19,1.15,4.47,1.34,6.78
	c0.04,0.47,0.08,0.94,0.11,1.4l0.22,1.4c0.23-1.88-0.1-3.78-0.37-5.65c-0.12-0.64-0.23-1.29-0.38-1.94c0.09,0.23,0.19,0.46,0.27,0.7
	c0.62,1.55,0.95,3.19,1.56,4.74c-0.06-1.69-0.71-3.27-1.26-4.85c-0.25-0.61-0.49-1.24-0.77-1.84c0.31,0.54,0.63,1.12,0.91,1.66
	c0.16,0.18,0.3,0.37,0.47,0.55c-0.04-0.24-0.12-0.47-0.18-0.7l-0.33-0.63c-0.1-0.19-0.21-0.38-0.31-0.57
	c0.17,0.22,0.34,0.44,0.5,0.65l1.16,1.54l0.57,0.78c0.23,0.23,0.46,0.46,0.7,0.69c-0.13-0.3-0.29-0.59-0.44-0.88l-0.58-0.78
	l-1.17-1.55c-0.41-0.53-0.85-1.1-1.29-1.64c0.87,0.86,1.75,1.7,2.57,2.6c1.38,1.4,2.57,2.99,4.01,4.23
	c-0.26-0.41-0.55-0.81-0.83-1.21l-0.97-1.09c-0.65-0.72-1.31-1.44-1.98-2.15c-0.77-0.79-1.52-1.62-2.33-2.38
	c0.07,0.05,0.14,0.09,0.21,0.14c0.33,0.3,0.64,0.57,0.84,0.76c1.08,0.96,2.1,1.98,3.09,3.02c1.44,1.51,2.96,3.25,4.33,4.84
	l1.51,1.56c-1.63-2.4-3.65-4.49-5.61-6.62c-0.73-0.77-1.5-1.53-2.28-2.28c0.89,0.62,1.76,1.27,2.62,2.02
	c0.35,0.29,0.7,0.58,1.04,0.88l1.12,0.8c-0.59-0.76-1.29-1.41-2.04-2.01c0.59,0.37,1.16,0.77,1.71,1.21
	c0.47,0.36,0.93,0.73,1.39,1.11l1.46,1.04c-1.19-1.35-2.63-2.44-4.1-3.45c-0.97-0.58-1.92-1.17-2.86-1.79
	c1.19,0.66,2.4,1.29,3.54,2.02c2.62,1.63,4.9,3.71,7.1,5.85c-1.8-2.54-4.36-4.43-6.93-6.12c-1.97-1.24-4.04-2.25-6.02-3.47
	c-0.12-0.06-0.24-0.13-0.35-0.19c-0.11-0.1-0.23-0.19-0.34-0.29c0.44,0.14,0.88,0.28,1.33,0.41c0.43,0.18,0.86,0.35,1.3,0.51
	c0.12,0.07,0.23,0.13,0.31,0.17c2.82,1.52,5.57,3.16,8.27,4.89c1.18,0.78,2.82,1.85,4.07,2.56c-2.37-2.04-5.33-3.73-8-5.36
	c-0.9-0.53-1.81-1.05-2.72-1.56c0.76,0.27,1.53,0.53,2.29,0.8c2.88,0.92,5.74,1.97,8.74,2.41c-2.81-0.98-5.83-1.72-8.64-2.71
	c-0.73-0.24-1.47-0.5-2.21-0.77c1.03,0.27,2.07,0.53,3.1,0.8c3.26,0.81,6.61,1.92,9.92,2.54c-3.15-1.18-6.6-1.96-9.84-2.85
	c-1.9-0.46-3.82-1.01-5.75-1.52c-0.18-0.1-0.36-0.19-0.54-0.29c0.19,0.04,0.39,0.08,0.58,0.11c2.3,0.65,4.8,1.25,6.7,1.77
	c2.99,0.74,7.43,2.04,10.44,2.52c-2.89-1.01-7.37-2.02-10.36-2.83c-0.42-0.11-1-0.26-1.66-0.44c0.08,0.02,0.15,0.03,0.23,0.05
	l4.41,0.97c1.28,0.32,3.15,0.7,4.44,0.86c-2.43-0.86-6.24-1.56-8.78-2.15c-1.65-0.32-3.29-0.71-4.95-1.01
	c1.97,0.22,3.95,0.45,5.91,0.78c3.28,0.49,6.63,1.3,9.93,1.75c-3.16-1-6.62-1.5-9.88-2.07c-1.22-0.18-2.44-0.37-3.66-0.53
	c1.67,0.15,3.35,0.31,4.91,0.54c3.63,0.5,7.17,1.44,10.75,2.19c-3.86-1.45-7.99-2.12-12.06-2.69c-1.55-0.18-3.68-0.36-5.48-0.53
	c2.51,0.17,5.05,0.31,7.5,0.58c4,0.37,7.96,1.04,11.94,1.52c-3.89-1.04-7.92-1.39-11.91-1.84c-3.38-0.3-6.77-0.64-10.16-0.65
	c1.48-0.02,2.95-0.05,4.43,0.01c2.19,0.02,4.48,0.32,6.68,0.2c-2.1-0.44-4.51-0.42-6.67-0.52c-1-0.01-2-0.05-3.01-0.05
	c0.09-0.01,0.17-0.02,0.26-0.03C25.78,22.67,25.79,22.67,25.8,22.67z M20.24,21.37c-1.15-2.55-2.7-4.9-4.09-7.32
	c-0.54-0.88-1.16-1.93-1.81-3.01c0.11,0.18,0.23,0.35,0.33,0.52l2.45,3.96c0.81,1.32,1.61,2.65,2.39,3.99
	c0.25,0.39,0.47,0.8,0.7,1.22c0.01,0.16,0.02,0.32,0.03,0.48c0,0,0.01,0.07,0.02,0.18C20.25,21.38,20.24,21.38,20.24,21.37z
	 M18.07,21.88c0.23,0.14,0.47,0.25,0.72,0.35c-0.36-0.1-0.73-0.21-1.09-0.3c-0.29-0.14-0.57-0.28-0.86-0.42
	C17.25,21.63,17.66,21.75,18.07,21.88C18.07,21.88,18.07,21.88,18.07,21.88z M12.57,13.73c1.29,2.39,3.15,5.34,5.25,7.29
	c-0.26-0.1-0.52-0.2-0.75-0.29C15.1,18.76,13.66,16.3,12.57,13.73z M14.55,20.18c-0.06-0.02-0.13-0.05-0.19-0.07
	c-0.18-0.11-0.36-0.23-0.54-0.35c0.93,0.37,1.87,0.75,2.77,1.11c0.1,0.06,0.2,0.13,0.3,0.19C16.1,20.77,15.32,20.48,14.55,20.18z
	 M2.78,18.98c3.1,0.72,6.35,1.23,9.42,1.95c1,0.21,2,0.45,2.99,0.7c-0.84-0.17-1.66-0.34-2.42-0.47c-2.56-0.41-5.16-0.98-7.76-1.01
	C4.26,19.77,3.52,19.37,2.78,18.98z M9.38,22.01c0.22,0.04,0.37,0.07,0.37,0.07c2.94,0.46,5.95,1.01,8.95,1.15
	C15.57,23.22,12.38,22.92,9.38,22.01z M9.8,21.76c-0.69-0.12-1.37-0.24-2.05-0.38l-0.2-0.02c-0.66-0.29-1.31-0.6-1.96-0.92
	c4.36,0.45,8.7,1.27,12.97,2.25c0.19,0.09,0.38,0.17,0.57,0.25C16,22.71,12.89,22.33,9.8,21.76z M18.86,22.25
	c-0.06-0.04-0.11-0.09-0.17-0.13c0.17,0.07,0.35,0.14,0.52,0.21c0.04,0.02,0.08,0.04,0.12,0.06C19.18,22.35,19.02,22.3,18.86,22.25z
	 M21.59,23.66c-0.01,0.01-0.01,0.02-0.02,0.03c-0.03,0.01-0.06,0.02-0.09,0.03C21.51,23.71,21.55,23.68,21.59,23.66z M21.49,23.63
	c0.01-0.01,0.02-0.03,0.03-0.04c0.01-0.01,0.03-0.02,0.04-0.03c0.01,0.01,0.01,0.03,0.02,0.04C21.55,23.61,21.52,23.62,21.49,23.63z
	 M21.58,22.94c-0.01,0.01-0.02,0.03-0.02,0.05c-0.06-0.02-0.13-0.05-0.19-0.07c-0.02-0.02-0.05-0.04-0.07-0.06
	C21.39,22.88,21.48,22.91,21.58,22.94z M20.59,22.2c-0.01-0.04-0.03-0.07-0.04-0.1c0,0,0.01,0.01,0.01,0.01
	c0.06,0.05,0.12,0.11,0.18,0.16C20.69,22.25,20.64,22.22,20.59,22.2z M20.54,21.64c0-0.1,0-0.21,0-0.31
	c0.1,0.18,0.21,0.36,0.32,0.53c0,0.02,0,0.05,0,0.07C20.75,21.83,20.64,21.74,20.54,21.64z M20.96,22.52
	c0.06,0.02,0.12,0.04,0.19,0.06c0.03,0.02,0.06,0.04,0.08,0.06c-0.09-0.04-0.18-0.07-0.27-0.11C20.96,22.53,20.96,22.53,20.96,22.52
	z M20.98,24.24c0.08-0.08,0.16-0.17,0.24-0.25c0.06-0.02,0.13-0.05,0.19-0.07c-0.02,0.03-0.04,0.06-0.05,0.08
	C21.23,24.09,21.11,24.17,20.98,24.24z M21.35,24.65c0.09-0.19,0.17-0.38,0.25-0.57c0.01-0.02,0.03-0.04,0.04-0.06
	c0.06-0.05,0.12-0.11,0.18-0.16C21.66,24.13,21.47,24.45,21.35,24.65z M23.16,22.55c-0.02,0.02-0.04,0.03-0.05,0.05
	c-0.01,0-0.01,0-0.02,0C23.12,22.58,23.14,22.57,23.16,22.55z M23.1,23.07c-0.06,0-0.11,0-0.17,0c0.01,0,0.01,0,0.02,0
	C23,23.07,23.05,23.07,23.1,23.07z M23.06,22.62c0.01,0,0.01,0,0.02,0c-0.09,0.07-0.17,0.14-0.26,0.22
	c0.09-0.05,0.17-0.11,0.26-0.16c-0.1,0.07-0.2,0.14-0.3,0.21c-0.05,0.01-0.1,0.01-0.15,0.02C22.77,22.81,22.91,22.72,23.06,22.62z
	 M22.69,23.54c-0.01,0-0.01,0-0.02,0c0,0,0-0.01,0.01-0.01C22.68,23.53,22.68,23.53,22.69,23.54z M22.97,24.07
	c-0.09-0.06-0.17-0.13-0.26-0.19c-0.02-0.02-0.05-0.05-0.07-0.07c0.04,0.01,0.08,0.03,0.12,0.04c0.1,0.09,0.19,0.17,0.29,0.26
	C23.03,24.09,23,24.08,22.97,24.07z M22.77,23.64c0.01,0,0.01,0,0.02,0c0,0,0.01,0.01,0.01,0.01L22.77,23.64z M22.77,23.43
	c-0.01-0.01-0.02-0.02-0.03-0.03c0.17,0.04,0.34,0.08,0.51,0.13c-0.05,0-0.1,0-0.16,0C22.98,23.5,22.88,23.46,22.77,23.43z
	 M22.72,23.34c0-0.02,0-0.04,0.01-0.06c0.08,0.03,0.15,0.05,0.23,0.08C22.88,23.35,22.8,23.35,22.72,23.34z M23.22,23.79
	c-0.02-0.01-0.03-0.03-0.05-0.04c0.04,0.02,0.09,0.04,0.13,0.06C23.28,23.81,23.25,23.8,23.22,23.79z M24.33,23.55
	c-0.24-0.05-0.39-0.08-0.78-0.17c0.41,0.06,0.82,0.12,1.24,0.19C24.63,23.56,24.48,23.56,24.33,23.55z M24.59,23.3
	c-0.55-0.02-1.11-0.04-1.66-0.05c-0.08-0.02-0.14-0.03-0.2-0.04c0-0.02,0-0.04-0.01-0.07C23.34,23.19,23.96,23.25,24.59,23.3z"/>
</svg>
