<?xml version="1.0" encoding="utf-8"?>
<!-- Generator: Adobe Illustrator 26.3.1, SVG Export Plug-In . SVG Version: 6.00 Build 0)  -->
<svg version="1.1" id="Layer_1" xmlns="http://www.w3.org/2000/svg" xmlns:xlink="http://www.w3.org/1999/xlink" x="0px" y="0px"
	 viewBox="0 0 38.86 51.26" enable-background="new 0 0 38.86 51.26" xml:space="preserve">
<path fill="#FFFFFF" d="M38.61,19.43c-3.41,0.36-6.86-0.19-10.12-1.19c-1.92-0.6-3.81-1.29-5.64-2.11c0.56,0.21,1.12,0.41,1.67,0.61
	c1.87,0.61,3.73,1.32,5.68,1.56c-1.81-0.68-3.78-1.14-5.6-1.81c-0.81-0.27-1.6-0.58-2.39-0.91c1.38,0.52,2.8,0.99,4.22,1.36
	c2.56,0.62,5.19,1.24,7.83,1.05c-2.61-0.27-5.22-0.62-7.77-1.3c-1.31-0.35-2.62-0.77-3.91-1.25c0.12,0.04,0.24,0.07,0.35,0.1
	c2.66,0.76,5.39,1.25,8.14,1.55c1.37,0.16,2.76,0.24,4.14,0.14c-3.84-0.35-7.71-0.71-11.44-1.72c1.54,0.3,3.09,0.53,4.63,0.75
	c3.17,0.34,6.36,0.63,9.55,0.46c-3.13-0.29-6.41-0.32-9.52-0.72c-1.85-0.23-3.68-0.58-5.51-0.94c0.71,0.1,1.42,0.16,2.14,0.19
	c1.03,0,2.05-0.06,3.07-0.12l1.53-0.11c0.51-0.08,1.01-0.16,1.52-0.26c-2.01-0.06-4.11,0.25-6.11,0.23
	c-0.59-0.01-1.18-0.06-1.76-0.14c0.29,0,0.57,0,0.57,0c1.68-0.01,3.35-0.1,5.02-0.22c3.33-0.29,6.69-0.56,9.95-1.36
	c-4.98,0.56-9.95,1.31-14.98,1.31c-0.78,0-1.59,0-2.39-0.05c-0.11-0.02-0.22-0.04-0.33-0.06c0.7,0.03,1.4,0,2.09-0.04
	c1.03-0.05,2.07-0.12,3.1-0.22c1.56,0.01,3.11-0.02,4.67-0.16c1.34-0.11,2.71-0.25,3.95-0.81c-1.88,0.39-3.77,0.58-5.68,0.65
	c2.2-0.25,4.44-0.54,6.55-1.08c-2.77,0.24-5.62,0.77-8.39,1.03c-0.38,0.03-0.76,0.07-1.15,0.1c-0.32,0-0.64,0-0.96-0.01
	c0.91-0.09,1.82-0.19,2.72-0.3c2.97-0.44,6.03-0.8,8.81-1.99c-2.92,0.72-5.86,1.37-8.85,1.73c-1.81,0.24-3.66,0.38-5.49,0.5
	c-0.53-0.01-1.06-0.02-1.6-0.03c-0.02,0-0.04,0-0.06,0c0.85-0.12,1.71-0.24,2.58-0.28c1.55-0.14,3.14-0.09,4.56-0.38
	c-0.38-0.04-0.77-0.06-1.15-0.08l-1.14,0.06c-1.53,0.09-3.05,0.16-4.57,0.37c-0.17,0.02-0.33,0.05-0.5,0.08
	c0.22-0.08,0.45-0.16,0.67-0.24c0.17-0.05,0.35-0.1,0.52-0.15c0.46-0.06,0.93-0.12,1.39-0.22c0.66-0.11,1.58-0.25,2.22-0.4
	c2.21-0.49,4.35-1.2,6.49-1.93c1.28-0.43,3-1.07,4.19-1.66c-3.57,1.06-7.09,2.55-10.74,3.34c-0.55,0.12-1.13,0.22-1.72,0.32
	c0.47-0.14,0.95-0.29,1.42-0.44c2-0.73,4.01-1.5,5.78-2.69c-1.97,0.78-3.85,1.78-5.86,2.45c-0.22,0.07-0.45,0.14-0.67,0.21
	c3.36-1.35,6.63-2.95,9.58-5.04c-2.44,1.19-4.82,2.71-7.3,3.81c-1.6,0.69-3.39,1.38-5.07,2.03c-0.32,0.06-0.63,0.14-0.94,0.24
	c0.04-0.02,0.08-0.04,0.12-0.06c1.73-0.94,3.81-1.63,5.6-2.43c2.46-1.17,4.84-2.64,6.69-4.66c-2.14,1.66-4.32,3.3-6.8,4.42
	c-1.52,0.69-3.29,1.29-4.84,2.04c0.6-0.36,1.19-0.71,1.8-1.04c1.46-0.84,3.02-1.5,4.33-2.41c-0.39,0.13-0.78,0.29-1.16,0.44
	l-1.1,0.57c-0.73,0.38-1.46,0.77-2.19,1.17c-1.27,0.74-2.64,1.39-3.75,2.36c0.26-0.25,0.53-0.49,0.81-0.72
	c1.33-1.24,2.92-2.21,4.63-2.82c2.25-0.83,4.78-1.9,5.98-4.12c-1.54,1.9-3.78,3.08-6.06,3.87c-1.75,0.63-3.37,1.61-4.72,2.88
	c-0.17,0.18-0.33,0.37-0.49,0.56c0.27-0.44,0.54-0.87,0.94-1.22c0.59-0.61,1.36-1.02,1.9-1.68c-0.21,0.08-0.4,0.17-0.6,0.27
	l-0.51,0.39c-0.42,0.33-0.85,0.69-1.22,1.1c0.7-1.06,1.62-1.95,2.54-2.83c1.48-1.39,3.17-2.51,4.78-3.74
	c-1.86,0.85-3.43,2.2-4.95,3.55c-0.91,0.87-1.9,1.8-2.59,2.88c0.86-2.21,2.38-4.11,3.6-6.13c-1.17,1.09-1.95,2.53-2.77,3.88
	c-0.33,0.56-0.64,1.14-0.9,1.74c0.04-0.33,0.07-0.66,0.09-0.99c0.24-0.99,0.5-1.97,0.82-2.94c0.61-2.04,1.49-4.08,2.07-6.14
	c-1,1.89-1.65,4.04-2.32,6.06c-0.18,0.58-0.35,1.16-0.52,1.75c0.02-1.18-0.04-2.36-0.17-3.53C19.25,3.64,18.16,1.62,16.7,0
	c1.23,2.09,2.73,4.23,2.81,6.74c0.09,1.26,0.11,2.53,0.02,3.78c-0.05,0.22-0.11,0.45-0.16,0.67c-0.05-0.37-0.13-0.74-0.23-1.1
	c-0.36-1.34-0.68-2.76-1.53-3.88c0.61,1.93,1.58,3.94,1.56,5.99c0,0.03-0.01,0.05-0.02,0.08c-0.01,0.19-0.03,0.42-0.04,0.66
	c-0.01,0.08-0.02,0.17-0.03,0.25c-0.01,0.16-0.03,0.33-0.04,0.49c0,0.02-0.01,0.03-0.01,0.05c0,0-0.01,0-0.01,0
	c-0.06-0.68-0.11-1.37-0.35-2.02c-0.38-1.13-0.8-2.27-1.23-3.39c-0.01-0.1-0.01-0.2-0.02-0.29c-0.19-2.19-0.31-4.4-0.89-6.52
	c0.11,1.98,0.45,4.01,0.59,6c-0.82-2.02-1.59-4.17-2.66-6.06c0.29,0.94,0.81,2.28,1.22,3.19c0.52,1.25,1.02,2.5,1.51,3.76
	c0.02,0.3,0.04,0.62,0.06,0.95c-0.2-0.62-0.39-1.24-0.56-1.88c-0.78-2.29-1.72-4.53-3.01-6.58c0.38,1,1,2.35,1.45,3.31
	c0.94,1.98,1.51,4.09,2.21,6.16c0.08,0.83,0.22,1.66,0.52,2.38c-0.87-1.04-1.65-2.21-2.03-3.53c-0.23-0.92-0.52-1.85-0.83-2.76
	l-0.48-1.36c-0.2-0.44-0.4-0.87-0.62-1.3c0.45,1.87,1.25,3.61,1.68,5.49c0.24,0.76,0.58,1.49,1.01,2.17
	c-0.96-0.97-1.94-1.92-2.88-2.91c-1.75-1.84-3.35-3.95-5.08-5.82c1.39,2.18,3.16,4.08,4.89,5.99c0.83,0.9,1.7,1.76,2.58,2.6
	c-0.89-0.8-1.77-1.61-2.63-2.44C11.57,7.11,9.83,5.19,7.87,3.5c1.6,1.99,3.6,3.78,5.41,5.56c0.94,0.89,1.88,1.78,2.85,2.64
	c0.22,0.2,0.44,0.4,0.67,0.59c-1.19-0.92-2.48-1.85-3.45-2.6l-2.83-2.16C9.68,6.86,8.53,6.02,7.62,5.47
	C8.39,6.21,9.5,7.1,10.37,7.73l2.83,2.16c0.82,0.61,1.82,1.39,2.83,2.15c-2.58-1.77-5.11-3.62-7.62-5.5L6.68,5.22L4.86,4
	c2.12,1.93,4.61,3.63,6.9,5.34c1.25,0.88,2.48,1.8,3.74,2.67c-1-0.53-1.99-1.06-2.93-1.64C10.48,9.16,8.4,7.7,6.24,6.59
	c0.88,0.7,2.08,1.5,3.05,2.08c1.65,1.01,3.29,2.04,4.98,2.99c-0.83-0.43-1.66-0.86-2.46-1.31c-2.42-1.29-4.82-2.83-7.26-4.1
	c2.19,1.65,4.75,2.99,7.13,4.33c0.47,0.25,0.94,0.51,1.42,0.76c-0.2-0.09-0.39-0.18-0.57-0.26c-1.92-0.83-4.72-2.22-6.68-2.86
	c1.79,1.05,4.67,2.22,6.57,3.1c0.2,0.09,0.41,0.18,0.63,0.27c-0.32-0.13-0.65-0.26-0.98-0.38c-1.15-0.42-2.31-0.76-3.47-1.11
	L6.85,9.6c-0.6-0.12-1.19-0.25-1.79-0.36c2.23,0.86,4.69,1.38,6.92,2.21c1.13,0.42,2.33,0.93,3.5,1.43l-2.03-0.7
	c-0.91-0.33-1.82-0.64-2.73-0.94l-1.37-0.45c-0.47-0.11-0.94-0.23-1.41-0.32c1.72,0.8,3.66,1.29,5.43,1.96
	c0.56,0.19,1.69,0.59,2.67,0.92c-2.48-0.67-4.97-1.34-7.41-2.15l-1.72-0.55L5.13,10.2c2.17,0.97,4.59,1.61,6.86,2.31
	c0.88,0.25,1.76,0.51,2.64,0.75c-1.43-0.24-2.87-0.51-4.21-0.84c-2.9-0.71-5.87-1.43-8.88-1.19c1.49,0.15,2.97,0.28,4.45,0.49
	c2.94,0.51,5.82,1.41,8.78,1.83l0.4,0.06c-1.38-0.17-2.79-0.36-4.11-0.54L7.14,12.5c-1.15-0.19-2.8-0.4-3.95-0.45
	c2.2,0.54,5.58,0.92,7.84,1.27c1.52,0.19,3.09,0.44,4.65,0.61c-2.87-0.16-5.73-0.45-8.56-0.96c-2.32-0.4-4.89-1-7.13,0.01
	c0.76-0.27,1.56-0.29,2.35-0.29c1.59-0.05,3.16,0.23,4.73,0.53c1.59,0.29,3.18,0.51,4.79,0.67c-0.14,0-0.29,0-0.43-0.01
	c-2.09,0.02-5.23-0.1-7.28,0.15c1.05,0.1,2.57,0.13,3.64,0.11c0,0,2.15,0,3.01,0.01c-0.21,0.01-0.43,0.02-0.64,0.02
	c-2.87,0.16-5.89,0.21-8.74,0.64c2.88,0.03,5.88-0.29,8.75-0.38c1.66-0.09,3.32-0.12,4.98-0.16c-1.41,0.2-2.82,0.41-4.2,0.57
	c-2.28,0.31-5.71,0.62-7.92,1.1c2.28-0.04,5.66-0.58,7.96-0.84c0.62-0.09,1.25-0.17,1.88-0.25c-0.85,0.17-1.7,0.36-2.55,0.55
	c-0.71,0.16-1.42,0.3-2.13,0.45c-2.17,0.45-4.11,1.86-5.28,3.72c0.96-1.08,2.07-2.03,3.33-2.73c1.27-0.73,2.75-0.85,4.15-1.18
	c2.13-0.47,4.25-0.96,6.43-1.15c0.33-0.05,0.66-0.08,0.99-0.12c-1.24,0.31-2.46,0.68-3.72,0.89c-1.66,0.31-3.47,0.44-4.9,1.43
	c2.89-1.08,6.08-1.11,8.96-2.21c-0.11,0.07-0.22,0.13-0.33,0.21c-0.84,0.22-1.72,0.46-2.42,0.67c-1.28,0.36-2.56,0.67-3.85,0.98
	c-2.56,0.72-5.09,1.63-7.4,2.94c2.49-0.9,4.9-2.03,7.47-2.69c1.91-0.47,3.84-0.91,5.71-1.52c-0.06,0.05-0.13,0.11-0.19,0.16
	c-0.72,0.36-1.46,0.68-2.2,1.02c-1.33,0.73-2.6,1.66-3.45,2.92c1.17-0.93,2.23-2.02,3.57-2.69c0.47-0.22,0.95-0.43,1.42-0.65
	c-0.45,0.46-0.86,0.95-1.24,1.46c-0.64,1.1-1.43,2.12-2.17,3.15c1.05-0.77,1.72-1.92,2.39-3.01c0.52-0.75,1.16-1.42,1.87-2.01
	c0.23-0.12,0.46-0.24,0.69-0.37c-0.59,0.71-1.09,1.49-1.62,2.24c-0.77,1.14-1.87,1.98-2.89,2.88c2.26-0.95,3.36-3.3,4.83-5.11
	c-1.02,2.73-4.12,10.86-8.16,21.53c-0.28,0.14-0.62,0.44-0.99,1.07c-0.68,1.17-1.93,3.91-3,6.88L6,44.97
	c-0.75,1.91-2.14,5.47-0.88,6.14c0.07,0.04,0.13,0.06,0.19,0.09c0.51,0.19,0.92-0.06,1.62-0.99c0.72-0.94,2.13-4.53,3.5-8.93
	c0.83-2.66,0.83-3.83,0.66-4.34c3.99-10.93,6.97-19.27,7.86-21.91c0.08,1.09,0.4,2.17,0.99,3.09c0.24,1.4,0.39,2.83,0.49,4.25
	c0.03,0.46,0.06,0.92,0.07,1.39l0.16,1.39c0.21-1.85-0.04-3.72-0.24-5.57c-0.05-0.33-0.1-0.66-0.15-0.99
	c0.16,0.2,0.33,0.39,0.52,0.57c0.44,0.4,0.85,0.83,1.25,1.27c0.28,0.31,0.56,0.63,0.84,0.95c1.23,2.28,2.27,4.67,3.52,6.94
	c-0.72-2.09-1.73-4.06-2.75-6.01c0.99,1.22,1.96,2.48,3.01,3.63c-0.32-0.51-0.65-1.01-0.99-1.51l-1.12-1.42
	c-0.48-0.6-0.97-1.19-1.46-1.77c-0.02-0.05-0.05-0.09-0.07-0.14c-1.17-2.15-2.34-4.44-3.77-6.45c0.02-0.01,0.03-0.03,0.05-0.04
	c0.71,1.24,1.63,2.41,2.4,3.64c0.9,1.35,1.65,2.88,2.92,3.96c-1.4-2.02-2.68-4.12-4.07-6.14l-0.01-0.02c1.1,1.34,3.4,4.21,4.33,5.37
	c1.75,2.15,4.24,5.47,6.1,7.48c-1.52-2.29-4.18-5.45-5.9-7.64c-0.82-1-1.8-2.25-2.81-3.5c0.96,1.05,1.91,2.1,2.83,3.15
	c1.75,1.94,4.24,4.95,6.08,6.75c-1.52-2.1-4.18-4.94-5.89-6.92c-0.06-0.07-0.12-0.14-0.18-0.2c1.41,1.44,3.11,3.21,4.44,4.31
	c-1.34-1.67-3.67-3.86-5.17-5.41c-0.67-0.66-1.47-1.49-2.29-2.33c0.1,0.08,0.2,0.17,0.29,0.25c2.36,1.96,4.82,3.8,7.36,5.52
	c1.26,0.87,2.56,1.69,3.94,2.37c-3.71-2.56-7.5-5.02-10.96-7.94c0.96,0.68,1.94,1.33,2.93,1.97c2.37,1.46,4.76,2.97,7.42,3.86
	c-2.43-1.28-4.87-2.53-7.19-4.02c0.59,0.33,1.18,0.66,1.77,0.97c3.06,1.55,6.18,3.07,9.51,3.97c-3.16-1.33-6.35-2.59-9.39-4.2
	c-1.31-0.67-2.57-1.42-3.81-2.2c0.5,0.29,1.01,0.57,1.51,0.86c2.3,1.22,4.61,2.48,7.09,3.31c-1.01-0.56-2.46-1.26-3.5-1.75
	c-2.22-1.07-4.39-2.24-6.46-3.56c1.8,0.98,3.67,1.83,5.51,2.72c3.16,1.42,6.34,2.89,9.7,3.75c-3.21-1.3-6.46-2.51-9.6-3.99
	c-1.43-0.66-2.84-1.35-4.24-2.07c1.45,0.59,2.92,1.12,4.42,1.58C31.69,19.43,35.23,20.24,38.61,19.43z M17.6,10.35
	c-0.04-0.38-0.07-0.76-0.09-1.13c0.32,0.85,0.63,1.71,0.92,2.58c0.19,0.64,0.34,1.29,0.5,1.94c-0.04,0-0.08,0.01-0.12,0.03
	c-0.3-0.94-0.71-2.04-1.02-2.86C17.73,10.72,17.66,10.53,17.6,10.35z M17.8,11.68c0.25,0.66,0.52,1.31,0.83,1.94
	c-0.07-0.08-0.15-0.17-0.22-0.26C18.12,12.86,17.93,12.28,17.8,11.68z M18.52,14.44c0,0.01,0.01,0.02,0.01,0.02
	c-0.03,0.03-0.06,0.06-0.08,0.09c-0.02,0.01-0.05,0.01-0.07,0.02C18.42,14.53,18.47,14.48,18.52,14.44z M18.51,14.03
	c0,0,0.01,0,0.01,0c0,0,0,0,0,0C18.51,14.03,18.51,14.03,18.51,14.03z M18.26,13.89c-0.04-0.01-0.09-0.02-0.13-0.03
	c-0.09-0.05-0.18-0.1-0.27-0.14C18,13.77,18.13,13.83,18.26,13.89z M17.04,14.25c0.02,0,0.03-0.01,0.05-0.01
	c0.46-0.01,0.93-0.02,1.39-0.04c0,0.01,0,0.02,0,0.03c-0.04,0.01-0.09,0.02-0.13,0.03C17.91,14.24,17.47,14.24,17.04,14.25z
	 M22.37,20.39c-0.04-0.05-0.08-0.1-0.13-0.14c-0.66-0.77-1.49-1.39-2.06-2.23c-0.16-0.95-0.36-1.89-0.69-2.78
	C20.42,16.96,21.45,18.67,22.37,20.39z M19.36,15.53c0.17,0.57,0.31,1.15,0.43,1.72c-0.35-0.79-0.59-1.63-0.74-2.48
	c0.01-0.02,0.01-0.04,0.02-0.05c0.04-0.01,0.07-0.01,0.11-0.03C19.24,14.97,19.3,15.25,19.36,15.53z M19.32,13.86
	c0.14-0.08,0.28-0.16,0.42-0.24c-0.1,0.07-0.19,0.14-0.29,0.22c-0.03,0.02-0.06,0.04-0.1,0.07C19.34,13.88,19.33,13.87,19.32,13.86z
	 M19.4,13.97c0.07-0.02,0.15-0.04,0.22-0.06c0,0,0,0,0,0C19.55,13.93,19.48,13.95,19.4,13.97C19.41,13.97,19.4,13.97,19.4,13.97z
	 M19.48,14.41c-0.01-0.01-0.02-0.01-0.02-0.02c0-0.01,0-0.01,0-0.02c0.01,0.01,0.02,0.02,0.04,0.04
	C19.49,14.41,19.48,14.41,19.48,14.41z M19.48,14.2C19.48,14.2,19.48,14.2,19.48,14.2c1.07,0.03,2.14,0.02,3.21-0.04
	c0.27,0.01,0.54,0.01,0.82,0.02c-1.34,0.08-2.68,0.1-4.02,0.02C19.49,14.21,19.48,14.2,19.48,14.2z M19.66,14.44
	c-0.01-0.01-0.02-0.01-0.03-0.02c0.02,0.01,0.03,0.02,0.05,0.03C19.67,14.44,19.67,14.44,19.66,14.44z M19.95,14.66
	c-0.03-0.02-0.06-0.04-0.08-0.06c-0.02-0.01-0.03-0.02-0.05-0.04c0.07,0.02,0.13,0.04,0.2,0.06c0.19,0.1,0.38,0.2,0.57,0.29
	C20.38,14.83,20.17,14.75,19.95,14.66z"/>
</svg>
